<?xml version="1.0" encoding="UTF-8"?>
<svg width="1000px" height="1000px" viewBox="0 0 1000 1000" version="1.1" xmlns="http://www.w3.org/2000/svg" xmlns:xlink="http://www.w3.org/1999/xlink">
    <title>BrandingAssets/ negative/SVG  bubblegum</title>
    <g id="BrandingAssets/-negative/-bubblegum" stroke="none" stroke-width="1" fill="none" fill-rule="evenodd">
        <g id="Group" transform="translate(22, 100)" fill="#D038AC" fill-rule="nonzero">
            <g id="optio-1-symbol-primary" transform="translate(17.8862, 0)">
                <path d="M436.892502,43.7493554 L436.892502,133.57772 L218.255706,167.562819 C147.418005,178.573894 90.967315,239.607058 89.845385,303.191638 L89.828365,305.119175 C89.828365,369.393195 146.702473,413.872109 218.255706,402.749811 L436.892502,368.764712 L436.892502,458.593077 L218.255706,492.578176 C99.5403245,511.0314 1.96898092,435.837799 0.0294255859,322.527434 L0,319.082176 C0,203.855171 98.3411793,96.3740748 218.255706,77.7344538 L436.892502,43.7493554 Z" id="Combined-Shape-Copy-2"></path>
                <path d="M481.806685,36.7678548 L700.443481,2.78275639 C820.358008,-15.8568645 918.699187,61.0517505 918.699187,176.278756 L918.669761,179.733161 C916.730206,293.646499 819.158862,399.173253 700.443481,417.626478 L571.63505,437.648576 L481.806685,603.503176 L481.806685,36.7678548 Z" id="Combined-Shape-Copy-3"></path>
            </g>
            <g id="CloudDose-Copy" transform="translate(0, 678.0488)">
                <path d="M101.959216,77.3024124 C101.070683,92.4074815 95.739482,103.84735 85.9656138,111.622018 C77.4134791,118.508152 66.3068106,121.95122 52.6456084,121.95122 C36.2077391,121.95122 23.8238038,118.008352 15.4938025,110.122618 C5.16460083,100.459816 0,84.1885468 0,61.3088098 C0,20.4362699 17.5485361,0 52.6456084,0 C65.1961438,0 75.4698121,2.8877338 83.4666134,8.66320139 C92.7962148,15.3272025 98.4050824,25.4898041 100.293216,39.1510063 L75.136612,46.3148074 C72.3599449,33.6532054 64.8629437,27.3224044 52.6456084,27.3224044 C35.6524057,27.3224044 27.1558043,38.6512062 27.1558043,61.3088098 C27.1558043,83.6332134 35.6524057,94.7954152 52.6456084,94.7954152 C66.6400107,94.7954152 74.3591452,88.1869474 75.8030121,74.970012 L101.959216,77.3024124 Z M149.828957,35.1526056 L149.162557,119.785419 L123.339553,119.785419 L123.339553,1.66600027 L149.329157,1.66600027 C149.662357,18.3260029 149.828957,29.4882047 149.828957,35.1526056 Z M271.50251,74.3036119 C271.50251,91.9632147 266.615576,104.68035 256.841708,112.455018 C248.73384,118.785819 236.905238,121.95122 221.355902,121.95122 C205.806566,121.95122 193.977964,118.785819 185.870096,112.455018 C176.096228,104.791417 171.209294,92.0742814 171.209294,74.3036119 C171.209294,56.5329424 176.096228,43.815807 185.870096,36.1522058 C193.977964,29.7103381 205.806566,26.4894042 221.355902,26.4894042 C236.905238,26.4894042 248.73384,29.7103381 256.841708,36.1522058 C266.615576,43.815807 271.50251,56.5329424 271.50251,74.3036119 Z M244.679906,76.1362122 C244.790972,74.9144787 244.846506,73.7482785 244.846506,72.6376116 C244.846506,59.1985428 236.238838,52.4790084 219.023502,52.4790084 C206.3619,52.4790084 199.420232,59.0874761 198.198498,72.3044116 C196.754631,87.9648141 205.251233,95.7950153 223.688302,95.7950153 C236.460971,95.7950153 243.458172,89.2420809 244.679906,76.1362122 Z M381.680661,73.8038118 C381.680661,105.902084 366.742192,121.95122 336.865254,121.95122 C321.649118,121.95122 310.431383,118.896886 303.212049,112.788218 C295.215247,106.01315 291.216847,94.9620152 291.216847,79.6348127 C291.216847,77.7466791 291.27238,75.7474788 291.383447,73.6372118 L294.049047,28.4886046 L318.206051,28.4886046 C318.650318,49.1470079 318.594784,63.8078102 318.039451,72.4710116 C317.484117,80.5788796 318.761384,86.4098805 321.871251,89.9640144 C324.425785,92.9628149 328.646319,94.6843485 334.532854,95.1286152 C347.971922,96.2392821 354.858057,90.0195477 355.191257,76.4694122 L356.357457,28.4886046 L381.680661,28.4886046 L381.680661,73.8038118 Z M492.192012,73.6372118 C492.636279,92.2964148 488.304678,105.457817 479.19721,113.121418 C472.088942,119.007952 461.315474,121.95122 446.876805,121.95122 C432.438136,121.95122 421.720201,119.007952 414.723,113.121418 C405.837665,105.67995 401.394998,92.7406815 401.394998,74.3036119 C401.394998,42.4274735 415.3894,26.4894042 443.378204,26.4894042 C452.596739,26.4894042 459.482874,29.5437381 464.036608,35.6524057 L465.369408,35.6524057 L465.369408,1.66600027 L490.692612,1.66600027 C490.692612,35.541339 491.192412,59.5317429 492.192012,73.6372118 Z M465.869208,73.1374117 C465.424941,64.9184771 463.314674,59.3651428 459.538407,56.477409 C456.539606,54.1450087 451.874806,53.1454085 445.544005,53.4786086 C439.213204,53.8118086 434.715003,55.2556755 432.049402,57.8102092 C428.606335,61.1422098 427.106935,66.9732107 427.551202,75.303212 C427.995468,83.6332134 430.105735,89.2420809 433.882003,92.1298147 C436.880803,94.3511484 441.601137,95.2952152 448.043005,94.9620152 C454.373806,94.6288151 458.816473,93.1849482 461.371007,90.6304145 C464.814074,87.298414 466.313475,81.467413 465.869208,73.1374117 Z M614.032165,60.3092096 C614.032165,101.403883 596.428095,121.95122 561.219956,121.95122 C545.559554,121.95122 531.231952,120.785019 518.23715,118.452619 C517.348616,102.68115 516.349016,78.3020125 515.238349,45.3152073 C515.127282,36.4298725 515.460482,23.1574037 516.237949,5.49780088 C526.789284,1.83260029 541.783287,0 561.219956,0 C577.546759,0 589.986228,3.99840064 598.538362,11.9952019 C608.867564,21.7690701 614.032165,37.8737394 614.032165,60.3092096 Z M586.876361,60.3092096 C586.876361,38.2069394 578.324226,27.1558043 561.219956,27.1558043 C558.221156,27.1558043 554.667022,27.2113377 550.557555,27.3224044 C546.448087,27.3224044 543.83802,27.3224044 542.727354,27.3224044 L543.393754,94.4622151 C548.724954,94.9064819 554.667022,95.1286152 561.219956,95.1286152 C578.324226,95.1286152 586.876361,83.5221467 586.876361,60.3092096 Z M730.707717,74.3036119 C730.707717,91.9632147 725.820783,104.68035 716.046915,112.455018 C707.939047,118.785819 696.110445,121.95122 680.561109,121.95122 C665.011773,121.95122 653.183171,118.785819 645.075303,112.455018 C635.301435,104.791417 630.414501,92.0742814 630.414501,74.3036119 C630.414501,56.5329424 635.301435,43.815807 645.075303,36.1522058 C653.183171,29.7103381 665.011773,26.4894042 680.561109,26.4894042 C696.110445,26.4894042 707.939047,29.7103381 716.046915,36.1522058 C725.820783,43.815807 730.707717,56.5329424 730.707717,74.3036119 Z M703.885113,76.1362122 C703.996179,74.9144787 704.051713,73.7482785 704.051713,72.6376116 C704.051713,59.1985428 695.444045,52.4790084 678.228709,52.4790084 C665.567106,52.4790084 658.625439,59.0874761 657.403705,72.3044116 C655.959838,87.9648141 664.45644,95.7950153 682.893509,95.7950153 C695.666178,95.7950153 702.663379,89.2420809 703.885113,76.1362122 Z M843.051668,91.7966147 C843.051668,111.899685 826.946999,121.95122 794.73766,121.95122 C776.411658,121.95122 763.861122,119.007952 757.086054,113.121418 C752.19912,108.900884 749.755653,102.34795 749.755653,93.462615 L772.913057,91.1302146 C772.913057,96.0171487 780.187925,98.4606158 794.73766,98.4606158 C802.512328,98.4606158 807.787996,98.1274157 810.564663,97.4610156 C814.34093,96.5724821 816.229064,94.6843485 816.229064,91.7966147 C816.229064,88.6867475 814.563064,86.9096806 811.231063,86.4654138 C810.67573,86.3543472 804.955795,86.2988138 794.07126,86.2988138 C777.966591,86.2988138 766.026923,83.1334133 758.252255,76.8026123 C751.921454,71.6935448 748.756053,65.0295437 748.756053,56.8106091 C748.756053,47.8142077 751.421654,40.9280732 756.752854,36.1522058 C764.083256,29.7103381 776.689324,26.4894042 794.57106,26.4894042 C812.34173,26.4894042 824.725665,29.377138 831.722866,35.1526056 C836.943001,39.4842063 839.553068,45.9816074 839.553068,54.6448087 L817.395264,57.6436092 C816.173531,54.7558754 814.229864,52.8122084 811.564263,51.8126083 C808.454396,50.5908748 802.845528,49.980008 794.73766,49.980008 C786.629793,49.980008 781.409658,50.3132081 779.077258,50.9796082 C776.300591,51.6460083 774.912257,53.4230752 774.912257,56.310809 C774.912257,58.9764094 776.966991,60.6424097 781.076458,61.3088098 C782.853525,61.5309432 787.629393,61.6420099 795.404061,61.6420099 C814.17433,61.6420099 827.113599,64.3076103 834.221867,69.6388111 C840.108401,73.9704118 843.051668,81.3563464 843.051668,91.7966147 Z M955.72882,84.7994136 C953.840686,98.4606158 950.286552,107.734684 945.066418,112.621618 C938.29135,118.841352 926.074015,121.95122 908.414412,121.95122 C889.422009,121.95122 876.788174,118.813586 870.512906,112.538318 C864.237638,106.26305 861.100004,93.5181483 861.100004,74.3036119 C861.100004,55.0890755 864.237638,42.3164068 870.512906,35.9856058 C876.788174,29.6548047 889.366476,26.4894042 908.247812,26.4894042 C926.129548,26.4894042 938.235817,29.7103381 944.566618,36.1522058 C951.341686,43.0383402 954.729219,56.5329424 954.729219,76.6360123 L887.756009,80.4678129 C887.756009,87.5760807 889.866276,92.1298147 894.08681,94.1290151 C896.308143,95.1286152 901.084011,95.6284153 908.414412,95.6284153 C916.18908,95.6284153 921.520281,94.8509485 924.408015,93.2960149 C927.295748,91.7410813 929.183882,88.7978142 930.072415,84.4662135 L955.72882,84.7994136 Z M927.240215,59.3096095 C927.018082,54.5337421 925.018881,51.5349416 921.242614,50.3132081 C919.576614,49.7578746 915.52268,49.4802079 909.080812,49.4802079 C900.861877,49.4802079 895.33631,50.3132081 892.504109,51.9792083 C889.671909,53.6452086 888.200275,56.9772091 888.089209,61.9752099 L927.240215,59.3096095 Z" id="Combined-Shape"></path>
            </g>
        </g>
    </g>
</svg>