<?xml version="1.0" encoding="UTF-8"?>
<svg width="100px" height="100px" viewBox="0 0 100 100" version="1.1" xmlns="http://www.w3.org/2000/svg" xmlns:xlink="http://www.w3.org/1999/xlink">
    <title>SVG tricen / primary-symbol - mono - dark-bg</title>
    <defs>
        <path d="M42.5588571,72.0929749 L69.7545862,88.2233479 L69.7545862,100 L42.5588571,83.2581511 L42.5588571,72.0929749 Z M92.6452549,58.1967796 L92.6452549,89.8422606 L71.7035367,100 L71.7035367,88.2233479 L83.5082271,82.4845079 L83.5082271,73.3829061 L71.7035367,78.9190147 L71.7035367,67.6623181 L92.6452549,58.1967796 Z M42.5588571,31.1513729 L69.7545862,47.4474868 L69.7545862,58.8809518 L55.6611474,50.2532156 L55.6611474,59.1983741 L69.7545862,67.6623181 L69.7545862,78.9190147 L42.5588571,62.3439204 L42.5588571,31.1513729 Z M8,9.98977045 L18.5215248,16.4961182 L34.772657,26.1158475 L34.772657,78.6693666 L21.3863285,70.3206334 L21.3863285,29.7877522 L8,21.6042288 L8,9.98977045 Z M92.6452549,37.4749551 L92.6452549,48.7752899 L71.7035367,58.8809518 L71.7035367,47.4474868 L92.6452549,37.4749551 Z M30.1551195,0 L70.5662151,24.6018654 L70.5662151,36.0369622 L30.1551195,11.4312803 L30.1551195,0 Z M28.5635397,0.0121735802 L28.5932986,11.4312803 L20.1895976,15.3740734 L9.60398497,8.88607507 L28.5635397,0.0121735802 Z" id="path-1"></path>
    </defs>
    <g id="Page-1" stroke="none" stroke-width="1" fill="none" fill-rule="evenodd">
        <g id="Tricen-logo" transform="translate(-231.000000, -525.000000)">
            <g id="Group-4" transform="translate(0.000000, 450.000000)">
                <g id="tricen-/-primary-symbol---mono---dark-bg" transform="translate(231.000000, 75.000000)">
                    <rect id="base" x="0" y="0" width="100" height="100"></rect>
                    <mask id="mask-2" fill="white">
                        <use xlink:href="#path-1"></use>
                    </mask>
                    <use id="Combined-Shape" fill="#FFFFFF" xlink:href="#path-1"></use>
                </g>
            </g>
        </g>
    </g>
</svg>