<?xml version="1.0" encoding="UTF-8"?>
<svg width="687px" height="100px" viewBox="0 0 687 100" version="1.1" xmlns="http://www.w3.org/2000/svg" xmlns:xlink="http://www.w3.org/1999/xlink">
    <title>SVG tricen / primary-logo</title>
    <defs>
        <polygon id="path-1" points="5.40025303e-17 10.1134552 21.3338702 6.92257496e-15 62.2606785 24.6541933 62.2606785 36.0334478 21.3338702 11.3754567 10.4701439 16.5880297 26.6419151 26.1607819 26.6419151 78.4576606 13.3209575 70.1496977 13.3209575 29.8147553 0 21.6711954"></polygon>
        <linearGradient x1="100%" y1="32.2106157%" x2="22.1699394%" y2="71.0203795%" id="linearGradient-3">
            <stop stop-color="#5591F3" offset="0%"></stop>
            <stop stop-color="#FFFFFF" offset="100%"></stop>
        </linearGradient>
        <polygon id="path-4" points="1.89797497e-14 1.42348123e-14 27.8705865 16.5324056 49.8418053 6.29270157 49.8418053 17.5378522 27.8705865 27.9100362 13.0383064 19.0085606 13.0383064 27.9100362 27.8705865 36.6485195 49.8418053 26.9133328 49.8418053 58.404276 27.8705865 68.8282832 1.89797497e-14 51.8523194 1.89797497e-14 40.7416674 27.8705865 57.1091414 40.7493974 51.0824542 40.7493974 42.0252993 27.8705865 47.850245 1.89797497e-14 31.0402214"></polygon>
        <linearGradient x1="90.224086%" y1="33.5972078%" x2="-34.8489426%" y2="89.4931394%" id="linearGradient-6">
            <stop stop-color="#FFFFFF" offset="0%"></stop>
            <stop stop-color="#5591F3" offset="100%"></stop>
        </linearGradient>
        <linearGradient x1="63.7385339%" y1="42.1806142%" x2="26.4254207%" y2="68.8035013%" id="linearGradient-7">
            <stop stop-color="#FFFFFF" offset="0%"></stop>
            <stop stop-color="#5591F3" offset="100%"></stop>
        </linearGradient>
    </defs>
    <g id="Page-1" stroke="none" stroke-width="1" fill="none" fill-rule="evenodd">
        <g id="Tricen-logo" transform="translate(-223.000000, -777.000000)">
            <g id="Group-6" transform="translate(-1.000000, 702.000000)">
                <g id="tricen-/-primary-logo" transform="translate(224.000000, 75.000000)">
                    <g id="symbol-wrapper" transform="translate(0.000000, 0.000000)">
                        <g id="Path-3-+-Path-4-+-Path-5-Mask">
                            <mask id="mask-2" fill="white">
                                <use xlink:href="#path-1"></use>
                            </mask>
                            <use id="Mask" fill="#5591F3" xlink:href="#path-1"></use>
                            <polygon id="Path-3" mask="url(#mask-2)" points="21.3338702 5.69392491e-14 21.3338702 11.3754567 62.2606785 36.0334478 62.2606785 24.6541933"></polygon>
                            <polygon id="Path-4" fill="url(#linearGradient-3)" mask="url(#mask-2)" points="1.18623436e-15 10.1134552 10.4701439 16.5880297 21.3338702 11.3754567 21.3338702 3.79594994e-14"></polygon>
                            <polygon id="Path-5" fill-opacity="0.1" fill="#000000" mask="url(#mask-2)" points="9.48987485e-15 10.1134552 9.48987485e-15 16.5880297 19.2602693 28.7956692 19.2602693 74.0327927 26.6419151 78.4576606 26.6419151 26.1607819"></polygon>
                        </g>
                        <g id="Group" transform="translate(34.390092, 31.171717)">
                            <g id="Path-7-+-Path-8-+-Path-9-+-Path-10-Mask" transform="translate(0.000000, 0.000000)">
                                <mask id="mask-5" fill="white">
                                    <use xlink:href="#path-4"></use>
                                </mask>
                                <use id="Mask" fill="#5591F3" xlink:href="#path-4"></use>
                                <polygon id="Path-7" fill="url(#linearGradient-6)" mask="url(#mask-5)" points="27.8705865 16.5324056 27.8705865 27.9100362 49.8418053 17.5378522 49.8418053 6.29270157"></polygon>
                                <polygon id="Path-8" fill="url(#linearGradient-7)" mask="url(#mask-5)" points="27.8705865 36.6485195 27.8705865 47.850245 40.7493974 42.0252993 40.7493974 51.0824542 27.8705865 57.1091414 27.8705865 68.8282832 49.8418053 58.404276 49.8418053 26.9133328"></polygon>
                                <polygon id="Path-9" fill="#4C82DA" mask="url(#mask-5)" points="27.8705865 22.1941114 6.6277674 10.0430696 6.6277674 29.2942654 27.8705865 41.8675893 27.8705865 47.870808 0 31.0402214 0 -1.89797497e-14 27.8705865 16.5324056"></polygon>
                                <polygon id="Path-10" fill="#4C82DA" mask="url(#mask-5)" points="9.48987485e-15 46.6197208 27.8705865 63.2228224 27.8705865 68.8282832 9.48987485e-15 51.8523194"></polygon>
                            </g>
                        </g>
                    </g>
                    <path d="M128,77 L128,33.32 L142.4,33.32 L142.4,21 L100.8,21 L100.8,33.32 L115.2,33.32 L115.2,77 L128,77 Z M154.8,77 L154.8,58.92 C154.8,55.2933333 156.066667,52.7466667 158.6,51.28 C161.133333,49.8133333 163.866667,49.32 166.8,49.8 L166.8,49.8 L166.8,36.2 C164.08,36.2 161.586667,36.88 159.32,38.24 C157.053333,39.6 155.546667,41.56 154.8,44.12 L154.8,44.12 L154.8,37 L142.8,37 L142.8,77 L154.8,77 Z M178.4,33.48 C180.373333,33.48 182.053333,32.7866667 183.44,31.4 C184.88,29.96 185.6,28.2533333 185.6,26.28 C185.6,24.3066667 184.893333,22.6133333 183.48,21.2 C182.066667,19.7866667 180.373333,19.08 178.4,19.08 C176.426667,19.08 174.733333,19.7866667 173.32,21.2 C171.906667,22.6133333 171.2,24.3066667 171.2,26.28 C171.2,28.2533333 171.906667,29.9466667 173.32,31.36 C174.733333,32.7733333 176.426667,33.48 178.4,33.48 Z M184.4,77 L184.4,37 L172.4,37 L172.4,77 L184.4,77 Z M212.4,78.12 C216.293333,78.12 219.84,77.1866667 223.04,75.32 C226.24,73.4533333 228.72,70.9466667 230.48,67.8 L230.48,67.8 L220,61.8 C218.613333,64.7866667 216.026667,66.28 212.24,66.28 C209.626667,66.28 207.466667,65.4133333 205.76,63.68 C204.053333,61.9466667 203.2,59.72 203.2,57 C203.2,54.28 204.053333,52.0533333 205.76,50.32 C207.466667,48.5866667 209.626667,47.72 212.24,47.72 C215.973333,47.72 218.56,49.2133333 220,52.2 L220,52.2 L230.48,46.12 C228.72,43.0266667 226.226667,40.5466667 223,38.68 C219.773333,36.8133333 216.24,35.88 212.4,35.88 C206.32,35.88 201.266667,37.9066667 197.24,41.96 C193.213333,46.0133333 191.2,51.0266667 191.2,57 C191.2,62.9733333 193.213333,67.9866667 197.24,72.04 C201.266667,76.0933333 206.32,78.12 212.4,78.12 Z M254.64,78.12 C262.32,78.12 268.133333,75.3733333 272.08,69.88 L272.08,69.88 L262.48,64.36 C260.613333,66.3866667 258.053333,67.4 254.8,67.4 C249.786667,67.4 246.586667,65.5333333 245.2,61.8 L245.2,61.8 L273.6,61.8 C273.92,60.3066667 274.08,58.7066667 274.08,57 C274.08,50.9733333 272.146667,45.9466667 268.28,41.92 C264.413333,37.8933333 259.573333,35.88 253.76,35.88 C247.52,35.88 242.413333,37.8933333 238.44,41.92 C234.466667,45.9466667 232.48,50.9733333 232.48,57 C232.48,63.08 234.493333,68.12 238.52,72.12 C242.546667,76.12 247.92,78.12 254.64,78.12 Z M262.16,52.84 L244.96,52.84 C246.133333,48.6266667 249.04,46.52 253.68,46.52 C258.16,46.52 260.986667,48.6266667 262.16,52.84 L262.16,52.84 Z M292.88,77 L292.88,55.16 C292.88,52.44 293.546667,50.3866667 294.88,49 C296.213333,47.6133333 298.026667,46.92 300.32,46.92 C302.346667,46.92 304.013333,47.5466667 305.32,48.8 C306.626667,50.0533333 307.28,51.8533333 307.28,54.2 L307.28,54.2 L307.28,77 L319.28,77 L319.28,52.44 C319.28,47.2666667 317.853333,43.2133333 315,40.28 C312.146667,37.3466667 308.586667,35.88 304.32,35.88 C299.093333,35.88 295.28,37.5066667 292.88,40.76 L292.88,40.76 L292.88,37 L280.88,37 L280.88,77 L292.88,77 Z M367.52,78.12 C373.706667,78.12 378.72,76.5866667 382.56,73.52 C386.4,70.4533333 388.32,66.2533333 388.32,60.92 C388.32,58.6266667 387.933333,56.5866667 387.16,54.8 C386.386667,53.0133333 385.506667,51.5733333 384.52,50.48 C383.533333,49.3866667 382.093333,48.3466667 380.2,47.36 C378.306667,46.3733333 376.746667,45.6666667 375.52,45.24 C374.293333,44.8133333 372.56,44.2533333 370.32,43.56 C366.213333,42.3333333 363.506667,41.2133333 362.2,40.2 C360.893333,39.1866667 360.24,37.9866667 360.24,36.6 C360.24,35.4266667 360.76,34.4266667 361.8,33.6 C362.84,32.7733333 364.32,32.36 366.24,32.36 C368.693333,32.36 370.666667,32.9066667 372.16,34 C373.653333,35.0933333 374.906667,36.7066667 375.92,38.84 L375.92,38.84 L386.72,32.52 C384.693333,28.4133333 381.92,25.28 378.4,23.12 C374.88,20.96 370.826667,19.88 366.24,19.88 C361.12,19.88 356.706667,21.4266667 353,24.52 C349.293333,27.6133333 347.44,31.7466667 347.44,36.92 C347.44,39.48 347.88,41.7466667 348.76,43.72 C349.64,45.6933333 350.92,47.3333333 352.6,48.64 C354.28,49.9466667 356,51 357.76,51.8 C359.52,52.6 361.573333,53.32 363.92,53.96 C368.4,55.1866667 371.453333,56.2666667 373.08,57.2 C374.706667,58.1333333 375.52,59.4266667 375.52,61.08 C375.52,64.12 372.986667,65.64 367.92,65.64 C362.32,65.64 358.4,63.0533333 356.16,57.88 L356.16,57.88 L345.12,64.28 C346.72,68.5466667 349.426667,71.92 353.24,74.4 C357.053333,76.88 361.813333,78.12 367.52,78.12 Z M414.72,78.12 C420.64,78.12 425.653333,76.0933333 429.76,72.04 C433.866667,67.9333333 435.92,62.92 435.92,57 C435.92,51.08 433.866667,46.08 429.76,42 C425.653333,37.92 420.64,35.88 414.72,35.88 C408.8,35.88 403.786667,37.92 399.68,42 C395.573333,46.08 393.52,51.08 393.52,57 C393.52,62.92 395.573333,67.92 399.68,72 C403.786667,76.08 408.8,78.12 414.72,78.12 Z M414.72,66.44 C412.106667,66.44 409.92,65.56 408.16,63.8 C406.4,62.04 405.52,59.7733333 405.52,57 C405.52,54.2266667 406.4,51.96 408.16,50.2 C409.92,48.44 412.106667,47.56 414.72,47.56 C417.333333,47.56 419.52,48.44 421.28,50.2 C423.04,51.96 423.92,54.2266667 423.92,57 C423.92,59.7733333 423.04,62.04 421.28,63.8 C419.52,65.56 417.333333,66.44 414.72,66.44 Z M454.72,77 L454.72,18.6 L442.72,18.6 L442.72,77 L454.72,77 Z M477.92,78.12 C483.146667,78.12 486.96,76.4933333 489.36,73.24 L489.36,73.24 L489.36,77 L501.36,77 L501.36,37 L489.36,37 L489.36,58.84 C489.36,61.56 488.693333,63.6133333 487.36,65 C486.026667,66.3866667 484.213333,67.08 481.92,67.08 C479.893333,67.08 478.226667,66.4533333 476.92,65.2 C475.613333,63.9466667 474.96,62.1466667 474.96,59.8 L474.96,59.8 L474.96,37 L462.96,37 L462.96,61.56 C462.96,66.7333333 464.386667,70.7866667 467.24,73.72 C470.093333,76.6533333 473.653333,78.12 477.92,78.12 Z M517.76,74.8 C520.693333,77.0666667 525.973333,77.8 533.6,77 L533.6,77 L533.6,66.12 C530.666667,66.28 528.56,66.1466667 527.28,65.72 C526,65.2933333 525.36,64.28 525.36,62.68 L525.36,62.68 L525.36,48.52 L533.6,48.52 L533.6,37 L525.36,37 L525.36,25.8 L513.36,29.4 L513.36,37 L506.96,37 L506.96,48.52 L513.36,48.52 L513.36,62.68 C513.36,68.4933333 514.826667,72.5333333 517.76,74.8 Z M546.4,33.48 C548.373333,33.48 550.053333,32.7866667 551.44,31.4 C552.88,29.96 553.6,28.2533333 553.6,26.28 C553.6,24.3066667 552.893333,22.6133333 551.48,21.2 C550.066667,19.7866667 548.373333,19.08 546.4,19.08 C544.426667,19.08 542.733333,19.7866667 541.32,21.2 C539.906667,22.6133333 539.2,24.3066667 539.2,26.28 C539.2,28.2533333 539.906667,29.9466667 541.32,31.36 C542.733333,32.7733333 544.426667,33.48 546.4,33.48 Z M552.4,77 L552.4,37 L540.4,37 L540.4,77 L552.4,77 Z M580.4,78.12 C586.32,78.12 591.333333,76.0933333 595.44,72.04 C599.546667,67.9333333 601.6,62.92 601.6,57 C601.6,51.08 599.546667,46.08 595.44,42 C591.333333,37.92 586.32,35.88 580.4,35.88 C574.48,35.88 569.466667,37.92 565.36,42 C561.253333,46.08 559.2,51.08 559.2,57 C559.2,62.92 561.253333,67.92 565.36,72 C569.466667,76.08 574.48,78.12 580.4,78.12 Z M580.4,66.44 C577.786667,66.44 575.6,65.56 573.84,63.8 C572.08,62.04 571.2,59.7733333 571.2,57 C571.2,54.2266667 572.08,51.96 573.84,50.2 C575.6,48.44 577.786667,47.56 580.4,47.56 C583.013333,47.56 585.2,48.44 586.96,50.2 C588.72,51.96 589.6,54.2266667 589.6,57 C589.6,59.7733333 588.72,62.04 586.96,63.8 C585.2,65.56 583.013333,66.44 580.4,66.44 Z M620.4,77 L620.4,55.16 C620.4,52.44 621.066667,50.3866667 622.4,49 C623.733333,47.6133333 625.546667,46.92 627.84,46.92 C629.866667,46.92 631.533333,47.5466667 632.84,48.8 C634.146667,50.0533333 634.8,51.8533333 634.8,54.2 L634.8,54.2 L634.8,77 L646.8,77 L646.8,52.44 C646.8,47.2666667 645.373333,43.2133333 642.52,40.28 C639.666667,37.3466667 636.106667,35.88 631.84,35.88 C626.613333,35.88 622.8,37.5066667 620.4,40.76 L620.4,40.76 L620.4,37 L608.4,37 L608.4,77 L620.4,77 Z M669.44,78.12 C674.133333,78.12 678.08,77.0133333 681.28,74.8 C684.48,72.5866667 686.08,69.32 686.08,65 C686.08,62.2266667 685.4,59.92 684.04,58.08 C682.68,56.24 681.04,54.92 679.12,54.12 C677.2,53.32 675.28,52.6666667 673.36,52.16 C671.44,51.6533333 669.8,51.1466667 668.44,50.64 C667.08,50.1333333 666.4,49.48 666.4,48.68 C666.4,47.1866667 667.52,46.44 669.76,46.44 C672.053333,46.44 673.84,47.6133333 675.12,49.96 L675.12,49.96 L685.36,44.44 C683.706667,41.6666667 681.52,39.5466667 678.8,38.08 C676.08,36.6133333 673.066667,35.88 669.76,35.88 C665.333333,35.88 661.613333,37.0266667 658.6,39.32 C655.586667,41.6133333 654.08,44.84 654.08,49 C654.08,51.56 654.76,53.72 656.12,55.48 C657.48,57.24 659.12,58.5333333 661.04,59.36 C662.96,60.1866667 664.88,60.8533333 666.8,61.36 C668.72,61.8666667 670.36,62.3866667 671.72,62.92 C673.08,63.4533333 673.76,64.12 673.76,64.92 C673.76,66.5733333 672.32,67.4 669.44,67.4 C665.973333,67.4 663.706667,65.8266667 662.64,62.68 L662.64,62.68 L652.24,68.6 C655.28,74.9466667 661.013333,78.12 669.44,78.12 Z" id="TricenSolutions---text-logo" fill="#333257" fill-rule="nonzero"></path>
                </g>
            </g>
        </g>
    </g>
</svg>