<?xml version="1.0" encoding="UTF-8"?><svg id="a" xmlns="http://www.w3.org/2000/svg" xmlns:xlink="http://www.w3.org/1999/xlink" viewBox="0 0 228.82 37.36"><defs><style>.g{fill:url(#e);}.h{fill:url(#d);}.i{fill:url(#f);}.j{fill:url(#c);}.k{fill:url(#b);}.l{fill:#ae3478;}.m{fill:#767e84;}</style><linearGradient id="b" x1="227.24" y1="230.76" x2="194.68" y2="197.87" gradientTransform="translate(-123.95 -123.95) rotate(-11.62) scale(.85 .78) skewX(-21.54)" gradientUnits="userSpaceOnUse"><stop offset=".1" stop-color="#e54425"/><stop offset=".18" stop-color="#e64f24"/><stop offset=".53" stop-color="#ee7f21"/><stop offset=".71" stop-color="#f19220"/></linearGradient><linearGradient id="c" x1="19.51" y1="19.02" x2="30.71" y2="7.89" gradientTransform="matrix(1, 0, 0, 1, 0, 0)" gradientUnits="userSpaceOnUse"><stop offset="0" stop-color="#292562"/><stop offset=".08" stop-color="#422566"/><stop offset=".2" stop-color="#61256b"/><stop offset="1" stop-color="#b8387a"/></linearGradient><linearGradient id="d" x1="11.57" y1="4.41" x2="24.61" y2="4.41" xlink:href="#c"/><linearGradient id="e" x1="2.12" y1="26" x2="34.64" y2="26" gradientTransform="matrix(1, 0, 0, 1, 0, 0)" xlink:href="#b"/><linearGradient id="f" x1="11.58" y1="4.92" x2="14.59" y2="4.92" gradientTransform="matrix(1, 0, 0, 1, 0, 0)" xlink:href="#b"/></defs><g><g><path class="k" d="M21.33,24.65h0c2.03-2.03,2.03-5.33,0-7.36L10.91,6.87c-.98-.98-2.26-1.49-3.55-1.52-1.37-.03-2.76,.47-3.81,1.52h0c-1.17,1.17-1.67,2.77-1.49,4.3,.13,1.12,.63,2.2,1.49,3.06l10.42,10.42c1.11,1.11,2.6,1.61,4.05,1.51,1.21-.09,2.39-.59,3.31-1.51Z"/><path class="j" d="M32.08,6.52h0c-2.03-2.03-5.33-2.03-7.36,0l-7.08,7.08h0l-3.8,3.64h0c1.53,1.63,4.1,1.7,5.72,.17l.95-.92s-.1-.11-.26-.27l1.08,1.08c1.96,1.96,2.02,5.1,.2,7.14l10.56-10.56c2.03-2.03,2.03-5.33,0-7.36Z"/></g><path class="h" d="M13.11,6.44c-.62,0-1.21-.38-1.44-.99-.31-.8,.09-1.69,.89-1.99,1.86-.71,3.82-1.07,5.82-1.07,1.77,0,3.51,.28,5.17,.84,.81,.27,1.24,1.15,.97,1.95-.27,.81-1.14,1.24-1.95,.97-2.87-.96-6.08-.9-8.91,.19-.18,.07-.37,.1-.55,.1Z"/><path class="g" d="M18.38,34.9c-8.96,0-16.26-7.29-16.26-16.26,0-.85,.69-1.54,1.54-1.54s1.54,.69,1.54,1.54c0,7.26,5.91,13.17,13.17,13.17s13.17-5.91,13.17-13.17c0-.85,.69-1.54,1.54-1.54s1.54,.69,1.54,1.54c0,8.96-7.29,16.26-16.26,16.26Z"/><circle class="l" cx="33.08" cy="18.61" r="1.51"/><circle class="i" cx="13.09" cy="4.92" r="1.5"/></g><g><path class="m" d="M66.04,11.53c1.15,1.23,1.73,2.94,1.73,5.13v9.23c0,.47-.15,.87-.45,1.18-.3,.31-.7,.47-1.19,.47s-.87-.16-1.18-.47c-.31-.31-.47-.7-.47-1.18v-9.23c0-1.31-.33-2.31-.99-2.99-.66-.68-1.53-1.02-2.63-1.02s-2.04,.39-2.76,1.16-1.08,1.76-1.08,2.97v9.1c0,.47-.15,.87-.45,1.18-.3,.31-.7,.47-1.19,.47s-.87-.16-1.18-.47c-.31-.31-.47-.7-.47-1.18v-9.23c0-1.31-.33-2.31-.98-2.99-.66-.68-1.53-1.02-2.63-1.02s-2.07,.39-2.79,1.16c-.72,.77-1.08,1.76-1.08,2.97v9.1c0,.47-.15,.87-.45,1.18-.3,.31-.7,.47-1.19,.47s-.87-.16-1.18-.47c-.31-.31-.47-.7-.47-1.18V15.75s.05-5.44,5.38-6.15c2.56-.34,4.51,.31,5.38,.75s1.59,1.07,2.15,1.89c.65-.8,1.45-1.42,2.42-1.87,.97-.45,2.04-.68,3.23-.68,1.87,0,3.38,.61,4.53,1.84Z"/><path class="m" d="M83.15,10.9c1.34,.79,2.41,1.86,3.2,3.23,.78,1.37,1.18,2.89,1.18,4.57v7.2c0,.47-.16,.87-.47,1.18-.31,.31-.71,.47-1.18,.47s-.87-.16-1.18-.47c-.31-.31-.47-.7-.47-1.18v-1.19c-.75,.93-1.67,1.65-2.74,2.16s-2.24,.77-3.49,.77c-1.55,0-2.95-.39-4.21-1.16-1.26-.77-2.25-1.84-2.97-3.21-.72-1.37-1.08-2.89-1.08-4.57s.39-3.2,1.16-4.57c.77-1.37,1.84-2.44,3.21-3.23,1.37-.79,2.88-1.18,4.54-1.18s3.16,.39,4.5,1.18Zm-1.58,13.04c.87-.53,1.55-1.25,2.05-2.16,.49-.91,.74-1.94,.74-3.08s-.25-2.17-.74-3.1c-.5-.93-1.18-1.65-2.05-2.18-.87-.53-1.85-.79-2.92-.79s-2.05,.26-2.92,.79-1.56,1.25-2.07,2.18c-.51,.93-.76,1.96-.76,3.1s.25,2.17,.76,3.08c.51,.91,1.19,1.64,2.07,2.16,.87,.53,1.84,.79,2.92,.79s2.05-.26,2.92-.79Z"/><path class="m" d="M115.68,26.15c0,.47-.19,.87-.58,1.19-.32,.26-.67,.39-1.03,.39-.47,0-.86-.19-1.16-.58l-6.13-7.59-1.61,1.42v4.94c0,.47-.15,.86-.44,1.15-.29,.29-.67,.44-1.15,.44s-.86-.15-1.15-.44c-.29-.29-.44-.67-.44-1.15V3.88c0-.47,.15-.86,.44-1.15,.29-.29,.67-.44,1.15-.44s.85,.15,1.15,.44c.29,.29,.44,.67,.44,1.15v13.14l7.84-7c.28-.28,.61-.42,1-.42,.45,0,.82,.17,1.1,.52,.28,.28,.42,.61,.42,1,0,.45-.17,.82-.52,1.1l-5.94,5.29,6.26,7.68c.24,.26,.36,.58,.36,.97Z"/><path class="m" d="M132.24,19.42c-.28,.27-.63,.4-1.06,.4h-12.27c.24,1.51,.92,2.72,2.05,3.65,1.13,.93,2.51,1.39,4.15,1.39,.65,0,1.32-.12,2.02-.35,.7-.24,1.27-.53,1.73-.87,.3-.24,.66-.35,1.07-.35s.73,.11,.97,.32c.39,.32,.58,.69,.58,1.1,0,.39-.17,.71-.52,.97-.73,.58-1.64,1.05-2.73,1.42-1.09,.37-2.12,.55-3.11,.55-1.76,0-3.35-.38-4.74-1.15-1.4-.76-2.49-1.82-3.28-3.18-.79-1.36-1.18-2.89-1.18-4.62s.37-3.27,1.11-4.63c.74-1.37,1.78-2.43,3.1-3.2,1.32-.76,2.82-1.15,4.5-1.15s3.09,.37,4.29,1.1c1.21,.73,2.13,1.75,2.78,3.07,.65,1.31,.97,2.82,.97,4.52,0,.41-.14,.75-.42,1.02Zm-11.44-5.63c-.98,.86-1.6,2.01-1.86,3.45h10.75c-.19-1.44-.73-2.59-1.61-3.45-.88-.86-2.03-1.29-3.45-1.29-1.57,0-2.85,.43-3.83,1.29Z"/><path class="m" d="M143.42,24.73c.27,.3,.4,.69,.4,1.16s-.18,.86-.53,1.16c-.35,.3-.81,.45-1.37,.45h-.58c-1.05,0-2.02-.27-2.89-.82s-1.55-1.3-2.05-2.24c-.49-.95-.74-2.01-.74-3.2v-7.97h-1.49c-.45,0-.82-.13-1.1-.39-.28-.26-.42-.58-.42-.97,0-.43,.14-.77,.42-1.03,.28-.26,.65-.39,1.1-.39h1.49V5.85c0-.47,.15-.86,.45-1.16,.3-.3,.69-.45,1.16-.45s.86,.15,1.16,.45c.3,.3,.45,.69,.45,1.16v4.65h2.74c.45,0,.82,.13,1.1,.39,.28,.26,.42,.6,.42,1.03,0,.39-.14,.71-.42,.97-.28,.26-.65,.39-1.1,.39h-2.74v7.97c0,.86,.24,1.58,.71,2.16,.47,.58,1.05,.87,1.74,.87h1.1c.39,0,.72,.15,.98,.45Z"/><path class="m" d="M159.34,10.9c1.37,.79,2.44,1.86,3.21,3.23,.77,1.37,1.16,2.89,1.16,4.57s-.36,3.2-1.08,4.57c-.72,1.37-1.71,2.44-2.97,3.21-1.26,.77-2.66,1.16-4.21,1.16-1.25,0-2.41-.26-3.49-.77-1.08-.52-1.99-1.24-2.74-2.16v8.72c0,.49-.15,.89-.45,1.19-.3,.3-.7,.45-1.19,.45s-.87-.15-1.18-.45c-.31-.3-.47-.7-.47-1.19v-14.72c0-1.68,.39-3.2,1.18-4.57,.79-1.37,1.85-2.44,3.2-3.23,1.34-.79,2.85-1.18,4.5-1.18s3.17,.39,4.54,1.18Zm-1.61,13.04c.87-.53,1.56-1.25,2.07-2.16,.51-.91,.76-1.94,.76-3.08s-.25-2.17-.76-3.1-1.19-1.65-2.07-2.18-1.85-.79-2.92-.79-2.05,.26-2.92,.79c-.87,.53-1.55,1.25-2.05,2.18-.5,.93-.74,1.96-.74,3.1s.25,2.17,.74,3.08c.49,.91,1.18,1.64,2.05,2.16,.87,.53,1.84,.79,2.92,.79s2.05-.26,2.92-.79Z"/><path class="m" d="M168.37,26.75c-.74-.51-1.32-1.22-1.73-2.13-.41-.91-.61-1.94-.61-3.08V3.91c0-.47,.15-.86,.45-1.16s.69-.45,1.16-.45,.86,.15,1.16,.45c.3,.3,.45,.69,.45,1.16V21.54c0,.8,.15,1.45,.45,1.97,.3,.52,.69,.77,1.16,.77h.81c.43,0,.78,.15,1.05,.45,.27,.3,.4,.69,.4,1.16s-.21,.86-.61,1.16c-.41,.3-.94,.45-1.58,.45h-.06c-.93,0-1.76-.25-2.5-.76Z"/><path class="m" d="M185.97,10.9c1.34,.79,2.41,1.86,3.2,3.23,.78,1.37,1.18,2.89,1.18,4.57v7.2c0,.47-.16,.87-.47,1.18-.31,.31-.71,.47-1.18,.47s-.87-.16-1.18-.47c-.31-.31-.47-.7-.47-1.18v-1.19c-.75,.93-1.67,1.65-2.74,2.16s-2.24,.77-3.49,.77c-1.55,0-2.95-.39-4.21-1.16-1.26-.77-2.25-1.84-2.97-3.21-.72-1.37-1.08-2.89-1.08-4.57s.39-3.2,1.16-4.57c.77-1.37,1.84-2.44,3.21-3.23,1.37-.79,2.88-1.18,4.54-1.18s3.16,.39,4.5,1.18Zm-1.58,13.04c.87-.53,1.55-1.25,2.05-2.16,.49-.91,.74-1.94,.74-3.08s-.25-2.17-.74-3.1c-.5-.93-1.18-1.65-2.05-2.18-.87-.53-1.85-.79-2.92-.79s-2.05,.26-2.92,.79-1.56,1.25-2.07,2.18c-.51,.93-.76,1.96-.76,3.1s.25,2.17,.76,3.08c.51,.91,1.19,1.64,2.07,2.16,.87,.53,1.84,.79,2.92,.79s2.05-.26,2.92-.79Z"/><path class="m" d="M196.73,26.48c-1.36-.77-2.42-1.84-3.18-3.21-.76-1.37-1.15-2.89-1.15-4.57s.37-3.27,1.11-4.63c.74-1.37,1.78-2.43,3.11-3.2,1.33-.76,2.84-1.15,4.52-1.15,2.54,0,4.65,.97,6.33,2.91,.22,.24,.32,.52,.32,.84,0,.47-.24,.87-.71,1.19-.22,.15-.46,.23-.74,.23-.5,0-.92-.19-1.26-.58-.54-.58-1.12-1.01-1.76-1.28-.63-.27-1.36-.4-2.18-.4-1.66,0-3,.55-4.03,1.66-1.03,1.11-1.55,2.58-1.55,4.41,0,1.16,.24,2.2,.73,3.11,.48,.92,1.16,1.63,2.03,2.15,.87,.52,1.87,.77,2.99,.77,1.46,0,2.65-.38,3.55-1.13,.41-.3,.81-.45,1.19-.45,.3,0,.58,.1,.84,.29,.41,.34,.61,.73,.61,1.16,0,.32-.13,.61-.39,.87-1.55,1.44-3.49,2.16-5.81,2.16-1.7,0-3.23-.39-4.58-1.16Z"/><path class="m" d="M224.91,19.42c-.28,.27-.63,.4-1.06,.4h-12.27c.24,1.51,.92,2.72,2.05,3.65,1.13,.93,2.51,1.39,4.15,1.39,.65,0,1.32-.12,2.02-.35,.7-.24,1.27-.53,1.73-.87,.3-.24,.66-.35,1.07-.35s.73,.11,.97,.32c.39,.32,.58,.69,.58,1.1,0,.39-.17,.71-.52,.97-.73,.58-1.64,1.05-2.73,1.42-1.09,.37-2.12,.55-3.11,.55-1.76,0-3.35-.38-4.74-1.15-1.4-.76-2.49-1.82-3.28-3.18-.79-1.36-1.18-2.89-1.18-4.62s.37-3.27,1.11-4.63c.74-1.37,1.78-2.43,3.1-3.2,1.32-.76,2.82-1.15,4.5-1.15s3.09,.37,4.29,1.1c1.21,.73,2.13,1.75,2.78,3.07,.65,1.31,.97,2.82,.97,4.52,0,.41-.14,.75-.42,1.02Zm-11.44-5.63c-.98,.86-1.6,2.01-1.86,3.45h10.75c-.19-1.44-.73-2.59-1.61-3.45-.88-.86-2.03-1.29-3.45-1.29-1.57,0-2.85,.43-3.83,1.29Z"/><path class="m" d="M90.06,14.61c.21-2.71,2.59-4.79,5.38-4.88,.97-.03,1.95-.02,2.93-.01,1.16,.02,1.91,.65,1.89,1.56-.02,.9-.78,1.49-1.96,1.5-.73,0-1.46,0-2.2,0-1.92,.03-2.94,1-2.95,2.86-.02,3.09,0,6.19,0,9.28,0,.32,.02,.64,0,.95-.08,1.05-.74,1.73-1.66,1.68-1.05-.06-1.52-.72-1.54-1.65-.04-1.78-.03-9.33,.12-11.3Z"/></g></svg>