<svg xmlns="http://www.w3.org/2000/svg" version="1.1" xmlns:xlink="http://www.w3.org/1999/xlink" width="1000" height="1000"><style>
    #light-icon {
      display: inline;
    }
    #dark-icon {
      display: none;
    }

    @media (prefers-color-scheme: dark) {
      #light-icon {
        display: none;
      }
      #dark-icon {
        display: inline;
      }
    }
  </style><g id="light-icon"><svg xmlns="http://www.w3.org/2000/svg" version="1.1" xmlns:xlink="http://www.w3.org/1999/xlink" width="1000" height="1000"><g><g transform="matrix(10.526315789473685,0,0,10.526315789473685,-5.684341886080802e-14,168.4210526315789)"><svg xmlns="http://www.w3.org/2000/svg" version="1.1" xmlns:xlink="http://www.w3.org/1999/xlink" width="95px" height="63px"><svg width="95px" height="63px" viewBox="0 0 95 63" version="1.1" xmlns="http://www.w3.org/2000/svg" xmlns:xlink="http://www.w3.org/1999/xlink">
    <title>logo_pink copy</title>
    <g id="Me-Branding" stroke="none" stroke-width="1" fill="none" fill-rule="evenodd">
        <g id="sign" transform="translate(-1227, -350)" fill="#000000" fill-rule="nonzero">
            <path d="M1253.46548,412.879348 C1253.97881,413.026014 1254.41881,412.732681 1254.78548,411.999348 C1255.00548,411.522681 1255.22548,410.954348 1255.44548,410.294348 C1258.52548,400.431014 1260.32214,394.619348 1260.83548,392.859348 C1261.12881,391.869348 1261.43131,390.833514 1261.74298,389.751848 C1262.05464,388.670181 1262.35714,387.606848 1262.65048,386.561848 C1262.94381,385.516848 1263.22798,384.499348 1263.50298,383.509348 C1263.77798,382.519348 1264.08048,381.446848 1264.41048,380.291848 C1264.74048,379.136848 1265.03381,378.101014 1265.29048,377.184348 C1265.51048,376.377681 1265.71214,375.910181 1265.89548,375.781848 C1266.07881,375.653514 1266.57381,375.644348 1267.38048,375.754348 C1267.82048,375.827681 1268.62714,376.011014 1269.80048,376.304348 C1270.46048,376.451014 1270.86381,376.377681 1271.01048,376.084348 C1271.23048,375.607681 1270.99214,375.222681 1270.29548,374.929348 C1270.07548,374.819348 1269.83714,374.718514 1269.58048,374.626848 C1269.32381,374.535181 1269.04881,374.461848 1268.75548,374.406848 C1268.46214,374.351848 1268.20548,374.306014 1267.98548,374.269348 C1267.76548,374.232681 1267.45381,374.196014 1267.05048,374.159348 C1266.64714,374.122681 1266.35381,374.086014 1266.17048,374.049348 C1266.24381,373.756014 1266.33548,373.407681 1266.44548,373.004348 C1266.55548,372.601014 1266.64714,372.234348 1266.72048,371.904348 C1266.79381,371.574348 1266.86714,371.281014 1266.94048,371.024348 C1267.08714,370.437681 1267.62798,368.476014 1268.56298,365.139348 C1269.49798,361.802681 1270.11214,359.236014 1270.40548,357.439348 C1270.73548,355.569348 1270.79048,354.011014 1270.57048,352.764348 C1270.35048,351.591014 1269.85548,350.784348 1269.08548,350.344348 C1268.31548,349.904348 1267.38048,349.886014 1266.28048,350.289348 C1265.40048,350.619348 1264.39214,351.242681 1263.25548,352.159348 C1261.45881,353.626014 1259.58881,355.642681 1257.64548,358.209348 C1254.56548,362.206014 1251.50381,367.467681 1248.46048,373.994348 C1247.94714,375.094348 1247.14048,375.754348 1246.04048,375.974348 C1244.31714,376.304348 1241.38381,377.111014 1237.24048,378.394348 C1235.55381,378.907681 1232.45548,379.916014 1227.94548,381.419348 C1227.24881,381.676014 1226.93714,382.042681 1227.01048,382.519348 C1227.01048,382.629348 1227.03798,382.730181 1227.09298,382.821848 C1227.14798,382.913514 1227.19381,382.977681 1227.23048,383.014348 C1227.26714,383.051014 1227.34048,383.087681 1227.45048,383.124348 C1227.56048,383.161014 1227.63381,383.179348 1227.67048,383.179348 L1227.67048,383.179348 L1228.22048,383.179348 C1228.58714,383.216014 1229.10048,383.197681 1229.76048,383.124348 C1233.53714,382.904348 1237.49714,384.169348 1241.64048,386.919348 C1242.44714,387.432681 1242.68548,388.111014 1242.35548,388.954348 C1241.91548,390.164348 1241.43881,391.649348 1240.92548,393.409348 C1239.64214,397.846014 1238.83548,401.164348 1238.50548,403.364348 C1238.32214,404.501014 1238.32214,405.399348 1238.50548,406.059348 C1238.61548,406.389348 1238.85381,406.536014 1239.22048,406.499348 C1239.58714,406.462681 1239.77048,406.279348 1239.77048,405.949348 C1239.80714,404.446014 1239.89881,403.327681 1240.04548,402.594348 C1240.74214,399.184348 1241.91548,395.041014 1243.56548,390.164348 C1243.56548,390.127681 1243.58381,390.036014 1243.62048,389.889348 C1243.65714,389.742681 1243.69381,389.632681 1243.73048,389.559348 C1243.76714,389.486014 1243.83131,389.412681 1243.92298,389.339348 C1244.01464,389.266014 1244.11548,389.211014 1244.22548,389.174348 C1244.66548,389.394348 1245.25214,389.962681 1245.98548,390.879348 C1246.79214,391.906014 1247.54381,393.097681 1248.24048,394.454348 C1249.74381,397.387681 1250.95381,400.889348 1251.87048,404.959348 C1252.56714,407.966014 1252.89714,410.166014 1252.86048,411.559348 C1252.86048,412.329348 1253.06214,412.769348 1253.46548,412.879348 Z M1249.50548,375.204348 C1251.77881,370.511014 1253.93298,366.523514 1255.96798,363.241848 C1258.00298,359.960181 1260.37714,356.999348 1263.09048,354.359348 C1264.37381,353.076014 1265.56548,352.214348 1266.66548,351.774348 C1267.32548,351.517681 1267.82964,351.471848 1268.17798,351.636848 C1268.52631,351.801848 1268.79214,352.214348 1268.97548,352.874348 C1269.37881,354.121014 1269.28714,355.899348 1268.70048,358.209348 C1268.37048,359.639348 1267.98548,361.179348 1267.54548,362.829348 C1267.10548,364.479348 1266.61964,366.285181 1266.08798,368.246848 C1265.55631,370.208514 1265.14381,371.757681 1264.85048,372.894348 C1264.63048,373.701014 1264.13548,374.104348 1263.36548,374.104348 C1258.08548,374.104348 1253.46548,374.471014 1249.50548,375.204348 Z M1254.29048,408.204348 C1254.18048,408.131014 1254.08881,408.030181 1254.01548,407.901848 C1253.94214,407.773514 1253.88714,407.645181 1253.85048,407.516848 C1253.81381,407.388514 1253.78631,407.269348 1253.76798,407.159348 C1253.74964,407.049348 1253.73131,406.911848 1253.71298,406.746848 C1253.69464,406.581848 1253.68548,406.462681 1253.68548,406.389348 C1252.76881,401.842681 1251.55881,397.937681 1250.05548,394.674348 C1248.77214,391.924348 1247.30548,389.797681 1245.65548,388.294348 C1244.84881,387.561014 1244.66548,386.717681 1245.10548,385.764348 C1246.09548,383.491014 1247.10381,381.016014 1248.13048,378.339348 C1248.49714,377.312681 1249.17548,376.726014 1250.16548,376.579348 C1255.40881,375.846014 1259.91881,375.516014 1263.69548,375.589348 C1263.76881,376.726014 1262.47631,381.905181 1259.81798,391.126848 C1257.15964,400.348514 1255.31714,406.041014 1254.29048,408.204348 Z M1243.29048,386.149348 C1239.47714,383.619348 1235.97548,382.097681 1232.78548,381.584348 C1237.18548,379.897681 1241.86048,378.449348 1246.81048,377.239348 C1244.53714,383.032681 1243.36381,386.002681 1243.29048,386.149348 Z M1270.98298,398.304348 C1271.55131,398.744348 1272.31214,398.781014 1273.26548,398.414348 C1273.55881,398.267681 1273.88881,398.084348 1274.25548,397.864348 C1276.08881,396.654348 1277.42714,394.958514 1278.27048,392.776848 C1279.11381,390.595181 1279.26048,388.441014 1278.71048,386.314348 C1278.67381,386.204348 1278.61881,386.002681 1278.54548,385.709348 C1280.41548,383.692681 1282.26714,382.171014 1284.10048,381.144348 L1284.10048,381.144348 L1284.32048,380.979348 C1284.43048,380.906014 1284.66881,380.805181 1285.03548,380.676848 C1285.40214,380.548514 1285.80548,380.447681 1286.24548,380.374348 C1286.46548,380.337681 1286.65798,380.301014 1286.82298,380.264348 C1286.98798,380.227681 1287.11631,380.181848 1287.20798,380.126848 C1287.29964,380.071848 1287.37298,380.026014 1287.42798,379.989348 C1287.48298,379.952681 1287.51964,379.897681 1287.53798,379.824348 C1287.55631,379.751014 1287.57464,379.696014 1287.59298,379.659348 C1287.61131,379.622681 1287.62048,379.558514 1287.62048,379.466848 L1287.62048,379.466848 L1287.62048,379.329348 C1287.62048,379.182681 1287.52881,379.063514 1287.34548,378.971848 C1287.16214,378.880181 1286.99714,378.834348 1286.85048,378.834348 C1285.75048,378.907681 1284.70548,379.155181 1283.71548,379.576848 C1282.72548,379.998514 1281.78131,380.566848 1280.88298,381.281848 C1279.98464,381.996848 1279.04048,382.922681 1278.05048,384.059348 C1277.79381,383.436014 1277.55548,383.032681 1277.33548,382.849348 C1276.38214,380.832681 1275.86881,379.751014 1275.79548,379.604348 C1275.68548,379.384348 1275.61214,379.146014 1275.57548,378.889348 L1275.57548,378.889348 L1275.57548,378.779348 C1275.24548,377.862681 1275.13548,376.341014 1275.24548,374.214348 L1275.24548,374.214348 L1275.30048,374.159348 C1275.41048,372.802681 1275.88714,371.436848 1276.73048,370.061848 C1277.57381,368.686848 1278.50881,367.779348 1279.53548,367.339348 C1279.35214,369.319348 1278.39881,371.574348 1276.67548,374.104348 C1276.38214,374.544348 1276.40048,374.929348 1276.73048,375.259348 C1276.80381,375.406014 1276.93214,375.451848 1277.11548,375.396848 C1277.29881,375.341848 1277.42714,375.296014 1277.50048,375.259348 C1277.57381,375.222681 1277.64714,375.204348 1277.72048,375.204348 C1278.41714,374.141014 1279.04048,373.132681 1279.59048,372.179348 C1280.39714,370.712681 1280.89214,369.264348 1281.07548,367.834348 C1281.18548,366.881014 1280.94714,366.221014 1280.36048,365.854348 C1279.77381,365.487681 1279.07714,365.561014 1278.27048,366.074348 C1277.42714,366.624348 1276.63881,367.412681 1275.90548,368.439348 C1274.14548,370.932681 1273.41214,373.719348 1273.70548,376.799348 L1273.70548,376.799348 L1273.70548,377.129348 C1273.77881,378.339348 1273.98048,379.329348 1274.31048,380.099348 C1275.19048,381.932681 1275.68548,382.922681 1275.79548,383.069348 C1276.45548,384.169348 1276.41881,385.269348 1275.68548,386.369348 C1274.76881,387.689348 1273.94381,388.991014 1273.21048,390.274348 C1273.17381,390.311014 1273.13714,390.366014 1273.10048,390.439348 C1273.06381,390.512681 1273.01798,390.576848 1272.96298,390.631848 L1272.96298,390.631848 L1272.82548,390.769348 L1272.88048,390.879348 C1272.29381,391.906014 1271.79881,392.822681 1271.39548,393.629348 C1270.88214,394.656014 1270.55214,395.499348 1270.40548,396.159348 C1270.22214,397.149348 1270.41464,397.864348 1270.98298,398.304348 Z M1272.60548,397.039348 C1272.38548,397.149348 1272.21131,397.158514 1272.08298,397.066848 C1271.95464,396.975181 1271.90881,396.801014 1271.94548,396.544348 C1271.94548,396.287681 1272.00048,396.031014 1272.11048,395.774348 C1272.80714,393.977681 1274.14548,391.594348 1276.12548,388.624348 C1276.41881,388.221014 1276.76714,387.781014 1277.17048,387.304348 C1277.53714,388.111014 1277.61048,389.101014 1277.39048,390.274348 C1276.95048,392.694348 1275.81381,394.674348 1273.98048,396.214348 C1273.65048,396.434348 1273.19214,396.709348 1272.60548,397.039348 Z M1291.44298,374.461848 C1291.79131,374.553514 1292.05714,374.379348 1292.24048,373.939348 C1292.31381,373.756014 1292.49714,373.316014 1292.79048,372.619348 C1293.08381,371.922681 1293.30381,371.391014 1293.45048,371.024348 C1293.63381,370.584348 1293.54214,370.272681 1293.17548,370.089348 C1292.80881,369.906014 1292.49714,370.016014 1292.24048,370.419348 C1291.76381,371.116014 1291.34214,372.106014 1290.97548,373.389348 C1290.93881,374.012681 1291.09464,374.370181 1291.44298,374.461848 Z M1290.42548,387.304348 C1290.97548,387.377681 1291.59881,387.249348 1292.29548,386.919348 C1293.02881,386.589348 1293.81714,386.057681 1294.66048,385.324348 C1296.38381,383.821014 1298.32714,381.676014 1300.49048,378.889348 C1300.78381,378.559348 1300.93048,378.284348 1300.93048,378.064348 C1300.96714,377.661014 1300.83881,377.386014 1300.54548,377.239348 C1300.28881,377.092681 1300.05048,377.147681 1299.83048,377.404348 C1299.57381,377.661014 1299.29881,377.972681 1299.00548,378.339348 C1297.13548,380.796014 1295.39381,382.702681 1293.78048,384.059348 C1293.01048,384.756014 1292.31381,385.232681 1291.69048,385.489348 C1291.10381,385.782681 1290.68214,385.846848 1290.42548,385.681848 C1290.16881,385.516848 1290.01298,385.104348 1289.95798,384.444348 C1289.90298,383.784348 1289.96714,382.996014 1290.15048,382.079348 C1290.40714,380.722681 1290.82881,379.201014 1291.41548,377.514348 C1291.63548,376.891014 1291.51631,376.487681 1291.05798,376.304348 C1290.59964,376.121014 1290.24214,376.341014 1289.98548,376.964348 C1289.03214,379.677681 1288.51881,381.987681 1288.44548,383.894348 L1288.44548,383.894348 L1288.44548,384.719348 C1288.51881,385.489348 1288.72964,386.094348 1289.07798,386.534348 C1289.42631,386.974348 1289.87548,387.231014 1290.42548,387.304348 Z M1294.88048,409.854348 C1294.99048,410.184348 1295.21048,410.312681 1295.54048,410.239348 C1295.79714,410.166014 1295.94381,410.001014 1295.98048,409.744348 C1296.01714,409.414348 1296.01714,409.047681 1295.98048,408.644348 C1295.87048,406.847681 1296.01714,404.317681 1296.42048,401.054348 C1297.85048,390.017681 1300.50881,377.917681 1304.39548,364.754348 C1304.72548,363.544348 1305.10131,362.820181 1305.52298,362.581848 C1305.94464,362.343514 1306.87048,362.261014 1308.30048,362.334348 C1307.89714,363.507681 1307.67714,364.131014 1307.64048,364.204348 C1303.57048,375.571014 1300.69214,386.167681 1299.00548,395.994348 C1299.00548,396.104348 1298.97798,396.269348 1298.92298,396.489348 C1298.86798,396.709348 1298.83131,396.883514 1298.81298,397.011848 C1298.79464,397.140181 1298.79464,397.286848 1298.81298,397.451848 C1298.83131,397.616848 1298.89548,397.754348 1299.00548,397.864348 C1299.11548,397.974348 1299.26214,398.047681 1299.44548,398.084348 C1299.73881,398.121014 1299.94048,398.075181 1300.05048,397.946848 C1300.16048,397.818514 1300.25214,397.534348 1300.32548,397.094348 C1300.39881,396.654348 1300.43548,396.416014 1300.43548,396.379348 C1302.12214,390.072681 1304.85381,383.931014 1308.63048,377.954348 C1308.77714,377.734348 1308.86881,377.596848 1308.90548,377.541848 C1308.94214,377.486848 1309.03381,377.367681 1309.18048,377.184348 C1309.32714,377.001014 1309.44631,376.863514 1309.53798,376.771848 C1309.62964,376.680181 1309.76714,376.579348 1309.95048,376.469348 C1310.13381,376.359348 1310.33548,376.267681 1310.55548,376.194348 C1309.67548,379.934348 1309.18048,382.024348 1309.07048,382.464348 C1308.74048,383.821014 1308.66714,385.141014 1308.85048,386.424348 C1308.96048,387.157681 1309.27214,387.625181 1309.78548,387.826848 C1310.29881,388.028514 1310.84881,387.891014 1311.43548,387.414348 C1311.83881,387.157681 1312.20548,386.791014 1312.53548,386.314348 C1313.45214,385.067681 1314.57048,382.886014 1315.89048,379.769348 C1316.14714,379.182681 1316.09214,378.797681 1315.72548,378.614348 C1315.24881,378.467681 1314.88214,378.651014 1314.62548,379.164348 C1313.45214,381.657681 1312.81048,383.014348 1312.70048,383.234348 C1312.70048,383.271014 1312.61798,383.445181 1312.45298,383.756848 C1312.28798,384.068514 1312.17798,384.261014 1312.12298,384.334348 C1312.06798,384.407681 1311.96714,384.572681 1311.82048,384.829348 C1311.67381,385.086014 1311.53631,385.278514 1311.40798,385.406848 L1311.40798,385.406848 L1310.94048,385.874348 C1310.75714,386.057681 1310.55548,386.222681 1310.33548,386.369348 C1310.11548,385.416014 1310.11548,384.426014 1310.33548,383.399348 C1310.44548,382.959348 1310.65631,382.088514 1310.96798,380.786848 C1311.27964,379.485181 1311.50881,378.486014 1311.65548,377.789348 C1312.13214,375.736014 1311.91214,374.599348 1310.99548,374.379348 C1310.84881,374.306014 1310.67464,374.296848 1310.47298,374.351848 C1310.27131,374.406848 1310.12464,374.434348 1310.03298,374.434348 C1309.94131,374.434348 1309.81298,374.489348 1309.64798,374.599348 C1309.48298,374.709348 1309.36381,374.791848 1309.29048,374.846848 C1309.21714,374.901848 1309.11631,375.002681 1308.98798,375.149348 C1308.85964,375.296014 1308.76798,375.406014 1308.71298,375.479348 C1308.65798,375.552681 1308.56631,375.671848 1308.43798,375.836848 C1308.30964,376.001848 1308.20881,376.121014 1308.13548,376.194348 C1306.92548,377.771014 1305.62381,379.934348 1304.23048,382.684348 C1304.19381,382.757681 1304.12964,382.913514 1304.03798,383.151848 C1303.98298,383.294848 1303.93458,383.418048 1303.89278,383.521448 L1303.81798,383.701848 C1303.76298,383.830181 1303.65298,383.986014 1303.48798,384.169348 C1303.32298,384.352681 1303.13048,384.499348 1302.91048,384.609348 C1303.53381,382.226014 1303.84548,381.034348 1303.84548,381.034348 C1305.75214,374.177681 1307.64048,368.219348 1309.51048,363.159348 C1309.65714,362.829348 1309.81298,362.554348 1309.97798,362.334348 C1310.14298,362.114348 1310.35381,361.931014 1310.61048,361.784348 C1310.86714,361.637681 1311.17881,361.546014 1311.54548,361.509348 C1312.02214,361.472681 1314.00214,361.216014 1317.48548,360.739348 C1319.46548,360.482681 1320.63881,360.317681 1321.00548,360.244348 C1321.62881,360.097681 1321.88548,359.767681 1321.77548,359.254348 C1321.70214,358.997681 1321.56464,358.851014 1321.36298,358.814348 C1321.16131,358.777681 1320.93214,358.796014 1320.67548,358.869348 C1318.21881,359.236014 1315.87214,359.547681 1313.63548,359.804348 C1313.56214,359.804348 1313.36048,359.831848 1313.03048,359.886848 C1312.70048,359.941848 1312.46214,359.969348 1312.31548,359.969348 C1312.16881,359.969348 1311.96714,359.960181 1311.71048,359.941848 C1311.45381,359.923514 1311.21548,359.859348 1310.99548,359.749348 C1311.28881,358.796014 1311.45381,358.282681 1311.49048,358.209348 C1311.67381,357.659348 1311.95798,356.889348 1312.34298,355.899348 C1312.72798,354.909348 1312.99381,354.212681 1313.14048,353.809348 C1313.32381,353.332681 1313.25048,353.021014 1312.92048,352.874348 C1312.51714,352.691014 1312.20548,352.819348 1311.98548,353.259348 C1311.87548,353.479348 1311.71048,353.882681 1311.49048,354.469348 C1311.38048,354.689348 1311.14214,355.276014 1310.77548,356.229348 C1310.40881,357.182681 1310.13381,357.916014 1309.95048,358.429348 C1309.47381,359.602681 1309.02464,360.299348 1308.60298,360.519348 C1308.18131,360.739348 1307.25548,360.776014 1305.82548,360.629348 C1306.08214,359.566014 1306.59548,358.172681 1307.36548,356.449348 C1307.51214,356.156014 1307.73214,355.688514 1308.02548,355.046848 C1308.31881,354.405181 1308.53881,353.937681 1308.68548,353.644348 C1308.90548,353.131014 1308.77714,352.764348 1308.30048,352.544348 C1307.97048,352.361014 1307.67714,352.489348 1307.42048,352.929348 C1307.05381,353.479348 1306.79714,353.937681 1306.65048,354.304348 C1305.51381,357.127681 1304.76214,359.071014 1304.39548,360.134348 C1304.10214,361.014348 1303.47881,361.546014 1302.52548,361.729348 C1299.66548,362.279348 1296.21881,363.159348 1292.18548,364.369348 C1291.59881,364.552681 1290.82881,364.846014 1289.87548,365.249348 C1289.32548,365.469348 1289.11464,365.808514 1289.24298,366.266848 C1289.37131,366.725181 1289.72881,366.954348 1290.31548,366.954348 C1291.59881,366.881014 1292.47881,366.826014 1292.95548,366.789348 C1294.97214,366.496014 1297.09881,366.697681 1299.33548,367.394348 C1300.21548,367.687681 1300.77464,368.026848 1301.01298,368.411848 C1301.25131,368.796848 1301.31548,369.447681 1301.20548,370.364348 C1301.16881,370.547681 1301.07714,370.914348 1300.93048,371.464348 C1298.91381,379.274348 1297.28214,386.827681 1296.03548,394.124348 C1295.19214,399.147681 1294.69714,403.419348 1294.55048,406.939348 C1294.51381,408.186014 1294.62381,409.157681 1294.88048,409.854348 Z M1302.03048,367.174348 C1301.70048,366.954348 1301.33381,366.761848 1300.93048,366.596848 C1300.52714,366.431848 1300.19714,366.294348 1299.94048,366.184348 C1299.68381,366.074348 1299.29881,365.955181 1298.78548,365.826848 C1298.27214,365.698514 1297.92381,365.616014 1297.74048,365.579348 C1297.55714,365.542681 1297.15381,365.460181 1296.53048,365.331848 C1295.90714,365.203514 1295.54048,365.139348 1295.43048,365.139348 C1297.26381,364.406014 1299.88548,363.691014 1303.29548,362.994348 C1303.00214,364.571014 1302.58048,365.964348 1302.03048,367.174348 Z" id="logo_pink-copy"></path>
        </g>
    </g>
</svg></svg></g></g></svg></g><g id="dark-icon"><svg xmlns="http://www.w3.org/2000/svg" version="1.1" xmlns:xlink="http://www.w3.org/1999/xlink" width="1000" height="1000"><g><g transform="matrix(10.526315789473685,0,0,10.526315789473685,-5.684341886080802e-14,168.4210526315789)"><svg xmlns="http://www.w3.org/2000/svg" version="1.1" xmlns:xlink="http://www.w3.org/1999/xlink" width="95px" height="63px"><svg width="95px" height="63px" viewBox="0 0 95 63" version="1.1" xmlns="http://www.w3.org/2000/svg" xmlns:xlink="http://www.w3.org/1999/xlink">
    <title>logo_pink copy</title>
    <g id="Me-Branding" stroke="none" stroke-width="1" fill="none" fill-rule="evenodd">
        <g id="sign" transform="translate(-1227, -350)" fill="#FFFFFF" fill-rule="nonzero">
            <path d="M1253.46548,412.879348 C1253.97881,413.026014 1254.41881,412.732681 1254.78548,411.999348 C1255.00548,411.522681 1255.22548,410.954348 1255.44548,410.294348 C1258.52548,400.431014 1260.32214,394.619348 1260.83548,392.859348 C1261.12881,391.869348 1261.43131,390.833514 1261.74298,389.751848 C1262.05464,388.670181 1262.35714,387.606848 1262.65048,386.561848 C1262.94381,385.516848 1263.22798,384.499348 1263.50298,383.509348 C1263.77798,382.519348 1264.08048,381.446848 1264.41048,380.291848 C1264.74048,379.136848 1265.03381,378.101014 1265.29048,377.184348 C1265.51048,376.377681 1265.71214,375.910181 1265.89548,375.781848 C1266.07881,375.653514 1266.57381,375.644348 1267.38048,375.754348 C1267.82048,375.827681 1268.62714,376.011014 1269.80048,376.304348 C1270.46048,376.451014 1270.86381,376.377681 1271.01048,376.084348 C1271.23048,375.607681 1270.99214,375.222681 1270.29548,374.929348 C1270.07548,374.819348 1269.83714,374.718514 1269.58048,374.626848 C1269.32381,374.535181 1269.04881,374.461848 1268.75548,374.406848 C1268.46214,374.351848 1268.20548,374.306014 1267.98548,374.269348 C1267.76548,374.232681 1267.45381,374.196014 1267.05048,374.159348 C1266.64714,374.122681 1266.35381,374.086014 1266.17048,374.049348 C1266.24381,373.756014 1266.33548,373.407681 1266.44548,373.004348 C1266.55548,372.601014 1266.64714,372.234348 1266.72048,371.904348 C1266.79381,371.574348 1266.86714,371.281014 1266.94048,371.024348 C1267.08714,370.437681 1267.62798,368.476014 1268.56298,365.139348 C1269.49798,361.802681 1270.11214,359.236014 1270.40548,357.439348 C1270.73548,355.569348 1270.79048,354.011014 1270.57048,352.764348 C1270.35048,351.591014 1269.85548,350.784348 1269.08548,350.344348 C1268.31548,349.904348 1267.38048,349.886014 1266.28048,350.289348 C1265.40048,350.619348 1264.39214,351.242681 1263.25548,352.159348 C1261.45881,353.626014 1259.58881,355.642681 1257.64548,358.209348 C1254.56548,362.206014 1251.50381,367.467681 1248.46048,373.994348 C1247.94714,375.094348 1247.14048,375.754348 1246.04048,375.974348 C1244.31714,376.304348 1241.38381,377.111014 1237.24048,378.394348 C1235.55381,378.907681 1232.45548,379.916014 1227.94548,381.419348 C1227.24881,381.676014 1226.93714,382.042681 1227.01048,382.519348 C1227.01048,382.629348 1227.03798,382.730181 1227.09298,382.821848 C1227.14798,382.913514 1227.19381,382.977681 1227.23048,383.014348 C1227.26714,383.051014 1227.34048,383.087681 1227.45048,383.124348 C1227.56048,383.161014 1227.63381,383.179348 1227.67048,383.179348 L1227.67048,383.179348 L1228.22048,383.179348 C1228.58714,383.216014 1229.10048,383.197681 1229.76048,383.124348 C1233.53714,382.904348 1237.49714,384.169348 1241.64048,386.919348 C1242.44714,387.432681 1242.68548,388.111014 1242.35548,388.954348 C1241.91548,390.164348 1241.43881,391.649348 1240.92548,393.409348 C1239.64214,397.846014 1238.83548,401.164348 1238.50548,403.364348 C1238.32214,404.501014 1238.32214,405.399348 1238.50548,406.059348 C1238.61548,406.389348 1238.85381,406.536014 1239.22048,406.499348 C1239.58714,406.462681 1239.77048,406.279348 1239.77048,405.949348 C1239.80714,404.446014 1239.89881,403.327681 1240.04548,402.594348 C1240.74214,399.184348 1241.91548,395.041014 1243.56548,390.164348 C1243.56548,390.127681 1243.58381,390.036014 1243.62048,389.889348 C1243.65714,389.742681 1243.69381,389.632681 1243.73048,389.559348 C1243.76714,389.486014 1243.83131,389.412681 1243.92298,389.339348 C1244.01464,389.266014 1244.11548,389.211014 1244.22548,389.174348 C1244.66548,389.394348 1245.25214,389.962681 1245.98548,390.879348 C1246.79214,391.906014 1247.54381,393.097681 1248.24048,394.454348 C1249.74381,397.387681 1250.95381,400.889348 1251.87048,404.959348 C1252.56714,407.966014 1252.89714,410.166014 1252.86048,411.559348 C1252.86048,412.329348 1253.06214,412.769348 1253.46548,412.879348 Z M1249.50548,375.204348 C1251.77881,370.511014 1253.93298,366.523514 1255.96798,363.241848 C1258.00298,359.960181 1260.37714,356.999348 1263.09048,354.359348 C1264.37381,353.076014 1265.56548,352.214348 1266.66548,351.774348 C1267.32548,351.517681 1267.82964,351.471848 1268.17798,351.636848 C1268.52631,351.801848 1268.79214,352.214348 1268.97548,352.874348 C1269.37881,354.121014 1269.28714,355.899348 1268.70048,358.209348 C1268.37048,359.639348 1267.98548,361.179348 1267.54548,362.829348 C1267.10548,364.479348 1266.61964,366.285181 1266.08798,368.246848 C1265.55631,370.208514 1265.14381,371.757681 1264.85048,372.894348 C1264.63048,373.701014 1264.13548,374.104348 1263.36548,374.104348 C1258.08548,374.104348 1253.46548,374.471014 1249.50548,375.204348 Z M1254.29048,408.204348 C1254.18048,408.131014 1254.08881,408.030181 1254.01548,407.901848 C1253.94214,407.773514 1253.88714,407.645181 1253.85048,407.516848 C1253.81381,407.388514 1253.78631,407.269348 1253.76798,407.159348 C1253.74964,407.049348 1253.73131,406.911848 1253.71298,406.746848 C1253.69464,406.581848 1253.68548,406.462681 1253.68548,406.389348 C1252.76881,401.842681 1251.55881,397.937681 1250.05548,394.674348 C1248.77214,391.924348 1247.30548,389.797681 1245.65548,388.294348 C1244.84881,387.561014 1244.66548,386.717681 1245.10548,385.764348 C1246.09548,383.491014 1247.10381,381.016014 1248.13048,378.339348 C1248.49714,377.312681 1249.17548,376.726014 1250.16548,376.579348 C1255.40881,375.846014 1259.91881,375.516014 1263.69548,375.589348 C1263.76881,376.726014 1262.47631,381.905181 1259.81798,391.126848 C1257.15964,400.348514 1255.31714,406.041014 1254.29048,408.204348 Z M1243.29048,386.149348 C1239.47714,383.619348 1235.97548,382.097681 1232.78548,381.584348 C1237.18548,379.897681 1241.86048,378.449348 1246.81048,377.239348 C1244.53714,383.032681 1243.36381,386.002681 1243.29048,386.149348 Z M1270.98298,398.304348 C1271.55131,398.744348 1272.31214,398.781014 1273.26548,398.414348 C1273.55881,398.267681 1273.88881,398.084348 1274.25548,397.864348 C1276.08881,396.654348 1277.42714,394.958514 1278.27048,392.776848 C1279.11381,390.595181 1279.26048,388.441014 1278.71048,386.314348 C1278.67381,386.204348 1278.61881,386.002681 1278.54548,385.709348 C1280.41548,383.692681 1282.26714,382.171014 1284.10048,381.144348 L1284.10048,381.144348 L1284.32048,380.979348 C1284.43048,380.906014 1284.66881,380.805181 1285.03548,380.676848 C1285.40214,380.548514 1285.80548,380.447681 1286.24548,380.374348 C1286.46548,380.337681 1286.65798,380.301014 1286.82298,380.264348 C1286.98798,380.227681 1287.11631,380.181848 1287.20798,380.126848 C1287.29964,380.071848 1287.37298,380.026014 1287.42798,379.989348 C1287.48298,379.952681 1287.51964,379.897681 1287.53798,379.824348 C1287.55631,379.751014 1287.57464,379.696014 1287.59298,379.659348 C1287.61131,379.622681 1287.62048,379.558514 1287.62048,379.466848 L1287.62048,379.466848 L1287.62048,379.329348 C1287.62048,379.182681 1287.52881,379.063514 1287.34548,378.971848 C1287.16214,378.880181 1286.99714,378.834348 1286.85048,378.834348 C1285.75048,378.907681 1284.70548,379.155181 1283.71548,379.576848 C1282.72548,379.998514 1281.78131,380.566848 1280.88298,381.281848 C1279.98464,381.996848 1279.04048,382.922681 1278.05048,384.059348 C1277.79381,383.436014 1277.55548,383.032681 1277.33548,382.849348 C1276.38214,380.832681 1275.86881,379.751014 1275.79548,379.604348 C1275.68548,379.384348 1275.61214,379.146014 1275.57548,378.889348 L1275.57548,378.889348 L1275.57548,378.779348 C1275.24548,377.862681 1275.13548,376.341014 1275.24548,374.214348 L1275.24548,374.214348 L1275.30048,374.159348 C1275.41048,372.802681 1275.88714,371.436848 1276.73048,370.061848 C1277.57381,368.686848 1278.50881,367.779348 1279.53548,367.339348 C1279.35214,369.319348 1278.39881,371.574348 1276.67548,374.104348 C1276.38214,374.544348 1276.40048,374.929348 1276.73048,375.259348 C1276.80381,375.406014 1276.93214,375.451848 1277.11548,375.396848 C1277.29881,375.341848 1277.42714,375.296014 1277.50048,375.259348 C1277.57381,375.222681 1277.64714,375.204348 1277.72048,375.204348 C1278.41714,374.141014 1279.04048,373.132681 1279.59048,372.179348 C1280.39714,370.712681 1280.89214,369.264348 1281.07548,367.834348 C1281.18548,366.881014 1280.94714,366.221014 1280.36048,365.854348 C1279.77381,365.487681 1279.07714,365.561014 1278.27048,366.074348 C1277.42714,366.624348 1276.63881,367.412681 1275.90548,368.439348 C1274.14548,370.932681 1273.41214,373.719348 1273.70548,376.799348 L1273.70548,376.799348 L1273.70548,377.129348 C1273.77881,378.339348 1273.98048,379.329348 1274.31048,380.099348 C1275.19048,381.932681 1275.68548,382.922681 1275.79548,383.069348 C1276.45548,384.169348 1276.41881,385.269348 1275.68548,386.369348 C1274.76881,387.689348 1273.94381,388.991014 1273.21048,390.274348 C1273.17381,390.311014 1273.13714,390.366014 1273.10048,390.439348 C1273.06381,390.512681 1273.01798,390.576848 1272.96298,390.631848 L1272.96298,390.631848 L1272.82548,390.769348 L1272.88048,390.879348 C1272.29381,391.906014 1271.79881,392.822681 1271.39548,393.629348 C1270.88214,394.656014 1270.55214,395.499348 1270.40548,396.159348 C1270.22214,397.149348 1270.41464,397.864348 1270.98298,398.304348 Z M1272.60548,397.039348 C1272.38548,397.149348 1272.21131,397.158514 1272.08298,397.066848 C1271.95464,396.975181 1271.90881,396.801014 1271.94548,396.544348 C1271.94548,396.287681 1272.00048,396.031014 1272.11048,395.774348 C1272.80714,393.977681 1274.14548,391.594348 1276.12548,388.624348 C1276.41881,388.221014 1276.76714,387.781014 1277.17048,387.304348 C1277.53714,388.111014 1277.61048,389.101014 1277.39048,390.274348 C1276.95048,392.694348 1275.81381,394.674348 1273.98048,396.214348 C1273.65048,396.434348 1273.19214,396.709348 1272.60548,397.039348 Z M1291.44298,374.461848 C1291.79131,374.553514 1292.05714,374.379348 1292.24048,373.939348 C1292.31381,373.756014 1292.49714,373.316014 1292.79048,372.619348 C1293.08381,371.922681 1293.30381,371.391014 1293.45048,371.024348 C1293.63381,370.584348 1293.54214,370.272681 1293.17548,370.089348 C1292.80881,369.906014 1292.49714,370.016014 1292.24048,370.419348 C1291.76381,371.116014 1291.34214,372.106014 1290.97548,373.389348 C1290.93881,374.012681 1291.09464,374.370181 1291.44298,374.461848 Z M1290.42548,387.304348 C1290.97548,387.377681 1291.59881,387.249348 1292.29548,386.919348 C1293.02881,386.589348 1293.81714,386.057681 1294.66048,385.324348 C1296.38381,383.821014 1298.32714,381.676014 1300.49048,378.889348 C1300.78381,378.559348 1300.93048,378.284348 1300.93048,378.064348 C1300.96714,377.661014 1300.83881,377.386014 1300.54548,377.239348 C1300.28881,377.092681 1300.05048,377.147681 1299.83048,377.404348 C1299.57381,377.661014 1299.29881,377.972681 1299.00548,378.339348 C1297.13548,380.796014 1295.39381,382.702681 1293.78048,384.059348 C1293.01048,384.756014 1292.31381,385.232681 1291.69048,385.489348 C1291.10381,385.782681 1290.68214,385.846848 1290.42548,385.681848 C1290.16881,385.516848 1290.01298,385.104348 1289.95798,384.444348 C1289.90298,383.784348 1289.96714,382.996014 1290.15048,382.079348 C1290.40714,380.722681 1290.82881,379.201014 1291.41548,377.514348 C1291.63548,376.891014 1291.51631,376.487681 1291.05798,376.304348 C1290.59964,376.121014 1290.24214,376.341014 1289.98548,376.964348 C1289.03214,379.677681 1288.51881,381.987681 1288.44548,383.894348 L1288.44548,383.894348 L1288.44548,384.719348 C1288.51881,385.489348 1288.72964,386.094348 1289.07798,386.534348 C1289.42631,386.974348 1289.87548,387.231014 1290.42548,387.304348 Z M1294.88048,409.854348 C1294.99048,410.184348 1295.21048,410.312681 1295.54048,410.239348 C1295.79714,410.166014 1295.94381,410.001014 1295.98048,409.744348 C1296.01714,409.414348 1296.01714,409.047681 1295.98048,408.644348 C1295.87048,406.847681 1296.01714,404.317681 1296.42048,401.054348 C1297.85048,390.017681 1300.50881,377.917681 1304.39548,364.754348 C1304.72548,363.544348 1305.10131,362.820181 1305.52298,362.581848 C1305.94464,362.343514 1306.87048,362.261014 1308.30048,362.334348 C1307.89714,363.507681 1307.67714,364.131014 1307.64048,364.204348 C1303.57048,375.571014 1300.69214,386.167681 1299.00548,395.994348 C1299.00548,396.104348 1298.97798,396.269348 1298.92298,396.489348 C1298.86798,396.709348 1298.83131,396.883514 1298.81298,397.011848 C1298.79464,397.140181 1298.79464,397.286848 1298.81298,397.451848 C1298.83131,397.616848 1298.89548,397.754348 1299.00548,397.864348 C1299.11548,397.974348 1299.26214,398.047681 1299.44548,398.084348 C1299.73881,398.121014 1299.94048,398.075181 1300.05048,397.946848 C1300.16048,397.818514 1300.25214,397.534348 1300.32548,397.094348 C1300.39881,396.654348 1300.43548,396.416014 1300.43548,396.379348 C1302.12214,390.072681 1304.85381,383.931014 1308.63048,377.954348 C1308.77714,377.734348 1308.86881,377.596848 1308.90548,377.541848 C1308.94214,377.486848 1309.03381,377.367681 1309.18048,377.184348 C1309.32714,377.001014 1309.44631,376.863514 1309.53798,376.771848 C1309.62964,376.680181 1309.76714,376.579348 1309.95048,376.469348 C1310.13381,376.359348 1310.33548,376.267681 1310.55548,376.194348 C1309.67548,379.934348 1309.18048,382.024348 1309.07048,382.464348 C1308.74048,383.821014 1308.66714,385.141014 1308.85048,386.424348 C1308.96048,387.157681 1309.27214,387.625181 1309.78548,387.826848 C1310.29881,388.028514 1310.84881,387.891014 1311.43548,387.414348 C1311.83881,387.157681 1312.20548,386.791014 1312.53548,386.314348 C1313.45214,385.067681 1314.57048,382.886014 1315.89048,379.769348 C1316.14714,379.182681 1316.09214,378.797681 1315.72548,378.614348 C1315.24881,378.467681 1314.88214,378.651014 1314.62548,379.164348 C1313.45214,381.657681 1312.81048,383.014348 1312.70048,383.234348 C1312.70048,383.271014 1312.61798,383.445181 1312.45298,383.756848 C1312.28798,384.068514 1312.17798,384.261014 1312.12298,384.334348 C1312.06798,384.407681 1311.96714,384.572681 1311.82048,384.829348 C1311.67381,385.086014 1311.53631,385.278514 1311.40798,385.406848 L1311.40798,385.406848 L1310.94048,385.874348 C1310.75714,386.057681 1310.55548,386.222681 1310.33548,386.369348 C1310.11548,385.416014 1310.11548,384.426014 1310.33548,383.399348 C1310.44548,382.959348 1310.65631,382.088514 1310.96798,380.786848 C1311.27964,379.485181 1311.50881,378.486014 1311.65548,377.789348 C1312.13214,375.736014 1311.91214,374.599348 1310.99548,374.379348 C1310.84881,374.306014 1310.67464,374.296848 1310.47298,374.351848 C1310.27131,374.406848 1310.12464,374.434348 1310.03298,374.434348 C1309.94131,374.434348 1309.81298,374.489348 1309.64798,374.599348 C1309.48298,374.709348 1309.36381,374.791848 1309.29048,374.846848 C1309.21714,374.901848 1309.11631,375.002681 1308.98798,375.149348 C1308.85964,375.296014 1308.76798,375.406014 1308.71298,375.479348 C1308.65798,375.552681 1308.56631,375.671848 1308.43798,375.836848 C1308.30964,376.001848 1308.20881,376.121014 1308.13548,376.194348 C1306.92548,377.771014 1305.62381,379.934348 1304.23048,382.684348 C1304.19381,382.757681 1304.12964,382.913514 1304.03798,383.151848 C1303.98298,383.294848 1303.93458,383.418048 1303.89278,383.521448 L1303.81798,383.701848 C1303.76298,383.830181 1303.65298,383.986014 1303.48798,384.169348 C1303.32298,384.352681 1303.13048,384.499348 1302.91048,384.609348 C1303.53381,382.226014 1303.84548,381.034348 1303.84548,381.034348 C1305.75214,374.177681 1307.64048,368.219348 1309.51048,363.159348 C1309.65714,362.829348 1309.81298,362.554348 1309.97798,362.334348 C1310.14298,362.114348 1310.35381,361.931014 1310.61048,361.784348 C1310.86714,361.637681 1311.17881,361.546014 1311.54548,361.509348 C1312.02214,361.472681 1314.00214,361.216014 1317.48548,360.739348 C1319.46548,360.482681 1320.63881,360.317681 1321.00548,360.244348 C1321.62881,360.097681 1321.88548,359.767681 1321.77548,359.254348 C1321.70214,358.997681 1321.56464,358.851014 1321.36298,358.814348 C1321.16131,358.777681 1320.93214,358.796014 1320.67548,358.869348 C1318.21881,359.236014 1315.87214,359.547681 1313.63548,359.804348 C1313.56214,359.804348 1313.36048,359.831848 1313.03048,359.886848 C1312.70048,359.941848 1312.46214,359.969348 1312.31548,359.969348 C1312.16881,359.969348 1311.96714,359.960181 1311.71048,359.941848 C1311.45381,359.923514 1311.21548,359.859348 1310.99548,359.749348 C1311.28881,358.796014 1311.45381,358.282681 1311.49048,358.209348 C1311.67381,357.659348 1311.95798,356.889348 1312.34298,355.899348 C1312.72798,354.909348 1312.99381,354.212681 1313.14048,353.809348 C1313.32381,353.332681 1313.25048,353.021014 1312.92048,352.874348 C1312.51714,352.691014 1312.20548,352.819348 1311.98548,353.259348 C1311.87548,353.479348 1311.71048,353.882681 1311.49048,354.469348 C1311.38048,354.689348 1311.14214,355.276014 1310.77548,356.229348 C1310.40881,357.182681 1310.13381,357.916014 1309.95048,358.429348 C1309.47381,359.602681 1309.02464,360.299348 1308.60298,360.519348 C1308.18131,360.739348 1307.25548,360.776014 1305.82548,360.629348 C1306.08214,359.566014 1306.59548,358.172681 1307.36548,356.449348 C1307.51214,356.156014 1307.73214,355.688514 1308.02548,355.046848 C1308.31881,354.405181 1308.53881,353.937681 1308.68548,353.644348 C1308.90548,353.131014 1308.77714,352.764348 1308.30048,352.544348 C1307.97048,352.361014 1307.67714,352.489348 1307.42048,352.929348 C1307.05381,353.479348 1306.79714,353.937681 1306.65048,354.304348 C1305.51381,357.127681 1304.76214,359.071014 1304.39548,360.134348 C1304.10214,361.014348 1303.47881,361.546014 1302.52548,361.729348 C1299.66548,362.279348 1296.21881,363.159348 1292.18548,364.369348 C1291.59881,364.552681 1290.82881,364.846014 1289.87548,365.249348 C1289.32548,365.469348 1289.11464,365.808514 1289.24298,366.266848 C1289.37131,366.725181 1289.72881,366.954348 1290.31548,366.954348 C1291.59881,366.881014 1292.47881,366.826014 1292.95548,366.789348 C1294.97214,366.496014 1297.09881,366.697681 1299.33548,367.394348 C1300.21548,367.687681 1300.77464,368.026848 1301.01298,368.411848 C1301.25131,368.796848 1301.31548,369.447681 1301.20548,370.364348 C1301.16881,370.547681 1301.07714,370.914348 1300.93048,371.464348 C1298.91381,379.274348 1297.28214,386.827681 1296.03548,394.124348 C1295.19214,399.147681 1294.69714,403.419348 1294.55048,406.939348 C1294.51381,408.186014 1294.62381,409.157681 1294.88048,409.854348 Z M1302.03048,367.174348 C1301.70048,366.954348 1301.33381,366.761848 1300.93048,366.596848 C1300.52714,366.431848 1300.19714,366.294348 1299.94048,366.184348 C1299.68381,366.074348 1299.29881,365.955181 1298.78548,365.826848 C1298.27214,365.698514 1297.92381,365.616014 1297.74048,365.579348 C1297.55714,365.542681 1297.15381,365.460181 1296.53048,365.331848 C1295.90714,365.203514 1295.54048,365.139348 1295.43048,365.139348 C1297.26381,364.406014 1299.88548,363.691014 1303.29548,362.994348 C1303.00214,364.571014 1302.58048,365.964348 1302.03048,367.174348 Z" id="logo_pink-copy"></path>
        </g>
    </g>
</svg></svg></g></g></svg></g></svg>