<?xml version="1.0" encoding="UTF-8"?>
<svg width="535px" height="234px" viewBox="0 0 535 234" version="1.1" xmlns="http://www.w3.org/2000/svg" xmlns:xlink="http://www.w3.org/1999/xlink">
    <title>SVG ingnition-logo - lighter-bg</title>
    <defs>
        <polygon id="path-1" points="15.7559011 48.7925271 55.0763325 80.3721377 48.035011 115.739194 28.6297618 157.521951 501.522379 118.712195 499.412778 87.508348 514.788223 6.84878049"></polygon>
        <filter x="-3.1%" y="-5.3%" width="104.8%" height="110.8%" filterUnits="objectBoundingBox" id="filter-2">
            <feMorphology radius="2.5" operator="dilate" in="SourceAlpha" result="shadowSpreadOuter1"></feMorphology>
            <feOffset dx="0" dy="0" in="shadowSpreadOuter1" result="shadowOffsetOuter1"></feOffset>
            <feColorMatrix values="0 0 0 0 0.631372549   0 0 0 0 0.180392157   0 0 0 0 0.207843137  0 0 0 1 0" type="matrix" in="shadowOffsetOuter1"></feColorMatrix>
        </filter>
    </defs>
    <g id="Ignition-Auto-Lanka" stroke="none" stroke-width="1" fill="none" fill-rule="evenodd">
        <g id="[BRAND-DESIGN]-Ignition-Auto-Lanka" transform="translate(-575, -700)">
            <g id="ingnition-logo---lighter-bg" transform="translate(574, 700)">
                <polygon id="red-path-copy-2" fill="#A12E35" points="14.8476044 54.5698696 62.4778231 92.9107134 56.2881448 124.281547 33.0532745 174.303744 521.328114 134.190445 518.878718 98.1378005 535.536055 10.7969767"></polygon>
                <polygon id="red-path" fill="#A12E35" points="1.13331873 44.2966989 48.7635373 82.6375426 42.5738591 114.008376 19.3389888 164.030573 507.613828 123.917274 505.164432 87.8646298 521.821769 0.52380597"></polygon>
                <g id="yellow-path">
                    <use fill="black" fill-opacity="1" filter="url(#filter-2)" xlink:href="#path-1"></use>
                    <use fill="#F0B748" fill-rule="evenodd" xlink:href="#path-1"></use>
                </g>
                <polygon id="black-path" fill="#040302" points="35.4285714 54.3731433 64.2939432 77.5015395 56.4513062 117.473789 42.6951736 147.921279 491.088373 110.316105 489.712808 88.3986198 504.204948 14.8390244"></polygon>
                <path d="M99.9656518,232.786357 L103.678962,226.005625 L100.239531,224.372755 L123.110627,222.450099 L124.259173,230.809664 L137.811085,229.706984 L135.523115,222.612448 L130.519787,183.284197 L111.347266,184.84421 L115.942665,188.727655 L95.66529,225.917264 L90.2857143,233.573985 L99.9656518,232.786357 Z M122.196583,215.24377 L108.894475,216.326124 L116.272598,202.706905 L119.310308,192.340794 L122.196583,215.24377 Z M162.235473,228.521754 C165.73274,228.237192 168.985754,227.211526 171.994513,225.444757 C177.674083,222.144388 181.276633,217.059158 182.802163,210.189069 L189.848437,178.456798 L174.298086,179.722085 L180.252109,184.667299 L174.433701,210.869986 C174.005808,212.796963 173.254369,214.524028 172.179385,216.051184 C170.288971,218.673036 167.824119,220.107611 164.784826,220.354909 C162.828022,220.514129 161.117046,220.118605 159.651898,219.168338 C157.253096,217.635897 156.393217,215.340663 157.072264,212.282636 L164.118538,180.550365 L145.383175,182.074807 L151.337199,187.020021 L145.518791,213.222709 C144.462787,218.162434 145.711514,222.112519 149.264972,225.072963 C152.624437,227.802388 156.947937,228.951986 162.235473,228.521754 Z M210.754098,223.771824 L210.527018,216.509598 L217.252373,186.222559 L210.684416,184.042137 L226.172316,182.781931 L230.339221,185.281122 L232.627516,174.975989 L191.347266,178.334842 L198.256626,185.05335 L206.25038,184.402921 L198.911093,217.454752 L195.328649,225.026947 L210.754098,223.771824 Z M250.055827,221.314367 C255.71807,220.853646 261.067868,218.670158 266.105221,214.763901 C272.550183,209.673629 276.693563,202.981305 278.535361,194.686929 C280.293441,186.769571 279.186044,180.710157 275.213168,176.508688 C271.789939,172.961773 267.059849,171.43392 261.022899,171.925129 L245.534999,173.185334 L249.834119,175.365263 C248.260424,176.192586 246.711973,177.182391 245.188764,178.334678 C238.679138,183.347943 234.494124,190.043655 232.633722,198.421812 C230.875642,206.339171 231.978388,212.41953 235.941962,216.66289 C239.314255,220.255083 244.018877,221.805576 250.055827,221.314367 Z M251.855766,213.208499 C249.940596,213.364331 248.308462,212.797857 246.959365,211.509076 C244.279774,208.847733 243.679489,204.186744 245.158509,197.526108 C246.237542,192.666777 248.053351,188.631876 250.605934,185.421404 C253.311325,182.075097 256.183667,180.278294 259.22296,180.030996 C261.179764,179.871776 262.807247,180.459196 264.105408,181.793256 C266.784998,184.454599 267.380633,189.136533 265.892311,195.839059 C264.822579,200.6565 263.011422,204.670456 260.458839,207.880928 C257.762749,211.185344 254.895058,212.961201 251.855766,213.208499 Z M338.84153,213.349722 L338.324918,198.830353 L332.744036,206.565156 L317.381038,207.815198 L326.366782,167.348698 L307.631419,168.873139 L313.585442,173.818354 L305.827565,208.75527 L302.245121,216.327465 L338.84153,213.349722 Z M348.334114,212.577338 L352.047424,205.796606 L348.607993,204.163736 L371.479089,202.241081 L372.627635,210.600645 L386.179547,209.497966 L383.891577,202.403429 L378.88825,163.075179 L359.715728,164.635191 L364.311127,168.518636 L344.033752,205.708245 L338.654176,213.364967 L348.334114,212.577338 Z M370.565045,195.034752 L357.262938,196.117105 L364.64106,182.497887 L367.67877,172.131775 L370.565045,195.034752 Z M399.544106,208.41053 L404.357897,186.732048 L403.00208,177.648938 L419.34114,206.799703 L430.270101,205.910446 L429.98057,198.653302 L438.966314,158.186801 L422.79145,159.502903 L428.745474,164.448117 L424.740958,182.482101 L426.159226,191.56013 L409.489342,160.585257 L394.001442,161.845462 L399.955466,166.790677 L392.197588,201.727593 L388.615144,209.299788 L399.544106,208.41053 Z M449.692428,204.330107 L452.748139,190.568984 L451.835445,182.251929 L461.734932,200.635406 L460.309133,203.466257 L477.857923,202.038363 L463.804918,175.848332 L485.679819,154.38586 L468.068577,155.818835 L471.74915,158.851204 L456.180581,175.111283 L460.324627,156.448938 L441.589264,157.97338 L447.543288,162.918594 L439.78541,197.855511 L436.202966,205.427706 L449.692428,204.330107 Z M486.725995,201.316794 L490.439306,194.536062 L486.999874,192.903192 L509.87097,190.980536 L511.019516,199.340101 L524.571429,198.237421 L522.283458,191.142885 L517.280131,151.814634 L498.107609,153.374646 L502.703009,157.258092 L482.425633,194.447701 L477.046058,202.104422 L486.725995,201.316794 Z M508.956927,183.774207 L495.654819,184.856561 L503.032942,171.237342 L506.070651,160.871231 L508.956927,183.774207 Z" id="AutoLanka-Copy-2" fill="#000000" fill-rule="nonzero"></path>
                <path d="M86.823803,130.492004 L86.1379554,120.201492 L97.5007871,62.7716136 L70.7150728,65.0201914 L79.4302449,72.0057975 L69.6200982,121.588115 L64.7702316,132.343333 L86.823803,130.492004 Z M150.84166,125.117904 L150.155813,114.827391 L155.184395,89.4119944 L128.398681,91.6605722 L137.113853,98.6461784 L133.637955,116.214014 L129.887955,116.528815 C125.07829,116.874107 121.425078,115.368406 118.928321,112.011711 C115.941481,107.877664 115.183234,102.09494 116.653579,94.6635372 C117.700466,89.3723787 119.736796,84.5535652 122.762571,80.2070967 C127.330994,73.6848957 132.829492,70.1539658 139.258063,69.6143072 L152.02592,68.5424851 L158.178575,72.059989 L161.072216,57.434989 L113.125787,61.4599432 L119.616876,64.5982541 C116.680233,66.4232979 113.952989,68.6692417 111.435144,71.3360855 C105.045717,78.1865454 100.904102,86.3975985 99.0102963,95.9692449 C97.3282208,104.470769 97.9827331,111.665333 100.973833,117.552935 C104.754765,125.069683 111.46666,128.423313 121.109517,127.613825 L150.84166,125.117904 Z M173.163089,123.244089 L179.25032,92.4780827 L176.968584,79.6029744 L201.46666,120.868092 L217.09166,119.556421 L216.405813,109.265908 L227.768644,51.8360304 L204.643644,53.7773025 L213.358816,60.7629087 L208.294946,86.3566587 L210.665968,99.2242717 L185.625787,55.3737927 L163.48293,57.232617 L172.198102,64.2182232 L162.387955,113.80054 L157.538089,124.555759 L173.163089,123.244089 Z M247.627374,116.993043 L246.941527,106.70253 L258.304359,49.2726517 L231.518644,51.5212295 L240.233816,58.5068356 L230.42367,108.089153 L225.573803,118.844372 L247.627374,116.993043 Z M290.395232,113.402813 L289.79867,103.104805 L298.303149,60.1215736 L288.811635,57.059748 L310.954492,55.2009237 L317.017861,58.7259228 L319.911501,44.1009228 L260.893644,49.0552892 L271.043778,58.5513045 L282.472349,57.5919114 L273.191527,104.498924 L268.34166,115.254142 L290.395232,113.402813 Z M339.055946,109.317897 L338.370098,99.0273843 L349.73293,41.5975063 L322.947216,43.846084 L331.662388,50.8316902 L321.852241,100.414007 L317.002374,111.169226 L339.055946,109.317897 Z M377.237073,107.165058 C385.332311,106.485487 392.915562,103.364187 399.986826,97.8011554 C409.030588,90.5524809 414.716983,81.042473 417.046011,69.2711315 C419.269173,58.034851 417.456278,49.4467041 411.607325,43.5066906 C406.57031,38.4924017 399.736326,36.3475281 391.105374,37.0720698 L368.962517,38.9308941 L375.203393,42.0025139 C372.979616,43.1830772 370.798074,44.59395 368.658767,46.2351326 C359.519483,53.3748983 353.773564,62.8899031 351.421011,74.780147 C349.197848,86.0164275 351.004862,94.6343001 356.842052,100.633765 C361.80778,105.712502 368.606121,107.889599 377.237073,107.165058 Z M379.513168,95.6612466 C376.775073,95.8911013 374.415516,95.0952946 372.434498,93.2738267 C368.495987,89.5119885 367.461871,82.9046975 369.332151,73.4519536 C370.696632,66.5556121 373.147499,60.825043 376.684752,56.2602462 C380.435865,51.5021052 384.484041,48.9406501 388.829279,48.5758808 C391.626898,48.3410293 393.980573,49.1665616 395.890305,51.0524775 C399.828816,54.8143157 400.857051,61.4513324 398.975008,70.9635275 C397.62229,77.8004178 395.177304,83.5012613 391.640051,88.0660581 C387.900701,92.7647478 383.858406,95.2964774 379.513168,95.6612466 Z M432.627374,101.462865 L438.714606,70.6968594 L436.43287,57.8217511 L460.930946,99.0868683 L476.555946,97.7751979 L475.870098,87.4846851 L487.23293,30.0548071 L464.10793,31.9960792 L472.823102,38.9816854 L467.759231,64.5754354 L470.130253,77.4430484 L445.090073,33.5925694 L422.947216,35.4513937 L431.662388,42.4369999 L421.852241,92.0193169 L417.002374,102.774536 L432.627374,101.462865 Z" id="Ignition-text-path" fill="#FFFFFF" fill-rule="nonzero"></path>
            </g>
        </g>
    </g>
</svg>