<?xml version="1.0" encoding="UTF-8"?>
<svg width="96px" height="64px" viewBox="0 0 96 64" version="1.1" xmlns="http://www.w3.org/2000/svg" xmlns:xlink="http://www.w3.org/1999/xlink">
    <title>Asith Copy</title>
    <g id="Me-Branding" stroke="none" stroke-width="1" fill="none" fill-rule="evenodd">
        <g id="sign" transform="translate(-1695, -261)" fill="#000000" fill-rule="nonzero">
            <g id="Asith-Copy" transform="translate(1695.5045, 261.3107)">
                <path d="M39.9404762,21.0243478 C39.8671429,21.2810145 39.7938095,21.5743478 39.7204762,21.9043478 C39.6471429,22.2343478 39.5554762,22.6010145 39.4454762,23.0043478 C39.3354762,23.4076812 39.2438095,23.7560145 39.1704762,24.0493478 C39.3538095,24.0860145 39.6471429,24.1226812 40.0504762,24.1593478 C40.4538095,24.1960145 40.7654762,24.2326812 40.9854762,24.2693478 C41.2054762,24.3060145 41.4621429,24.3518478 41.7554762,24.4068478 C42.0488095,24.4618478 42.3238095,24.5351812 42.5804762,24.6268478 C42.8371429,24.7185145 43.0754762,24.8193478 43.2954762,24.9293478 C43.9921429,25.2226812 44.2304762,25.6076812 44.0104762,26.0843478 C43.8638095,26.3776812 43.4604762,26.4510145 42.8004762,26.3043478 C41.6271429,26.0110145 40.8204762,25.8276812 40.3804762,25.7543478 C39.5738095,25.6443478 39.0788095,25.6535145 38.8954762,25.7818478 C38.7121429,25.9101812 38.5104762,26.3776812 38.2904762,27.1843478 C38.0338095,28.1010145 37.7404762,29.1368478 37.4104762,30.2918478 C37.0804762,31.4468478 36.7779762,32.5193478 36.5029762,33.5093478 C36.2279762,34.4993478 35.9438095,35.5168478 35.6504762,36.5618478 C35.3571429,37.6068478 35.0546429,38.6701812 34.7429762,39.7518478 C34.4313095,40.8335145 34.1288095,41.8693478 33.8354762,42.8593478 C33.3221429,44.6193478 31.5254762,50.4310145 28.4454762,60.2943478 C28.2254762,60.9543478 28.0054762,61.5226812 27.7854762,61.9993478 C27.4188095,62.7326812 26.9788095,63.0260145 26.4654762,62.8793478 C26.0621429,62.7693478 25.8604762,62.3293478 25.8604762,61.5593478 C25.8971429,60.1660145 25.5671429,57.9660145 24.8704762,54.9593478 C23.9538095,50.8893478 22.7438095,47.3876812 21.2404762,44.4543478 C20.5438095,43.0976812 19.7921429,41.9060145 18.9854762,40.8793478 C18.2521429,39.9626812 17.6654762,39.3943478 17.2254762,39.1743478 C17.1154762,39.2110145 17.0146429,39.2660145 16.9229762,39.3393478 C16.8313095,39.4126812 16.7671429,39.4860145 16.7304762,39.5593478 C16.6938095,39.6326812 16.6571429,39.7426812 16.6204762,39.8893478 C16.5838095,40.0360145 16.5654762,40.1276812 16.5654762,40.1643478 C14.9154762,45.0410145 13.7421429,49.1843478 13.0454762,52.5943478 C12.8988095,53.3276812 12.8071429,54.4460145 12.7704762,55.9493478 C12.7704762,56.2793478 12.5871429,56.4626812 12.2204762,56.4993478 C11.8538095,56.5360145 11.6154762,56.3893478 11.5054762,56.0593478 C11.3221429,55.3993478 11.3221429,54.5010145 11.5054762,53.3643478 C11.8354762,51.1643478 12.6421429,47.8460145 13.9254762,43.4093478 C14.4388095,41.6493478 14.9154762,40.1643478 15.3554762,38.9543478 C15.6854762,38.1110145 15.4471429,37.4326812 14.6404762,36.9193478 C10.4971429,34.1693478 6.53714286,32.9043478 2.76047619,33.1243478 C2.10047619,33.1976812 1.58714286,33.2160145 1.22047619,33.1793478 C1.18380952,33.1793478 1.09214286,33.1793478 0.94547619,33.1793478 C0.798809524,33.1793478 0.707142857,33.1793478 0.67047619,33.1793478 C0.633809524,33.1793478 0.56047619,33.1610145 0.45047619,33.1243478 C0.34047619,33.0876812 0.267142857,33.0510145 0.23047619,33.0143478 C0.193809524,32.9776812 0.14797619,32.9135145 0.0929761905,32.8218478 C0.0379761905,32.7301812 0.0104761905,32.6293478 0.0104761905,32.5193478 C-0.0628571429,32.0426812 0.248809524,31.6760145 0.94547619,31.4193478 C5.45547619,29.9160145 8.55380952,28.9076812 10.2404762,28.3943478 C14.3838095,27.1110145 17.3171429,26.3043478 19.0404762,25.9743478 C20.1404762,25.7543478 20.9471429,25.0943478 21.4604762,23.9943478 C24.5038095,17.4676812 27.5654762,12.2060145 30.6454762,8.20934783 C32.5888095,5.64268116 34.4588095,3.62601449 36.2554762,2.15934783 C37.3921429,1.24268116 38.4004762,0.619347826 39.2804762,0.289347826 C40.3804762,-0.113985507 41.3154762,-0.0956521739 42.0854762,0.344347826 C42.8554762,0.784347826 43.3504762,1.59101449 43.5704762,2.76434783 C43.7904762,4.01101449 43.7354762,5.56934783 43.4054762,7.43934783 C43.1121429,9.23601449 42.4979762,11.8026812 41.5629762,15.1393478 C40.6279762,18.4760145 40.0871429,20.4376812 39.9404762,21.0243478 Z M26.6854762,56.3893478 C26.6854762,56.4626812 26.6946429,56.5818478 26.7129762,56.7468478 C26.7313095,56.9118478 26.7496429,57.0493478 26.7679762,57.1593478 C26.7863095,57.2693478 26.8138095,57.3885145 26.8504762,57.5168478 C26.8871429,57.6451812 26.9421429,57.7735145 27.0154762,57.9018478 C27.0888095,58.0301812 27.1804762,58.1310145 27.2904762,58.2043478 C28.3171429,56.0410145 30.1596429,50.3485145 32.8179762,41.1268478 C35.4763095,31.9051812 36.7688095,26.7260145 36.6954762,25.5893478 C32.9188095,25.5160145 28.4088095,25.8460145 23.1654762,26.5793478 C22.1754762,26.7260145 21.4971429,27.3126812 21.1304762,28.3393478 C20.1038095,31.0160145 19.0954762,33.4910145 18.1054762,35.7643478 C17.6654762,36.7176812 17.8488095,37.5610145 18.6554762,38.2943478 C20.3054762,39.7976812 21.7721429,41.9243478 23.0554762,44.6743478 C24.5588095,47.9376812 25.7688095,51.8426812 26.6854762,56.3893478 Z M36.0904762,4.35934783 C33.3771429,6.99934783 31.0029762,9.96018116 28.9679762,13.2418478 C26.9329762,16.5235145 24.7788095,20.5110145 22.5054762,25.2043478 C26.4654762,24.4710145 31.0854762,24.1043478 36.3654762,24.1043478 C37.1354762,24.1043478 37.6304762,23.7010145 37.8504762,22.8943478 C38.1438095,21.7576812 38.5563095,20.2085145 39.0879762,18.2468478 C39.6196429,16.2851812 40.1054762,14.4793478 40.5454762,12.8293478 C40.9854762,11.1793478 41.3704762,9.63934783 41.7004762,8.20934783 C42.2871429,5.89934783 42.3788095,4.12101449 41.9754762,2.87434783 C41.7921429,2.21434783 41.5263095,1.80184783 41.1779762,1.63684783 C40.8296429,1.47184783 40.3254762,1.51768116 39.6654762,1.77434783 C38.5654762,2.21434783 37.3738095,3.07601449 36.0904762,4.35934783 Z M5.78547619,31.5843478 C8.97547619,32.0976812 12.4771429,33.6193478 16.2904762,36.1493478 C16.3638095,36.0026812 17.5371429,33.0326812 19.8104762,27.2393478 C14.8604762,28.4493478 10.1854762,29.8976812 5.78547619,31.5843478 Z" id="Shape"></path>
                <path d="M60.6204762,29.3293478 C60.6204762,29.3293478 60.6204762,29.3751812 60.6204762,29.4668478 C60.6204762,29.5585145 60.6113095,29.6226812 60.5929762,29.6593478 C60.5746429,29.6960145 60.5563095,29.7510145 60.5379762,29.8243478 C60.5196429,29.8976812 60.4829762,29.9526812 60.4279762,29.9893478 C60.3729762,30.0260145 60.2996429,30.0718478 60.2079762,30.1268478 C60.1163095,30.1818478 59.9879762,30.2276812 59.8229762,30.2643478 C59.6579762,30.3010145 59.4654762,30.3376812 59.2454762,30.3743478 C58.8054762,30.4476812 58.4021429,30.5485145 58.0354762,30.6768478 C57.6688095,30.8051812 57.4304762,30.9060145 57.3204762,30.9793478 L57.1004762,31.1443478 C55.2671429,32.1710145 53.4154762,33.6926812 51.5454762,35.7093478 C51.6188095,36.0026812 51.6738095,36.2043478 51.7104762,36.3143478 C52.2604762,38.4410145 52.1138095,40.5951812 51.2704762,42.7768478 C50.4271429,44.9585145 49.0888095,46.6543478 47.2554762,47.8643478 C46.8888095,48.0843478 46.5588095,48.2676812 46.2654762,48.4143478 C45.3121429,48.7810145 44.5513095,48.7443478 43.9829762,48.3043478 C43.4146429,47.8643478 43.2221429,47.1493478 43.4054762,46.1593478 C43.5521429,45.4993478 43.8821429,44.6560145 44.3954762,43.6293478 C44.7988095,42.8226812 45.2938095,41.9060145 45.8804762,40.8793478 L45.8254762,40.7693478 C45.8621429,40.7326812 45.9079762,40.6868478 45.9629762,40.6318478 C46.0179762,40.5768478 46.0638095,40.5126812 46.1004762,40.4393478 C46.1371429,40.3660145 46.1738095,40.3110145 46.2104762,40.2743478 C46.9438095,38.9910145 47.7688095,37.6893478 48.6854762,36.3693478 C49.4188095,35.2693478 49.4554762,34.1693478 48.7954762,33.0693478 C48.6854762,32.9226812 48.1904762,31.9326812 47.3104762,30.0993478 C46.9804762,29.3293478 46.7788095,28.3393478 46.7054762,27.1293478 C46.7054762,27.1293478 46.7054762,27.0835145 46.7054762,26.9918478 C46.7054762,26.9001812 46.7054762,26.8360145 46.7054762,26.7993478 C46.4121429,23.7193478 47.1454762,20.9326812 48.9054762,18.4393478 C49.6388095,17.4126812 50.4271429,16.6243478 51.2704762,16.0743478 C52.0771429,15.5610145 52.7738095,15.4876812 53.3604762,15.8543478 C53.9471429,16.2210145 54.1854762,16.8810145 54.0754762,17.8343478 C53.8921429,19.2643478 53.3971429,20.7126812 52.5904762,22.1793478 C52.0404762,23.1326812 51.4171429,24.1410145 50.7204762,25.2043478 C50.6471429,25.2043478 50.5738095,25.2226812 50.5004762,25.2593478 C50.4271429,25.2960145 50.2988095,25.3418478 50.1154762,25.3968478 C49.9321429,25.4518478 49.8038095,25.4060145 49.7304762,25.2593478 C49.4004762,24.9293478 49.3821429,24.5443478 49.6754762,24.1043478 C49.6754762,24.1043478 49.6754762,24.1043478 49.6754762,24.1043478 C51.3988095,21.5743478 52.3521429,19.3193478 52.5354762,17.3393478 C51.5088095,17.7793478 50.5738095,18.6868478 49.7304762,20.0618478 C48.8871429,21.4368478 48.4104762,22.8026812 48.3004762,24.1593478 L48.2454762,24.2143478 C48.1354762,26.3410145 48.2454762,27.8626812 48.5754762,28.7793478 C48.5754762,28.8160145 48.5754762,28.8435145 48.5754762,28.8618478 C48.5754762,28.8801812 48.5754762,28.8893478 48.5754762,28.8893478 C48.6121429,29.1460145 48.6854762,29.3843478 48.7954762,29.6043478 C48.8688095,29.7510145 49.3821429,30.8326812 50.3354762,32.8493478 C50.5554762,33.0326812 50.7938095,33.4360145 51.0504762,34.0593478 C52.0404762,32.9226812 52.9846429,31.9968478 53.8829762,31.2818478 C54.7813095,30.5668478 55.7254762,29.9985145 56.7154762,29.5768478 C57.7054762,29.1551812 58.7504762,28.9076812 59.8504762,28.8343478 C59.9971429,28.8343478 60.1621429,28.8801812 60.3454762,28.9718478 C60.5288095,29.0635145 60.6204762,29.1826812 60.6204762,29.3293478 Z M50.3904762,40.2743478 C50.6104762,39.1010145 50.5371429,38.1110145 50.1704762,37.3043478 C49.7671429,37.7810145 49.4188095,38.2210145 49.1254762,38.6243478 C47.1454762,41.5943478 45.8071429,43.9776812 45.1104762,45.7743478 C45.0004762,46.0310145 44.9454762,46.2876812 44.9454762,46.5443478 C44.9088095,46.8010145 44.9546429,46.9751812 45.0829762,47.0668478 C45.2113095,47.1585145 45.3854762,47.1493478 45.6054762,47.0393478 C46.1921429,46.7093478 46.6504762,46.4343478 46.9804762,46.2143478 C48.8138095,44.6743478 49.9504762,42.6943478 50.3904762,40.2743478 Z" id="Shape"></path>
                <path d="M73.5454762,27.2393478 C73.8388095,27.3860145 73.9671429,27.6610145 73.9304762,28.0643478 C73.9304762,28.2843478 73.7838095,28.5593478 73.4904762,28.8893478 C71.3271429,31.6760145 69.3838095,33.8210145 67.6604762,35.3243478 C66.8171429,36.0576812 66.0288095,36.5893478 65.2954762,36.9193478 C64.5988095,37.2493478 63.9754762,37.3776812 63.4254762,37.3043478 C62.8754762,37.2310145 62.4263095,36.9743478 62.0779762,36.5343478 C61.7296429,36.0943478 61.5188095,35.4893478 61.4454762,34.7193478 C61.4454762,34.6826812 61.4454762,34.4076812 61.4454762,33.8943478 C61.5188095,31.9876812 62.0321429,29.6776812 62.9854762,26.9643478 C63.2421429,26.3410145 63.5996429,26.1210145 64.0579762,26.3043478 C64.5163095,26.4876812 64.6354762,26.8910145 64.4154762,27.5143478 C63.8288095,29.2010145 63.4071429,30.7226812 63.1504762,32.0793478 C62.9671429,32.9960145 62.9029762,33.7843478 62.9579762,34.4443478 C63.0129762,35.1043478 63.1688095,35.5168478 63.4254762,35.6818478 C63.6821429,35.8468478 64.1038095,35.7826812 64.6904762,35.4893478 C65.3138095,35.2326812 66.0104762,34.7560145 66.7804762,34.0593478 C68.3938095,32.7026812 70.1354762,30.7960145 72.0054762,28.3393478 C72.2988095,27.9726812 72.5738095,27.6610145 72.8304762,27.4043478 C73.0504762,27.1476812 73.2888095,27.0926812 73.5454762,27.2393478 Z M65.2404762,23.9393478 C65.0571429,24.3793478 64.7913095,24.5535145 64.4429762,24.4618478 C64.0946429,24.3701812 63.9388095,24.0126812 63.9754762,23.3893478 C64.3421429,22.1060145 64.7638095,21.1160145 65.2404762,20.4193478 C65.4971429,20.0160145 65.8088095,19.9060145 66.1754762,20.0893478 C66.5421429,20.2726812 66.6338095,20.5843478 66.4504762,21.0243478 C66.3038095,21.3910145 66.0838095,21.9226812 65.7904762,22.6193478 C65.4971429,23.3160145 65.3138095,23.7560145 65.2404762,23.9393478 Z" id="Shape"></path>
                <path d="M94.7754762,9.25434783 C94.8854762,9.76768116 94.6288095,10.0976812 94.0054762,10.2443478 C93.6388095,10.3176812 92.4654762,10.4826812 90.4854762,10.7393478 C87.0021429,11.2160145 85.0221429,11.4726812 84.5454762,11.5093478 C84.1788095,11.5460145 83.8671429,11.6376812 83.6104762,11.7843478 C83.3538095,11.9310145 83.1429762,12.1143478 82.9779762,12.3343478 C82.8129762,12.5543478 82.6571429,12.8293478 82.5104762,13.1593478 C80.6404762,18.2193478 78.7521429,24.1776812 76.8454762,31.0343478 C76.8454762,31.0343478 76.5338095,32.2260145 75.9104762,34.6093478 C76.1304762,34.4993478 76.3229762,34.3526812 76.4879762,34.1693478 C76.6529762,33.9860145 76.7629762,33.8301812 76.8179762,33.7018478 C76.8729762,33.5735145 76.9463095,33.3901812 77.0379762,33.1518478 C77.1296429,32.9135145 77.1938095,32.7576812 77.2304762,32.6843478 C78.6238095,29.9343478 79.9254762,27.7710145 81.1354762,26.1943478 C81.2088095,26.1210145 81.3096429,26.0018478 81.4379762,25.8368478 C81.5663095,25.6718478 81.6579762,25.5526812 81.7129762,25.4793478 C81.7679762,25.4060145 81.8596429,25.2960145 81.9879762,25.1493478 C82.1163095,25.0026812 82.2171429,24.9018478 82.2904762,24.8468478 C82.3638095,24.7918478 82.4829762,24.7093478 82.6479762,24.5993478 C82.8129762,24.4893478 82.9413095,24.4343478 83.0329762,24.4343478 C83.1246429,24.4343478 83.2713095,24.4068478 83.4729762,24.3518478 C83.6746429,24.2968478 83.8488095,24.3060145 83.9954762,24.3793478 C84.9121429,24.5993478 85.1321429,25.7360145 84.6554762,27.7893478 C84.5088095,28.4860145 84.2796429,29.4851812 83.9679762,30.7868478 C83.6563095,32.0885145 83.4454762,32.9593478 83.3354762,33.3993478 C83.1154762,34.4260145 83.1154762,35.4160145 83.3354762,36.3693478 C83.5554762,36.2226812 83.7571429,36.0576812 83.9404762,35.8743478 C84.1238095,35.6910145 84.2796429,35.5351812 84.4079762,35.4068478 C84.5363095,35.2785145 84.6738095,35.0860145 84.8204762,34.8293478 C84.9671429,34.5726812 85.0679762,34.4076812 85.1229762,34.3343478 C85.1779762,34.2610145 85.2879762,34.0685145 85.4529762,33.7568478 C85.6179762,33.4451812 85.7004762,33.2710145 85.7004762,33.2343478 C85.8104762,33.0143478 86.4521429,31.6576812 87.6254762,29.1643478 C87.8821429,28.6510145 88.2488095,28.4676812 88.7254762,28.6143478 C89.0921429,28.7976812 89.1471429,29.1826812 88.8904762,29.7693478 C87.5704762,32.8860145 86.4521429,35.0676812 85.5354762,36.3143478 C85.2054762,36.7910145 84.8388095,37.1576812 84.4354762,37.4143478 C83.8488095,37.8910145 83.2988095,38.0285145 82.7854762,37.8268478 C82.2721429,37.6251812 81.9604762,37.1576812 81.8504762,36.4243478 C81.6671429,35.1410145 81.7404762,33.8210145 82.0704762,32.4643478 C82.1804762,32.0243478 82.6754762,29.9343478 83.5554762,26.1943478 C83.3354762,26.2676812 83.1338095,26.3593478 82.9504762,26.4693478 C82.7671429,26.5793478 82.6296429,26.6801812 82.5379762,26.7718478 C82.4463095,26.8635145 82.3271429,27.0010145 82.1804762,27.1843478 C82.0338095,27.3676812 81.9421429,27.4868478 81.9054762,27.5418478 C81.8688095,27.5968478 81.7771429,27.7343478 81.6304762,27.9543478 C77.8538095,33.9310145 75.1221429,40.0726812 73.4354762,46.3793478 C73.4354762,46.4160145 73.3988095,46.6543478 73.3254762,47.0943478 C73.2521429,47.5343478 73.1604762,47.8185145 73.0504762,47.9468478 C72.9404762,48.0751812 72.7388095,48.1210145 72.4454762,48.0843478 C72.2621429,48.0476812 72.1154762,47.9743478 72.0054762,47.8643478 C71.8954762,47.7543478 71.8313095,47.6168478 71.8129762,47.4518478 C71.7946429,47.2868478 71.7946429,47.1401812 71.8129762,47.0118478 C71.8313095,46.8835145 71.8679762,46.7093478 71.9229762,46.4893478 C71.9779762,46.2693478 72.0054762,46.1043478 72.0054762,45.9943478 C73.6921429,36.1676812 76.5704762,25.5710145 80.6404762,14.2043478 C80.6771429,14.1310145 80.8971429,13.5076812 81.3004762,12.3343478 C79.8704762,12.2610145 78.9446429,12.3435145 78.5229762,12.5818478 C78.1013095,12.8201812 77.7254762,13.5443478 77.3954762,14.7543478 C73.5088095,27.9176812 70.8504762,40.0176812 69.4204762,51.0543478 C69.0171429,54.3176812 68.8704762,56.8476812 68.9804762,58.6443478 C69.0171429,59.0476812 69.0171429,59.4143478 68.9804762,59.7443478 C68.9438095,60.0010145 68.7971429,60.1660145 68.5404762,60.2393478 C68.2104762,60.3126812 67.9904762,60.1843478 67.8804762,59.8543478 C67.6238095,59.1576812 67.5138095,58.1860145 67.5504762,56.9393478 C67.6971429,53.4193478 68.1921429,49.1476812 69.0354762,44.1243478 C70.2821429,36.8276812 71.9138095,29.2743478 73.9304762,21.4643478 C74.0771429,20.9143478 74.1688095,20.5476812 74.2054762,20.3643478 C74.3154762,19.4476812 74.2513095,18.7968478 74.0129762,18.4118478 C73.7746429,18.0268478 73.2154762,17.6876812 72.3354762,17.3943478 C70.0988095,16.6976812 67.9721429,16.4960145 65.9554762,16.7893478 C65.4788095,16.8260145 64.5988095,16.8810145 63.3154762,16.9543478 C62.7288095,16.9543478 62.3713095,16.7251812 62.2429762,16.2668478 C62.1146429,15.8085145 62.3254762,15.4693478 62.8754762,15.2493478 C63.8288095,14.8460145 64.5988095,14.5526812 65.1854762,14.3693478 C69.2188095,13.1593478 72.6654762,12.2793478 75.5254762,11.7293478 C76.4788095,11.5460145 77.1021429,11.0143478 77.3954762,10.1343478 C77.7621429,9.07101449 78.5138095,7.12768116 79.6504762,4.30434783 C79.7971429,3.93768116 80.0538095,3.47934783 80.4204762,2.92934783 C80.6771429,2.48934783 80.9704762,2.36101449 81.3004762,2.54434783 C81.7771429,2.76434783 81.9054762,3.13101449 81.6854762,3.64434783 C81.5388095,3.93768116 81.3188095,4.40518116 81.0254762,5.04684783 C80.7321429,5.68851449 80.5121429,6.15601449 80.3654762,6.44934783 C79.5954762,8.17268116 79.0821429,9.56601449 78.8254762,10.6293478 C80.2554762,10.7760145 81.1813095,10.7393478 81.6029762,10.5193478 C82.0246429,10.2993478 82.4738095,9.60268116 82.9504762,8.42934783 C83.1338095,7.91601449 83.4088095,7.18268116 83.7754762,6.22934783 C84.1421429,5.27601449 84.3804762,4.68934783 84.4904762,4.46934783 C84.7104762,3.88268116 84.8754762,3.47934783 84.9854762,3.25934783 C85.2054762,2.81934783 85.5171429,2.69101449 85.9204762,2.87434783 C86.2504762,3.02101449 86.3238095,3.33268116 86.1404762,3.80934783 C85.9938095,4.21268116 85.7279762,4.90934783 85.3429762,5.89934783 C84.9579762,6.88934783 84.6738095,7.65934783 84.4904762,8.20934783 C84.4538095,8.28268116 84.2888095,8.79601449 83.9954762,9.74934783 C84.2154762,9.85934783 84.4538095,9.92351449 84.7104762,9.94184783 C84.9671429,9.96018116 85.1688095,9.96934783 85.3154762,9.96934783 C85.4621429,9.96934783 85.7004762,9.94184783 86.0304762,9.88684783 C86.3604762,9.83184783 86.5621429,9.80434783 86.6354762,9.80434783 C88.8721429,9.54768116 91.2188095,9.23601449 93.6754762,8.86934783 C93.9321429,8.79601449 94.1613095,8.77768116 94.3629762,8.81434783 C94.5646429,8.85101449 94.7021429,8.99768116 94.7754762,9.25434783 Z M75.0304762,17.1743478 C75.5804762,15.9643478 76.0021429,14.5710145 76.2954762,12.9943478 C72.8854762,13.6910145 70.2638095,14.4060145 68.4304762,15.1393478 C68.5404762,15.1393478 68.9071429,15.2035145 69.5304762,15.3318478 C70.1538095,15.4601812 70.5571429,15.5426812 70.7404762,15.5793478 C70.9238095,15.6160145 71.2721429,15.6985145 71.7854762,15.8268478 C72.2988095,15.9551812 72.6838095,16.0743478 72.9404762,16.1843478 C73.1971429,16.2943478 73.5271429,16.4318478 73.9304762,16.5968478 C74.3338095,16.7618478 74.7004762,16.9543478 75.0304762,17.1743478 Z" id="Shape"></path>
            </g>
        </g>
    </g>
</svg>