<?xml version="1.0" encoding="UTF-8"?><svg id="Layer_2" xmlns="http://www.w3.org/2000/svg" xmlns:xlink="http://www.w3.org/1999/xlink" viewBox="0 0 1346 1018.37"><defs><style>.cls-1{fill:url(#linear-gradient);}.cls-2{fill:#fff;}.cls-3{fill:url(#linear-gradient-8);}.cls-4{fill:url(#linear-gradient-9);}.cls-5{fill:url(#linear-gradient-3);}.cls-6{fill:url(#linear-gradient-4);}.cls-7{fill:url(#linear-gradient-2);}.cls-8{fill:url(#linear-gradient-6);}.cls-9{fill:url(#linear-gradient-7);}.cls-10{fill:url(#linear-gradient-5);}.cls-11{fill:url(#linear-gradient-14);}.cls-12{fill:url(#linear-gradient-18);}.cls-13{fill:url(#linear-gradient-15);}.cls-14{fill:url(#linear-gradient-16);}.cls-15{fill:url(#linear-gradient-17);}.cls-16{fill:url(#linear-gradient-13);}.cls-17{fill:url(#linear-gradient-12);}.cls-18{fill:url(#linear-gradient-10);}.cls-19{fill:url(#linear-gradient-11);}</style><linearGradient id="linear-gradient" x1="-287.33" y1="-48.75" x2="-285.27" y2="-48.75" gradientTransform="translate(123038.65 107331.77) rotate(50.81) scale(558.66 -558.66)" gradientUnits="userSpaceOnUse"><stop offset="0" stop-color="#272d33"/><stop offset=".99" stop-color="#1a1a1a"/><stop offset="1" stop-color="#1a1a1a"/></linearGradient><linearGradient id="linear-gradient-2" x1="-287.51" y1="-49.48" x2="-285.45" y2="-49.48" gradientTransform="translate(91498.5 -14829.98) scale(317 -317)" gradientUnits="userSpaceOnUse"><stop offset="0" stop-color="#cfa54b"/><stop offset=".99" stop-color="#825402"/><stop offset="1" stop-color="#825402"/></linearGradient><linearGradient id="linear-gradient-3" x1="-287.5" y1="-49.56" x2="-285.44" y2="-49.56" gradientTransform="translate(70182.64 -11224.46) scale(242.59 -242.59)" xlink:href="#linear-gradient-2"/><linearGradient id="linear-gradient-4" x1="-293.25" y1="-183.8" x2="-291.19" y2="-183.8" gradientTransform="translate(1173.37 586.89) scale(1.78 -1.78)" xlink:href="#linear-gradient-2"/><linearGradient id="linear-gradient-5" x1="-287.54" y1="-48.79" x2="-285.48" y2="-48.79" gradientTransform="translate(177809.86 -29750.9) scale(618.29 -618.29)" xlink:href="#linear-gradient-2"/><linearGradient id="linear-gradient-6" x1="-287.95" y1="-49.6" x2="-285.89" y2="-49.6" gradientTransform="translate(9898.26 51849.52) rotate(89.36) scale(180.01 -180.01)" xlink:href="#linear-gradient-2"/><linearGradient id="linear-gradient-7" x1="-287.4" y1="-48.84" x2="-285.34" y2="-48.84" gradientTransform="translate(138220.42 69246.34) rotate(36.23) scale(528.97 -528.97)" gradientUnits="userSpaceOnUse"><stop offset="0" stop-color="#f2f2f2"/><stop offset=".23" stop-color="#999"/><stop offset=".43" stop-color="#e6e6e6"/><stop offset=".99" stop-color="#fff"/><stop offset="1" stop-color="#fff"/></linearGradient><linearGradient id="linear-gradient-8" x1="-287.4" y1="-48.63" x2="-285.34" y2="-48.63" gradientTransform="translate(138282.56 69161.54) rotate(36.23) scale(528.97 -528.97)" xlink:href="#linear-gradient-7"/><linearGradient id="linear-gradient-9" x1="-287.4" y1="-48.49" x2="-285.34" y2="-48.49" gradientTransform="translate(138323.33 69105.91) rotate(36.23) scale(528.97 -528.97)" xlink:href="#linear-gradient-7"/><linearGradient id="linear-gradient-10" x1="-287.95" y1="-48.74" x2="-285.89" y2="-48.74" gradientTransform="translate(10045.11 51847.89) rotate(89.36) scale(180.01 -180.01)" xlink:href="#linear-gradient-2"/><linearGradient id="linear-gradient-11" x1="-287.95" y1="-47.88" x2="-285.89" y2="-47.88" gradientTransform="translate(10191.55 51846.26) rotate(89.36) scale(180.01 -180.01)" xlink:href="#linear-gradient-2"/><linearGradient id="linear-gradient-12" x1="-289.09" y1="-51.04" x2="-287.03" y2="-51.04" gradientTransform="translate(5791.03 21641.66) rotate(85.73) scale(75.49 -75.49)" xlink:href="#linear-gradient-2"/><linearGradient id="linear-gradient-13" x1="-289.09" y1="-50.56" x2="-287.03" y2="-50.56" gradientTransform="translate(5825.12 21639.11) rotate(85.73) scale(75.49 -75.49)" xlink:href="#linear-gradient-2"/><linearGradient id="linear-gradient-14" x1="-289.09" y1="-48.09" x2="-287.03" y2="-48.09" gradientTransform="translate(6000.76 21626.01) rotate(85.73) scale(75.49 -75.49)" xlink:href="#linear-gradient-2"/><linearGradient id="linear-gradient-15" x1="-289.09" y1="-46.38" x2="-287.03" y2="-46.38" gradientTransform="translate(6122.53 21616.92) rotate(85.73) scale(75.49 -75.49)" xlink:href="#linear-gradient-2"/><linearGradient id="linear-gradient-16" x1="-287.34" y1="-48.72" x2="-285.28" y2="-48.72" gradientTransform="translate(-125602.54 98992.1) rotate(151.71) scale(550.77 -550.77)" xlink:href="#linear-gradient"/><linearGradient id="linear-gradient-17" x1="-287.53" y1="-48.93" x2="-285.47" y2="-48.93" gradientTransform="translate(187927.05 -31389.29) scale(653.59 -653.59)" gradientUnits="userSpaceOnUse"><stop offset="0" stop-color="#f2f2f2"/><stop offset=".23" stop-color="#999"/><stop offset=".4" stop-color="#e6e6e6"/><stop offset=".68" stop-color="#333"/><stop offset=".99" stop-color="#fff"/><stop offset="1" stop-color="#fff"/></linearGradient><linearGradient id="linear-gradient-18" x1="-293.25" y1="-183.8" x2="-291.19" y2="-183.8" gradientTransform="translate(1173.37 586.89) scale(1.78 -1.78)" xlink:href="#linear-gradient-2"/></defs><g id="Layer_1-2"><g><path class="cls-1" d="m1155.12,326.12l-50.68-107.83,154.45-197.7-587.77-.68-19.75.04-577.47,1.32,166.13,197.33-18.08,38.43-31.18,66.29-1.32,2.8-2.57,5.44-28.71,61.04-5.19,11.04-51.65,109.77,111.04,296.3,224.12-35.28-79.62-82.48,53.59-.16,263.56,273.03,282.51-274.76,53.17-.16-87.85,85.44,210.55,34,110.46-296.55-56.49-120.19-31.26-66.48Zm-503.75,588.24v-.62h3.67l-3.67.62Zm20.74,16.48s-240.25-263.33-235.49-263.33l499.53,2.02-264.04,261.32Z"/><polygon class="cls-7" points="1009.71 689.9 921.86 775.34 899.47 797.11 671.97 1018.37 450.13 788.54 436.5 774.43 356.88 691.95 410.47 691.79 674.03 964.82 956.54 690.06 1009.71 689.9"/><path class="cls-5" d="m936.15,669.53l-264.04,261.32s-240.25-263.33-235.49-263.33l499.53,2.02Z"/><polygon class="cls-6" points="655.04 913.75 651.38 914.37 651.38 913.75 655.04 913.75"/><polygon class="cls-10" points="1208.77 392.6 1265.42 512.31 1146.06 829.93 899.47 797.11 898.5 796.98 919.1 774.89 921.86 775.34 1132.41 809.34 1242.87 512.79 1186.39 392.6 1155.12 326.12 1104.44 218.3 1258.9 20.59 671.13 19.91 651.38 19.96 73.9 21.27 240.03 218.6 221.95 257.03 190.77 323.32 189.46 326.12 186.88 331.56 158.17 392.6 152.98 403.64 101.33 513.41 212.38 809.71 436.5 774.43 437.2 774.33 450.13 788.54 457.79 796.98 198.76 830.33 78.78 512.97 130.23 403.64 135.42 392.6 164.12 331.56 166.68 326.12 168 323.32 201.91 251.25 203.85 247.13 215.77 221.78 166.04 162.69 29.73 .78 691.68 0 1303.03 0 1176.97 162.69 1127.78 221.41 1139.95 247.13 1141.9 251.25 1176.01 323.32 1177.32 326.12 1208.77 392.6"/><path class="cls-8" d="m580.61,162.27c.17,10.75-1.57,21.78-5.47,32.71l-21.16,59.24-59.83,167.55c-6.71,18.77-24.48,31.29-44.41,31.29h-220.03c-11.47,0-19.81-9.95-18.81-20.59.8,9.31,8.54,17.26,18.81,17.26h220.03c19.93,0,37.7-12.52,44.41-31.29l59.83-167.55,21.16-59.24c3.51-9.8,5.26-19.69,5.47-29.37Z"/><path class="cls-9" d="m580.61,162.21v.07c-.22,9.68-1.97,19.58-5.47,29.37l-21.16,59.24-59.83,167.55c-6.71,18.77-24.48,31.29-44.41,31.29h-220.03c-10.26,0-18.01-7.94-18.81-17.26-.27-2.87.15-5.86,1.35-8.79l37.85-92.05,60.66-147.56h101.85l-1.29,3.34-43,111.78-22.78,59.21c-.83,2.15-1.05,4.34-.77,6.41.82,6.23,6.11,11.42,13.02,11.42h55.87c6.94,0,13.13-4.32,15.52-10.85l33.31-91.15,29.44-80.6c1.27-3.49,1.95-6.99,2.12-10.43.95-19.39-14.45-36.93-35.24-36.93h-207.9l-47.26-75.41-2.09-3.34h286.1c53.82,0,94.02,44.66,92.95,94.71Z"/><path class="cls-3" d="m926.47,67.5l-1.12,3.34-25.13,75.41h-170.94c-12.1,0-22.91,7.59-27.02,18.99l-17.49,54.45-50.28,156.52h58.43c11.77,0,22.19-7.61,25.75-18.84l45.04-141.82h101.86l-.88,3.34-41.49,156.8c-11.55,43.64-51.02,74.03-96.16,74.03h-171.32c-13.32,0-23.51-10.46-24.32-22.75-.22-2.97.13-6.07,1.14-9.15l56.96-175.71,46.96-144.89c5.76-17.74,22.26-29.74,40.9-29.74h249.11Z"/><path class="cls-4" d="m1142.38,376.22l-1.2,3.34-25.05,70.17h-233.94c-12.25,0-21.69-9.56-22.54-20.89v-.05c-.2-2.72.1-5.54.97-8.36l76.65-246.82,33.44-107.71h107.11l-1.07,3.34-28.82,89.78-66.45,207.05c-.45,1.42-.5,2.85-.22,4.19.77,3.6,3.95,6.48,8.01,6.46l153.11-.5Z"/><path class="cls-18" d="m865.58,218.9l-42.37,160.14c-11.55,43.64-51.02,74.03-96.16,74.03h-171.32c-14.52,0-25.32-12.42-24.32-26.08.8,12.28,11,22.75,24.32,22.75h171.32c45.14,0,84.61-30.39,96.16-74.03l41.49-156.8h.88Z"/><path class="cls-19" d="m1142.38,379.55l-26.25,73.51h-233.94c-13.45,0-23.5-11.51-22.54-24.23.85,11.33,10.3,20.89,22.54,20.89h233.94l25.05-70.17h1.2Z"/><path class="cls-17" d="m310.76,184.07h101.85l-44.29,115.12c-40.08,10.8-79.74,21.69-118.22,32.44l60.66-147.56Z"/><path class="cls-16" d="m575.14,191.65l-21.16,59.24c-30.17,7.51-60.78,15.34-91.48,23.33l29.44-80.6c8.39-23.01-8.63-47.36-33.13-47.36h-207.9l-49.35-78.75h286.1c64.25,0,109.09,63.65,87.48,124.14Z"/><path class="cls-11" d="m677.37,67.5h249.11l-26.25,78.75h-170.94c-12.1,0-22.91,7.59-27.02,18.99l-17.49,54.45c-30.79,6.96-62.7,14.49-95.27,22.43l46.96-144.89c5.76-17.74,22.26-29.74,40.9-29.74Z"/><path class="cls-13" d="m970.71,65.9h107.11l-29.89,93.12c-34.18,4.27-71.08,9.11-110.66,14.59l33.44-107.71Z"/><path class="cls-14" d="m1328.92,490.13l-84.43,199.76H101.52L17.08,490.13h1311.83Z"/><path class="cls-15" d="m1251.99,701.22H94.01L0,478.81h1346l-94.01,222.41Zm-1142.96-22.65h1127.94l74.86-177.11H34.17l74.86,177.11Z"/><path class="cls-2" d="m135.27,526.09h55.43c5.03,0,9.36,1.67,13,5.01,3.68,3.39,5.53,7.47,5.53,12.25v77.54c0,9.66-3.69,17.43-11.06,23.31-6.92,5.53-15.56,8.29-25.92,8.29h-36.98v-126.4Zm25.1,23.38v79.63h11.88c7.92,0,11.88-2.74,11.88-8.22v-71.42h-23.76Z"/><rect class="cls-2" x="227.9" y="526.09" width="25.1" height="126.4"/><path class="cls-2" d="m320.68,607.44h-11.88v-23.38h36.98v51.17c0,4.78-1.84,8.87-5.53,12.25-3.64,3.34-7.97,5.01-13,5.01h-36.9c-5.03,0-9.36-1.67-13-5.01-3.69-3.38-5.53-7.47-5.53-12.25v-91.89c0-4.78,1.84-8.86,5.53-12.25,3.64-3.34,7.97-5.01,13-5.01h36.9c5.03,0,9.36,1.67,13,5.01,3.69,3.39,5.53,7.47,5.53,12.25v25.4h-25.1v-19.27h-23.76v79.63h23.76v-21.66Z"/><rect class="cls-2" x="362.66" y="526.09" width="25.1" height="126.4"/><polygon class="cls-2" points="424.37 549.47 399.87 549.47 399.87 526.09 473.82 526.09 473.82 549.47 449.39 549.47 449.39 652.48 424.37 652.48 424.37 549.47"/><path class="cls-2" d="m504.52,626.86l-5.08,25.62h-25.4l24.5-126.4h33.39l24.43,126.4h-25.47l-4.93-25.62h-21.44Zm4.56-23.38h12.25l-6.13-53.86-6.13,53.86Z"/><polygon class="cls-2" points="566.75 652.48 566.75 526.09 591.85 526.09 591.85 629.1 626.66 629.1 626.66 652.48 566.75 652.48"/><path class="cls-2" d="m722.66,607.44h-11.88v-23.38h36.98v51.17c0,4.78-1.84,8.87-5.53,12.25-3.64,3.34-7.97,5.01-13,5.01h-36.9c-5.03,0-9.36-1.67-13-5.01-3.68-3.38-5.53-7.47-5.53-12.25v-91.89c0-4.78,1.84-8.86,5.53-12.25,3.64-3.34,7.97-5.01,13-5.01h36.9c5.03,0,9.36,1.67,13,5.01,3.68,3.39,5.53,7.47,5.53,12.25v25.4h-25.1v-19.27h-23.76v79.63h23.76v-21.66Z"/><path class="cls-2" d="m787.95,626.86l-5.08,25.62h-25.4l24.5-126.4h33.39l24.43,126.4h-25.47l-4.93-25.62h-21.44Zm4.56-23.38h12.25l-6.13-53.86-6.13,53.86Z"/><polygon class="cls-2" points="965.96 526.09 965.96 652.48 940.86 652.48 940.86 569.19 923.38 652.48 892.9 652.48 875.27 569.19 875.27 652.48 850.17 652.48 850.17 526.09 884.99 526.09 908.14 628.8 931.15 526.09 965.96 526.09"/><rect class="cls-2" x="985.98" y="526.09" width="25.1" height="126.4"/><polygon class="cls-2" points="1056.21 571.06 1056.21 652.48 1031.1 652.48 1031.1 526.09 1065.92 526.09 1086.46 607.89 1086.46 526.09 1111.56 526.09 1111.56 652.48 1076.82 652.48 1056.21 571.06"/><path class="cls-2" d="m1179.24,607.44h-11.88v-23.38h36.98v51.17c0,4.78-1.84,8.87-5.53,12.25-3.64,3.34-7.97,5.01-13,5.01h-36.9c-5.03,0-9.36-1.67-13-5.01-3.69-3.38-5.53-7.47-5.53-12.25v-91.89c0-4.78,1.84-8.86,5.53-12.25,3.63-3.34,7.97-5.01,13-5.01h36.9c5.03,0,9.36,1.67,13,5.01,3.68,3.39,5.53,7.47,5.53,12.25v25.4h-25.1v-19.27h-23.76v79.63h23.76v-21.66Z"/><polygon class="cls-2" points="551.4 795.44 551.4 728.33 564.72 728.33 564.72 783.02 583.2 783.02 583.2 795.44 551.4 795.44"/><polygon class="cls-2" points="602.04 783.02 624.25 783.02 624.25 795.44 588.71 795.44 588.71 728.33 624.25 728.33 624.25 740.75 602.04 740.75 602.04 755.66 620.52 755.66 620.52 768.11 602.04 768.11 602.04 783.02"/><path class="cls-2" d="m643.44,781.83l-2.7,13.6h-13.48l13.01-67.1h17.73l12.97,67.1h-13.52l-2.62-13.6h-11.38Zm2.42-12.41h6.5l-3.25-28.59-3.25,28.59Z"/><path class="cls-2" d="m701.78,771.52h-6.31v-12.41h19.63v27.17c0,2.54-.98,4.71-2.93,6.5-1.93,1.77-4.23,2.66-6.9,2.66h-19.59c-2.67,0-4.97-.88-6.9-2.66-1.96-1.8-2.93-3.97-2.93-6.5v-48.78c0-2.54.98-4.71,2.93-6.5,1.93-1.77,4.23-2.66,6.9-2.66h19.59c2.67,0,4.97.89,6.9,2.66,1.96,1.8,2.93,3.96,2.93,6.5v13.48h-13.32v-10.23h-12.61v42.28h12.61v-11.5Z"/><path class="cls-2" d="m736.92,783.02h12.61v-54.69h13.33v57.94c0,2.54-.98,4.71-2.93,6.5-1.93,1.77-4.23,2.66-6.9,2.66h-19.59c-2.67,0-4.97-.88-6.9-2.66-1.96-1.8-2.93-3.97-2.93-6.5v-57.94h13.33v54.69Z"/><polygon class="cls-2" points="786.65 783.02 808.86 783.02 808.86 795.44 773.32 795.44 773.32 728.33 808.86 728.33 808.86 740.75 786.65 740.75 786.65 755.66 805.13 755.66 805.13 768.11 786.65 768.11 786.65 783.02"/><polygon class="cls-12" points="655.04 913.75 651.38 914.37 651.38 913.75 655.04 913.75"/></g></g></svg>