<?xml version="1.0" encoding="UTF-8"?>
<svg width="532px" height="129px" viewBox="0 0 532 129" version="1.1" xmlns="http://www.w3.org/2000/svg" xmlns:xlink="http://www.w3.org/1999/xlink">
    <title>wizpos-vector copy 3</title>
    <g id="sketches-&amp;-scraps" stroke="none" stroke-width="1" fill="none" fill-rule="evenodd">
        <g id="Artboard" transform="translate(-400, -616)" fill-rule="nonzero">
            <g id="wizpos-vector-copy-3" transform="translate(400, 616.6049)">
                <g id="Group" transform="translate(265.8359, 64.1971) scale(-1, 1) rotate(-180) translate(-265.8359, -64.1971)translate(0, -0)">
                    <path d="M300.343805,9.1591187 C301.117956,9.54578611 301.376006,10.0613427 301.80609,12.0806058 C301.999627,12.9613482 302.58024,14.8946853 303.074836,16.3769104 C304.515616,20.6302519 304.709154,21.253216 304.709154,21.5969204 C304.709154,21.9406248 305.225254,23.7021096 305.676842,24.9695195 C305.827372,25.3776684 306.106926,26.4517445 306.321968,27.332487 C306.53701,28.2132294 306.967093,29.8028621 307.31116,30.8769382 C308.407873,34.3569449 308.579907,34.9154645 309.225032,37.4288027 C309.569099,38.7821386 309.999183,40.3932528 310.19272,40.973254 C312.30013,47.9762304 312.837735,49.8236414 313.117289,51.0695697 C313.22481,51.5421632 313.48286,52.5517947 313.719406,53.3251296 C314.429044,55.7095786 316.10637,61.3162561 316.450437,62.4547768 C316.622471,63.0562594 316.902025,64.1518171 317.074059,64.9251519 C317.246092,65.6984867 317.568655,66.944415 317.805201,67.7177498 C318.063251,68.4910847 318.256789,69.242938 318.256789,69.3933086 C318.256789,69.5651608 318.407318,69.9947913 318.579351,70.3599771 C318.751385,70.7466446 319.224477,72.2503512 319.633056,73.7325762 C320.06314,75.2148013 320.493224,76.7185079 320.600744,77.0622123 C320.683453,77.3431245 320.842507,78.0053655 321.009392,78.6969395 L321.109915,79.1125879 C321.126643,79.1815107 321.143312,79.2500227 321.159853,79.3177722 C321.353391,80.1985146 321.611441,81.2296277 321.740466,81.573332 C321.847987,81.9385179 322.041525,82.6044451 322.149046,83.0770386 C322.278071,83.5496321 322.450104,84.0222256 322.579129,84.1296333 C322.68665,84.2585224 322.772667,84.6022268 322.772667,84.9244496 C322.772667,85.2466724 322.923196,86.0200073 323.116734,86.6429714 L323.18742,86.8902517 L323.331348,87.3864966 C323.814949,89.0386688 324.324708,90.6329308 324.493001,91.0252021 C324.729547,91.6052032 325.138127,93.1518728 325.353169,94.4192827 C325.546706,95.3859512 325.783252,96.2881752 326.256344,97.6844741 C326.363865,98.04966 326.557403,98.6726242 326.64342,99.0807731 C326.729436,99.4889221 326.922974,100.133368 327.030495,100.477072 C327.15952,100.842258 327.353058,101.551148 327.503587,102.088186 C328.0842,104.408191 328.170217,104.751895 328.320746,104.96671 C328.406763,105.0956 328.578796,105.697082 328.707821,106.277083 C329.26693,108.683014 329.890551,111.067463 330.19161,111.991168 C330.363643,112.549688 330.514172,113.172652 330.514172,113.408949 C330.514172,113.623764 330.643197,114.010431 330.815231,114.246728 C330.987264,114.483025 331.22381,115.148952 331.352835,115.750435 C331.847432,118.113402 331.954953,118.543033 332.191499,118.994145 C332.342028,119.251923 332.449549,119.788961 332.449549,120.19711 C332.449549,120.991926 331.868936,121.421557 330.772223,121.421557 C330.127097,121.421557 327.503587,121.958595 325.998294,122.388225 C325.073614,122.667485 323.482305,122.925263 320.149157,123.354894 C319.331998,123.462302 318.600856,123.591191 318.493335,123.655635 C318.407318,123.72008 317.547151,123.87045 316.622471,123.99934 C315.676287,124.106747 314.106482,124.407489 313.095785,124.643785 C311.289434,125.094897 308.407873,125.567491 305.4618,125.911195 C304.623137,125.997121 303.741466,126.190455 303.483416,126.319344 C303.225366,126.469715 302.408207,126.577122 301.65556,126.577122 C300.902914,126.577122 299.634167,126.706011 298.795504,126.877864 C295.282438,127.625421 293.859195,127.851072 292.719285,127.865285 L292.6023,127.866014 C291.441074,127.866014 291.376561,127.844532 291.26904,127.286013 C291.053999,126.297863 290.301352,123.075634 290.08631,122.280818 C289.978789,121.872669 289.742243,120.47637 289.548706,119.165997 C289.355168,117.877106 289.097118,116.373399 288.989597,115.836361 C288.731547,114.719322 288.430488,113.194134 288.150934,111.647464 C288.043413,111.067463 287.849875,109.993387 287.699346,109.284496 C287.570321,108.575606 287.376783,107.351159 287.269263,106.556343 C287.183246,105.761527 287.011212,104.923747 286.882187,104.687451 C286.753162,104.451154 286.645641,103.914116 286.645641,103.484485 C286.645641,103.054855 286.516616,102.109668 286.344583,101.379296 C285.419903,97.2548437 285.183357,96.0089154 284.710265,92.1637228 C284.602744,91.3474249 284.452215,90.5955716 284.366198,90.4666825 C284.17266,90.1444596 283.635056,87.3088986 283.420014,85.5474138 C283.333997,84.7740789 283.161964,83.8074104 283.011435,83.3992615 C282.882409,82.9911126 282.774889,82.2822223 282.774889,81.8311103 C282.774889,81.3799983 282.624359,80.6711081 282.452326,80.2414776 C282.280292,79.8333287 282.129763,79.1674015 282.129763,78.8022156 C282.129763,78.1362884 281.721184,76.0310992 281.140571,73.6896132 C280.968537,73.0022045 280.839512,71.9496098 280.839512,71.3266457 C280.839512,69.9088652 280.645975,69.2214564 280.280403,69.2214564 C279.85032,69.2214564 279.678286,69.6296054 279.506253,71.0473859 C279.420236,71.7562761 279.205194,72.9162784 279.033161,73.6251686 C278.861127,74.3340589 278.603077,75.3436904 278.474052,75.8807285 C278.431044,76.0597412 278.378478,76.2745564 278.322726,76.5013058 L278.152286,77.1934882 C278.096534,77.4202376 278.043969,77.6350529 278.00096,77.8140656 C277.871935,78.3511036 277.699902,79.4036982 277.635389,80.1770331 C277.549372,80.9503679 277.420347,81.6807397 277.33433,81.8311103 C277.248314,81.9599995 277.097784,82.6259267 276.968759,83.3348169 C276.581684,85.805192 275.936559,89.091865 275.37745,91.7770554 C275.205416,92.5503902 274.904358,94.1829859 274.71082,95.4289143 C274.517283,96.6748426 274.237728,98.3074383 274.065695,99.0807731 C273.399065,102.023742 273.119511,103.527448 272.990486,104.558561 C272.925973,105.160044 272.732436,106.363009 272.560402,107.243752 C272.388369,108.124494 272.130318,109.542275 272.022798,110.358573 C271.949069,110.837304 271.805123,111.589595 271.639108,112.374955 L271.511211,112.966417 C271.424191,113.359848 271.334664,113.746516 271.248647,114.096358 C270.947588,115.342286 270.625026,116.974882 270.496001,117.748216 C269.850875,122.130447 269.700346,122.925263 269.485304,123.183042 C269.307895,123.399647 267.160911,123.453798 258.373391,123.461319 L257.133494,123.462067 L256.918657,123.46214 L255.808644,123.462302 C248.43271,123.462302 242.304018,123.376375 242.196497,123.268968 C242.110481,123.183042 241.959951,121.74378 241.895439,120.068221 C241.615884,114.010431 241.271817,107.952642 241.056776,105.847453 C240.927751,104.665969 240.841734,102.195594 240.841734,100.369664 C240.841734,98.5437351 240.734213,95.8800262 240.626692,94.4622457 C240.519171,93.0444652 240.368642,90.5740901 240.304129,88.9844574 C240.196608,86.5892676 240.062207,83.3670392 239.930494,80.0857366 L239.870002,78.569891 C239.759844,75.7934042 239.654868,73.0592131 239.572987,70.8325706 C239.357945,64.8821888 238.927862,59.2969929 238.691316,59.0392146 C238.583795,58.931807 238.433265,59.1251407 238.368753,59.4688451 C238.282736,59.8125495 238.089199,60.3495875 237.917165,60.6718104 C237.745132,60.9725517 237.616107,61.4451452 237.616107,61.7029235 C237.616107,61.9607017 237.508586,62.3688507 237.358056,62.6266289 C237.229031,62.8844072 237.035494,63.4429268 236.949477,63.8510757 C236.239839,67.0088596 235.766747,68.9851597 235.444184,69.9733097 C234.971092,71.4125718 234.562513,72.8088707 234.411983,73.6251686 C234.325967,74.0977621 234.153933,74.8281339 234.003404,75.2362828 C233.925989,75.4811722 233.802125,75.9116619 233.673616,76.3699917 L233.545107,76.8317585 C233.502787,76.9848788 233.461499,77.1352494 233.422791,77.2770275 C233.229253,77.9859177 232.971203,78.8666602 232.885186,79.2103645 C232.777666,79.5755504 232.627136,80.3703668 232.54112,80.9933309 C232.455103,81.6162951 232.326078,82.1748147 232.218557,82.2177777 C232.13254,82.2822223 231.982011,82.7977788 231.895994,83.3562984 C231.831482,83.914818 231.680952,84.4733376 231.594936,84.5807452 C231.401398,84.817042 230.777777,87.0940834 230.498222,88.554827 C230.240172,89.9081629 229.745576,91.884463 229.315492,93.280762 C229.121955,93.9252077 228.863904,94.9992838 228.713375,95.6437295 C228.58435,96.2881752 228.412317,96.9326208 228.347804,97.0400285 C228.261787,97.1689176 228.132762,97.6629926 228.046746,98.1785492 C227.960729,98.6941057 227.767191,99.3815144 227.595158,99.6822558 C227.423124,100.004479 227.294099,100.455591 227.294099,100.713369 C227.294099,100.949666 227.165074,101.57263 226.993041,102.109668 C226.821007,102.625224 226.519949,103.82819 226.326411,104.773377 C225.939336,106.556343 225.767302,107.179307 225.143681,109.177089 C224.928639,109.821535 224.606076,111.131907 224.391035,112.077094 C224.197497,113.022281 223.917943,114.096358 223.745909,114.440062 C223.33733,115.385249 222.864238,117.017845 222.434154,118.843774 C222.111591,120.347481 221.616995,121.829706 220.348248,125.288231 C219.466577,127.715643 219.294544,127.973421 218.584906,127.994903 C218.219334,128.016384 217.316159,127.95194 216.542008,127.887495 C215.767858,127.801569 215.015211,127.67268 214.886186,127.586754 C214.735657,127.500828 213.983011,127.328976 213.165852,127.221568 C210.241283,126.834901 208.671478,126.555641 207.510252,126.276381 C205.209304,125.69638 204.155599,125.460083 202.994374,125.266749 C197.768857,124.42897 192.500333,123.376375 191.640166,123.01119 C191.25309,122.839337 190.629469,122.710448 190.242394,122.710448 C189.855319,122.688967 189.167185,122.560078 188.694093,122.388225 C188.221001,122.216373 187.489858,122.066003 187.081279,122.066003 C186.285624,122.066003 183.963173,121.571927 182.350359,121.077852 C181.812754,120.906 181.210637,120.777111 181.0171,120.777111 C180.457991,120.777111 179.16774,120.111184 179.017211,119.745998 C178.90969,119.445257 179.318269,117.920069 179.898882,116.52377 C180.070916,116.137102 180.199941,115.600064 180.199941,115.299323 C180.199941,115.020063 180.328966,114.525988 180.500999,114.182284 C180.888075,113.387467 181.27515,112.248947 181.468688,111.325241 C181.554704,110.917092 181.748242,110.358573 181.877267,110.100794 C182.027796,109.843016 182.135317,109.413386 182.135317,109.134126 C182.135317,108.854866 182.285846,108.425236 182.45788,108.188939 C182.629913,107.974124 182.780443,107.608938 182.780443,107.372641 C182.780443,107.157826 182.930972,106.534862 183.103005,105.976342 C183.184926,105.72061 183.291228,105.352842 183.401013,104.961183 L183.533089,104.485365 L183.680698,103.946412 C183.704061,103.86081 183.726627,103.778066 183.748131,103.699301 C183.941668,102.99041 184.242727,102.088186 184.41476,101.701519 C184.586794,101.314851 184.715819,100.842258 184.715819,100.670406 C184.715819,100.477072 184.844844,100.068923 185.016878,99.7681819 C185.425457,98.9733655 186.651195,95.1066914 186.651195,94.5911349 C186.651195,94.3548381 186.78022,93.9037261 186.952254,93.5600218 C187.253312,92.9585391 187.597379,91.884463 188.242505,89.5214955 C188.909134,87.1155649 189.29621,85.8696366 189.55426,85.2251909 C189.941335,84.3014854 190.328411,83.1844463 190.500444,82.432593 C190.586461,82.0674071 190.779998,81.573332 190.909023,81.3155538 C191.059553,81.0577755 191.167074,80.6066635 191.167074,80.3274037 C191.167074,80.0266624 191.317603,79.5111059 191.489636,79.188883 C191.66167,78.8451787 191.812199,78.4155482 191.812199,78.2222145 C191.812199,78.0503623 191.898216,77.8140656 192.005737,77.6851764 C192.113258,77.5777688 192.414316,76.6755449 192.650862,75.6873948 C192.908912,74.6992448 193.683063,72.1859066 194.371197,70.1021989 C194.431034,69.9210069 194.491523,69.7377033 194.552251,69.5534746 L194.825768,68.7222048 C195.370511,67.0631928 195.884904,65.4733977 196.070027,64.8177443 C196.328077,64.0014464 196.715153,62.7340366 196.951699,62.0251463 C197.188245,61.3162561 197.57532,60.0058832 197.83337,59.1251407 C198.09142,58.2443983 198.564512,56.7836547 198.887075,55.9029123 C199.209638,55.0221699 199.596713,53.9480937 199.747242,53.5399448 C199.897771,53.1317959 200.112813,52.4443871 200.19883,52.0362382 C200.478384,50.8117914 200.843955,49.6517892 201.38156,48.1695641 C201.661114,47.3962293 202.091198,46.0428933 202.349248,45.1621509 C202.607298,44.2814085 203.015878,43.0139986 203.23092,42.3695529 C204.112591,39.9636224 205.338329,36.1828744 206.004959,33.9917591 C206.37053,32.7458307 206.736101,31.5858285 206.843622,31.4139763 C206.929639,31.2421241 207.381227,29.8887882 207.81131,28.4065631 C208.262898,26.9243381 208.843511,25.0554456 209.123065,24.2176662 C209.214632,23.9390993 209.307809,23.6561065 209.401623,23.3715692 L209.589811,22.8012889 C210.12378,21.1844977 210.657331,19.5797931 211.013147,18.5114855 L211.13106,18.1575621 C211.204364,17.9375998 211.266672,17.7507493 211.315676,17.6038405 L211.378915,17.4142874 C211.387695,17.3879725 211.395572,17.3643675 211.402509,17.3435789 C211.571854,16.8602446 211.859137,16.0113888 212.169099,15.0836136 L212.378056,14.4565502 L212.548451,13.9428699 C212.94377,12.7486798 213.314029,11.6128233 213.46691,11.1139373 C213.983011,9.48134154 214.241061,9.28800783 215.767858,9.28800783 C216.499,9.28800783 217.617217,9.43837849 218.262343,9.61023068 C218.907468,9.78208286 219.810644,9.93245352 220.262232,9.93245352 C220.71382,9.93245352 221.595491,10.0828242 222.197608,10.2761579 C224.593513,10.9957362 234.725023,14.2875074 246.447901,15.7143755 C249.861018,16.1298081 257.053557,45.1621509 259.036942,45.1621509 C261.020328,45.1621509 265.835878,16.3769104 269.801508,15.5108772 C281.857338,12.8780679 292.005409,10.9072522 292.19372,10.813196 C293.053887,10.362084 295.526868,9.67467524 298.51595,9.07319261 C299.526646,8.8798589 299.849209,8.8798589 300.343805,9.1591187 Z M397.306161,31.564347 C397.220145,32.015459 397.069615,33.2613873 396.983599,34.3139819 C396.876078,35.388058 396.704044,36.5480603 396.575019,36.8917646 C396.467498,37.2569505 396.209448,38.8895462 396.01591,40.5436235 C395.822373,42.1977008 395.521314,44.3673346 395.349281,45.3769661 C394.704155,49.1577141 394.553626,50.2962349 394.682651,50.5110501 C394.83318,50.7473468 396.704044,51.1769773 397.650228,51.1769773 C398.015799,51.1769773 398.746942,51.3273479 399.30605,51.4777186 C399.843655,51.6495708 401.112402,52.0577197 402.123098,52.358461 C404.531566,53.1103143 407.391623,54.3347611 408.466832,55.0436514 C411.713963,57.2132852 412.767668,58.0295831 413.993407,59.2110668 C415.86427,61.1014408 417.627613,63.0992224 418.186722,64.0229279 C419.132906,65.6125606 420.831736,69.242938 421.089787,70.2740511 C422.487558,75.7518394 422.616583,78.694808 421.627391,83.1844463 C421.175803,85.2466724 421.089787,85.5044507 420.165107,87.3733432 C418.165218,91.3689064 417.692126,91.9918706 415.025607,94.0111337 C412.939702,95.6007664 411.111846,96.5889165 409.004436,97.2548437 C408.359311,97.4696589 407.477639,97.7704002 407.06906,97.9207709 C405.2197,98.5866981 404.015466,98.8444764 401.800535,99.0592916 C397.951287,99.4244775 395.24176,99.4889221 393.306384,99.2741068 C390.489336,98.9733655 385.11329,98.0926231 384.274627,97.7918818 C382.879245,97.3145146 382.33341,97.1426624 381.866867,97.0349307 L381.694125,96.9970654 C381.393067,96.9326208 380.425379,96.5459534 379.543707,96.116323 L377.930893,95.3215066 L377.952398,93.6029848 C377.973384,91.1921368 378.039881,87.6492384 378.125982,83.9112014 L378.145428,83.0776952 C378.168466,82.1024123 378.192694,81.1186778 378.217658,80.1428187 L378.239226,79.3086775 C378.402181,73.0727951 378.590269,67.3551521 378.68354,66.493303 C378.812565,65.3977454 378.898582,62.6051474 378.898582,60.2636614 C378.920086,57.9221754 379.006103,54.1843905 379.113623,51.9288306 C379.242649,49.6947522 379.414682,44.6251128 379.522203,40.6725126 C379.672732,35.0873167 379.780253,33.454721 380.016799,33.3258318 C380.167328,33.2184242 380.79095,33.1324981 381.371563,33.1324981 C381.97368,33.1324981 382.833847,33.0250905 383.306939,32.8962014 C383.780031,32.7887938 385.865937,32.5954601 387.930338,32.4880525 C392.231174,32.2517557 394.532122,31.8865698 395.822373,31.2421241 C397.19864,30.5332339 397.478195,30.5976784 397.306161,31.564347 Z M493.085788,8.06356104 C498.956429,8.17096865 500.547739,8.38578388 505.042113,9.6317122 C505.64423,9.80356438 506.310859,9.93245352 506.547405,9.93245352 C506.998993,9.93245352 508.52579,10.4265285 509.579495,10.899122 C509.945066,11.0709742 510.310637,11.2213449 510.396654,11.2213449 C510.461167,11.2213449 511.471863,11.6724569 512.611585,12.2309765 C519.213369,15.4317234 524.976489,20.7376595 527.987075,26.3658185 C529.513872,29.2443425 530.094485,30.7480491 530.503064,32.9821275 C530.610585,33.5621286 530.804123,34.1421297 530.911644,34.2925004 C531.019164,34.4213895 531.169694,35.1732428 531.234206,35.9250961 C531.298719,36.6984309 531.449248,38.3954712 531.556769,39.6843626 C531.814819,42.1547377 531.642786,43.9591856 530.99766,46.4510423 C530.825627,47.095488 530.610585,48.0621565 530.524568,48.5991946 C530.352535,49.5229 529.922451,50.5969762 529.363342,51.4992001 C529.179021,51.7856204 528.692373,52.5396657 528.175074,53.336855 L527.863191,53.81695 C527.396368,54.5346708 526.94873,55.2185724 526.718328,55.5592079 C525.385069,57.535508 520.138048,61.6384789 517.170471,63.0132964 C515.213591,63.9370018 512.138493,65.2903378 510.289133,66.0421911 C509.170916,66.5147846 507.472085,67.2666379 506.525901,67.7177498 C504.031416,68.8992336 501.880998,69.8659021 501.751973,69.8659021 C501.278881,69.8659021 498.956429,71.5844239 498.332808,72.4007218 C497.62317,73.3244273 497.580162,73.474798 497.644674,74.7851708 C497.709187,76.1385068 497.730691,76.2029513 498.612362,76.8688786 C499.214479,77.3414721 499.859605,77.5992503 500.633755,77.7066579 C502.09604,77.9214732 505.321667,77.6422134 505.923784,77.255546 C506.181834,77.0836938 506.547405,76.9548046 506.740943,76.9548046 C507.75164,76.9548046 511.514871,74.4844295 513.66529,72.4007218 L514.762003,71.3051642 L515.88022,72.3577588 C516.503842,72.9377599 517.579051,74.1407252 518.24568,75.0214676 C518.933814,75.90221 519.793981,76.9333231 520.159553,77.2770275 C520.525124,77.6422134 521.449804,78.694808 522.20245,79.639995 L522.344427,79.817784 L522.630775,80.1733619 C523.250695,80.9388719 523.850208,81.6512026 524.094818,81.8955549 C524.546406,82.3896299 526.93337,85.1177833 527.664512,85.9985257 C527.901058,86.3207486 527.793537,86.5140823 526.782841,87.60964 C526.137715,88.3185302 524.890473,89.3926063 524.030305,90.0155705 C523.148634,90.6385347 521.858383,91.5622401 521.148745,92.0563152 C519.234873,93.4096511 516.073758,94.9133577 513.51476,95.6866925 C513.106181,95.7941001 512.676097,95.9874338 512.547072,96.0733599 C512.439551,96.159286 512.052476,96.2881752 511.686905,96.3311382 C511.342838,96.3955828 510.074091,96.6963241 508.891361,96.9970654 C505.321667,97.9207709 503.773366,98.2215122 502.762669,98.2215122 C502.225065,98.2215122 500.590747,98.3718829 499.106959,98.5437351 C495.92434,98.9304025 493.81693,98.9089209 490.612807,98.500772 C485.967903,97.9207709 482.312192,97.2118806 480.290799,96.4815089 C478.333919,95.7941001 475.1513,94.1185414 473.624503,92.9800207 C471.904168,91.6696478 469.065616,88.8555683 468.57102,87.9318628 C468.398987,87.60964 467.968903,86.8148236 467.603332,86.1918594 C466.399098,84.0651887 466.012023,83.2918539 466.012023,82.9051865 C465.990518,82.6903712 465.861493,82.2607408 465.68946,81.9385179 C465.130351,80.8214788 464.829293,74.7422078 465.216368,72.3362772 C465.775477,68.7058999 469.345171,62.9918148 472.37726,60.8006995 C472.764336,60.5214397 473.646007,59.834031 474.377149,59.2755114 C476.161996,57.8362494 480.355312,55.645134 484.269073,54.0555013 C485.623836,53.5184633 487.279658,52.7880915 487.924784,52.4658687 C488.569909,52.1436458 489.731135,51.6710523 490.505286,51.3917925 C491.279436,51.1340142 492.010578,50.8547544 492.118099,50.7473468 C492.247124,50.6614207 493.193308,50.2317903 494.225509,49.8021598 C495.25771,49.3725294 496.483448,48.7925283 496.95654,48.4917869 C497.429632,48.1910456 497.902724,47.9547489 498.010245,47.9547489 C498.13927,47.9547489 498.741387,47.4391923 499.386513,46.8377097 C500.91331,45.3340031 501.450914,44.0236302 501.063839,42.6058497 C500.934814,42.0688116 500.633755,41.3814029 500.418714,41.0806616 C498.719883,38.7606571 492.419158,38.5028788 487.602221,40.5436235 C487.395781,40.6338459 487.011286,40.7936684 486.597374,40.962771 L486.17916,41.1327328 C486.040157,41.1889284 485.903391,41.2439211 485.774366,41.2954768 C483.129351,42.3480714 476.312526,46.4510423 474.74272,47.9117858 C474.033082,48.577713 473.516982,48.4058608 473.215923,47.3962293 C473.04389,46.8162282 472.764336,46.1073379 472.11921,44.6251128 C471.538597,43.3362215 471.216035,42.455479 470.828959,41.1880692 C470.613917,40.4791789 470.312859,39.6628811 470.16233,39.3621398 C470.033305,39.0613984 469.732246,38.3954712 469.538708,37.8584332 C469.345171,37.3213951 469.087121,36.741394 468.9796,36.5695418 C468.950569,36.5179861 468.924925,36.4727138 468.900491,36.4282148 L468.852591,36.3386154 C468.733646,36.1090316 468.608653,35.8069477 468.205449,34.7436123 C468.033416,34.2710188 467.753861,33.6050916 467.603332,33.2399058 C467.452803,32.8962014 467.108736,31.9724959 466.829181,31.1991611 C466.012023,28.771749 465.753972,28.1487849 465.216368,27.0102641 C464.936813,26.3873 464.700267,25.8287804 464.700267,25.7428543 C464.700267,25.6354467 464.571242,25.2702608 464.420713,24.9050749 C464.24868,24.5184075 463.990629,23.8309988 463.861604,23.3584053 C463.711075,22.8858118 463.410017,22.1124769 463.216479,21.6398834 C463.001437,21.1672899 462.65737,20.3509921 462.463833,19.813954 C462.248791,19.2769159 461.947732,18.5680257 461.775699,18.2458028 C461.21659,17.1287637 461.367119,16.8709854 463.280991,15.6250571 C464.291688,14.9806114 465.753972,14.142832 466.571131,13.7776461 C467.366786,13.4124602 468.463499,12.9183852 468.9796,12.6820884 C470.914976,11.7798645 475.452358,10.2546764 477.065172,9.95393504 C477.538264,9.86800895 478.269406,9.69615677 478.677986,9.56726763 C479.925228,9.1591187 481.688571,8.83689586 483.68846,8.64356215 C484.742165,8.53615454 486.096928,8.34282083 486.699046,8.21393169 C487.195178,8.09731771 488.35473,8.04005192 490.137389,8.03542231 L490.721,8.03570219 C491.425934,8.03805173 492.214868,8.04744989 493.085788,8.06356104 Z M437.282436,8.42874692 C439.841433,8.90134042 443.174581,9.99689809 444.228286,10.7272699 C444.550849,10.9420851 445.045445,11.2213449 445.325,11.3717155 C445.604554,11.5220862 446.228175,11.8657906 446.722771,12.1235688 C450.378482,14.0783874 456.163107,20.2865475 458.59308,24.8835934 C459.152189,25.936188 459.711297,26.9458196 459.861827,27.1176718 C460.334919,27.7191544 461.431632,30.6406415 462.549849,34.2065743 C464.012134,38.9539908 464.033638,39.0399169 464.270184,40.7584387 C464.377705,41.5962181 464.635755,43.2288139 464.829293,44.4102976 C465.538931,48.6851206 465.388401,57.3636559 464.571242,60.7362549 C464.399209,61.4236637 464.162663,62.5836659 464.055142,63.3140377 C463.345504,67.7607129 463.259487,68.1044173 461.797203,72.121462 C461.367119,73.3029458 460.872523,74.6777632 460.70049,75.1933198 C458.958651,80.1555515 454.657815,86.7933421 450.808566,90.488164 C446.271184,94.8489131 443.47564,96.4600273 438.035082,97.8563263 C434.93848,98.6726242 431.992407,98.8444764 429.54093,98.3933644 C428.960317,98.2859568 427.8421,98.04966 427.067949,97.8778079 C426.293799,97.7059557 425.498144,97.5770665 425.304606,97.5770665 C424.702489,97.5770665 422.014466,96.3526197 421.326333,95.7941001 L420.874745,95.3859512 L421.820929,94.0755783 C423.455247,91.7555739 424.444439,89.994089 424.917531,88.554827 C425.175581,87.7814921 425.519648,86.9007497 425.691681,86.5785269 C425.863715,86.2777855 425.99274,85.7192659 425.99274,85.3325985 C425.99274,84.9674127 426.100261,84.4733376 426.229286,84.2370409 C426.788395,83.1844463 427.239983,76.6755449 426.895916,74.91406 C426.766891,74.3340589 426.551849,73.2170197 426.422824,72.4436849 C426.014244,69.8873836 425.47664,67.9970096 424.917531,67.0303411 C424.788506,66.8155259 424.702489,66.5577476 424.702489,66.4288585 C424.702489,66.3171546 424.353605,65.525844 423.949133,64.6771444 L423.759574,64.2836277 C423.440624,63.6285272 423.11548,62.9961111 422.917642,62.669592 C421.154299,59.7266234 417.477084,55.645134 414.574019,53.4110557 C412.251568,51.6280893 408.316302,49.4584555 405.348725,48.2984532 C404.811121,48.083638 404.058474,47.7828967 403.671399,47.6110445 C403.284324,47.4391923 402.682207,47.3103032 402.316636,47.3103032 C401.972569,47.3103032 401.348948,47.1599325 400.940368,47.0095619 C400.058697,46.6228945 400.058697,46.6228945 400.510284,43.4436291 C400.572842,42.9905642 400.64393,42.4466024 400.715277,41.8840479 L400.821457,41.0353099 C400.908378,40.3314713 400.989241,39.6550696 401.047889,39.1473245 C401.176914,38.0302853 401.370452,36.7628755 401.477973,36.3547266 C401.563989,35.9465776 401.757527,34.8725015 401.908056,33.9917591 C402.273627,31.7576807 402.660703,30.5547154 403.77892,28.1917479 C405.198196,25.2272978 405.305717,25.0124825 406.40243,23.3584053 C408.724882,19.813954 411.154855,17.0643191 414.057919,14.7013516 C414.896582,14.0354244 415.60622,13.4124602 415.670733,13.3480156 C415.735245,13.2620896 416.165329,12.9828298 416.638421,12.7250515 C417.111513,12.4672732 418.079201,11.9302351 418.788839,11.5220862 C419.907057,10.8776405 420.874745,10.3835655 422.874634,9.50282306 C423.347726,9.28800783 425.197085,8.85837738 427.928116,8.32133931 C430.05703,7.91319038 434.809455,7.95615342 437.282436,8.42874692 Z M398.295354,7.99911647 L398.187833,8.79393281 C398.12332,9.24504479 397.951287,10.0398611 397.822262,10.5768992 C397.671732,11.1139373 397.435186,12.0376428 397.284657,12.6176439 C396.919086,13.9709798 395.972902,17.7517278 395.521314,19.5991388 C395.349281,20.3724736 395.112735,21.4895128 395.026718,22.0695139 C394.790172,23.4443314 394.295576,25.3561869 393.951509,26.0650771 C393.413904,27.2250794 391.930116,27.5687837 386.425045,27.8480435 C385.070282,27.9339696 382.554293,28.1273033 380.833958,28.2991555 C380.219553,28.3605313 379.49269,28.430127 378.744471,28.5001142 L377.842189,28.5837857 C376.791172,28.6804525 375.769723,28.771749 375.027829,28.8361936 C369.931338,29.265824 365.888552,29.673973 363.523092,30.0176773 C362.232841,30.211011 360.297464,30.4473078 359.265264,30.5332339 C358.233063,30.61916 357.265375,30.8124937 357.13635,30.9413828 C356.942812,31.1347165 357.007324,31.4354578 357.329887,32.101385 C357.587937,32.6169416 357.932004,33.497684 358.125542,34.0776851 C358.31908,34.6576863 358.706155,35.6243548 358.985709,36.2258374 C359.265264,36.8273201 359.716851,37.8154701 359.974902,38.3954712 C360.211448,38.9969539 360.512506,39.6628811 360.620027,39.8991778 C360.727548,40.1354746 360.985598,40.8658463 361.222144,41.510292 C361.45869,42.1547377 362.039303,43.5080737 362.512395,44.5177052 C363.394066,46.4510423 364.985376,49.9095674 365.350947,50.7688284 C365.458468,51.0480882 365.652006,51.4347556 365.781031,51.6066077 C365.870631,51.7587685 366.1469,52.3398139 366.438725,52.9768007 L366.614318,53.3627222 C366.963761,54.1360571 367.286323,54.88254 367.286323,54.9577253 C367.286323,55.0436514 368.167995,56.9769884 369.243204,59.2540299 C369.587271,59.9629201 369.866825,60.6718104 369.866825,60.8006995 C369.866825,60.9295886 370.060363,61.4021821 370.275405,61.8532941 C370.397262,62.0931711 370.520911,62.3425955 370.64237,62.5925171 L370.822417,62.9666412 C371.354646,64.0833447 371.802202,65.1184856 371.802202,65.2473747 C371.802202,65.3547823 371.952731,65.5910791 372.124764,65.7844128 C372.404319,66.0851541 373.156965,67.9110835 373.759082,69.7584945 C373.913912,70.2096065 373.898429,74.2103253 373.782307,78.4569646 L373.762033,79.1664484 C373.684367,81.7720839 373.570562,84.4010165 373.436519,86.2992671 L373.199973,89.7148292 L372.232285,90.0155705 C371.694681,90.1659412 370.834513,90.3807564 370.296909,90.488164 C366.555181,91.1755727 364.705822,91.5622401 362.555403,92.0992782 C360.27596,92.6577978 359.200751,92.872613 357.716962,93.0444652 C356.878299,93.1518728 355.28699,93.4526142 354.168772,93.7103924 C353.050555,93.9681707 351.695792,94.2474305 351.158187,94.3333566 C350.620582,94.4192827 349.803424,94.6126164 349.330332,94.7415055 C348.85724,94.8703947 347.416459,95.1281729 346.104704,95.3215066 C343.782253,95.665211 342.190943,95.9659523 339.223366,96.610398 C338.406207,96.7822502 337.330998,96.9326208 336.857906,96.9326208 C336.384814,96.9326208 335.653672,97.0185469 335.245092,97.1259546 C333.911833,97.4696589 332.55707,97.5770665 332.191499,97.3622513 C331.997961,97.2333622 331.782919,96.8466948 331.696902,96.5029904 C331.610886,96.159286 331.460356,95.8155817 331.352835,95.7511371 C331.245315,95.665211 331.159298,95.3644697 331.159298,95.0637284 C331.159298,94.5052088 330.686206,92.872613 330.170105,91.6052032 C329.998072,91.2185358 329.869047,90.6814977 329.869047,90.4237194 C329.869047,90.1444596 329.718518,89.7363107 329.546484,89.500014 C329.374451,89.2851987 329.223921,88.9200128 329.223921,88.7266791 C329.223921,88.5118639 329.094896,87.9318628 328.944367,87.4377878 C328.829678,87.0940834 328.657645,86.4544114 328.491983,85.7860974 L328.369927,85.2836684 C328.330303,85.1171866 328.292074,84.9530916 328.256233,84.7955605 C328.041191,83.8503735 327.740133,82.8407419 327.611108,82.5400006 C327.224033,81.7666658 327.030495,79.8118472 327.267041,79.3607352 C327.546595,78.8236971 330.70771,77.5992503 331.761415,77.5992503 C332.019465,77.5992503 332.256011,77.5133242 332.342028,77.4059166 C332.40654,77.298509 332.772111,77.1266568 333.159187,77.0622123 C333.524758,76.9762862 334.664479,76.6540633 335.675176,76.3318405 C336.685873,76.0096176 338.965316,75.2792459 340.728659,74.6992448 C341.864471,74.3438232 343.000282,73.9797025 343.781429,73.7231347 L344.093457,73.6201008 C344.381704,73.5243297 344.595502,73.4513636 344.706932,73.4103534 C345.115512,73.2599827 346.233729,72.9162784 347.179913,72.6585001 C348.126097,72.4007218 349.072281,72.0355359 349.265819,71.8636837 C349.588382,71.5629424 349.588382,71.4770163 349.179802,70.5533109 C348.749719,69.5436793 347.631501,66.2570063 347.287434,65.0325595 C347.179913,64.6888551 346.900359,63.8510757 346.642309,63.2066301 C346.384259,62.5621844 345.975679,61.4021821 345.739133,60.6288473 C345.466747,59.7520829 344.73646,57.7690054 343.960423,55.7725324 L343.714318,55.1428966 C343.467654,54.5153651 343.220755,53.8979702 342.986598,53.3251296 C342.771556,52.7880915 342.448993,51.8858675 342.255456,51.2843849 C341.86838,50.0169751 341.330776,48.4488239 341.072726,47.8473413 C340.621138,46.8162282 340.363088,46.1073379 339.954508,44.8828911 C339.717962,44.1525193 339.373895,43.2717769 339.223366,42.906591 C339.072837,42.5628866 338.750274,41.6391812 338.492224,40.8658463 C337.825594,38.7391756 337.417015,37.6436179 336.836402,36.5050972 C336.556847,35.9250961 336.320301,35.3665765 336.320301,35.2376874 C336.320301,35.1302798 336.191276,34.7221308 336.019243,34.3569449 C335.868714,33.9702775 335.266597,32.2302742 334.707488,30.4473078 C334.148379,28.6858229 333.460245,26.5591522 333.159187,25.7213728 C332.879632,24.9050749 332.535565,23.8309988 332.428045,23.3584053 C332.299019,22.8858118 332.126986,22.4132183 331.997961,22.2843291 C331.89044,22.1769215 331.804423,21.8976617 331.804423,21.6398834 C331.804423,21.4035867 331.675398,21.0169193 331.503365,20.7806225 C331.352835,20.5443258 331.159298,19.9858062 331.073281,19.5132127 C330.987264,19.0621007 330.836735,18.5250626 330.729214,18.3317289 C330.127097,17.1072821 329.395955,11.9731982 329.481972,9.61023068 L329.546484,8.10652408 L363.931671,8.04207951 L398.295354,7.99911647 Z M394.123542,66.901452 C393.886996,67.0088596 393.757971,68.0614542 393.521425,71.9281283 C393.474507,72.6663116 393.430788,73.474798 393.391576,74.2965025 L393.353916,75.1204989 C393.269773,77.0435713 393.212547,78.9350105 393.198863,80.0696255 L393.198863,83.2703723 L394.596634,83.5281506 C395.370785,83.6785213 396.295465,83.7429659 396.639532,83.6785213 C397.005103,83.6140767 397.671732,83.5066691 398.166329,83.420743 C399.951176,83.0985202 401.693014,81.487406 402.445661,79.4466613 C403.026274,77.9214732 403.026274,74.3985034 402.445661,73.0881305 C401.779031,71.5414609 400.080201,69.5436793 398.617916,68.5770108 C397.220145,67.6533053 394.639643,66.7081183 394.123542,66.901452 Z M322.794171,9.03022956 C322.923196,9.45986002 323.116734,9.93245352 323.181246,10.0398611 C323.267263,10.1687503 323.503809,10.8346775 323.718851,11.5435677 C324.148935,12.9828298 324.600522,14.2502396 325.030606,15.1954266 C325.202639,15.5606125 325.546706,16.527281 325.804757,17.3435789 C326.062807,18.1813583 326.363865,18.9332116 326.471386,19.0406192 C326.557403,19.1695083 326.64342,19.3843235 326.64342,19.5561757 C326.64342,19.672534 326.673287,19.8149982 326.765687,20.0721425 L326.828893,20.2408993 C326.971358,20.6087703 327.21328,21.1672899 327.611108,22.0695139 C327.761637,22.4346998 328.105704,23.3369237 328.385258,24.1102586 C328.643309,24.8835934 328.944367,25.5924836 329.051888,25.6998913 C329.137905,25.8287804 329.223921,26.1295217 329.223921,26.3873 C329.223921,26.6450783 329.481972,27.4184131 329.78303,28.0843403 C330.084089,28.771749 330.514172,29.9747143 330.772223,30.7480491 C331.008769,31.5213839 331.331331,32.509534 331.481861,32.9176829 C331.610886,33.3258318 331.868936,34.0132406 332.019465,34.4213895 C332.169994,34.8295384 332.342028,35.4310211 332.385036,35.7532439 C332.449549,36.0754668 332.621582,36.4621342 332.793616,36.5910233 C332.965649,36.7199124 333.094674,37.0421353 333.094674,37.2999136 C333.094674,37.5576918 333.223699,37.9443592 333.374229,38.180656 C333.546262,38.4169527 333.847321,39.1473245 334.062362,39.7917702 C334.2559,40.4362159 334.578463,41.2310322 334.728992,41.5532551 C334.901025,41.8539964 335.030051,42.3051084 335.030051,42.5199236 C335.030051,42.7562204 335.18058,43.1214062 335.352613,43.357703 C335.524647,43.5725182 335.675176,43.9162226 335.675176,44.0880748 C335.675176,44.2599269 335.825705,44.6895574 335.997739,45.0332618 C336.169772,45.3554846 336.320301,45.8495596 336.320301,46.1073379 C336.320301,46.3651162 336.470831,46.7732651 336.642864,47.0095619 C336.814898,47.2243771 336.965427,47.5680815 336.965427,47.7614152 C336.965427,47.9547489 337.223477,48.6851206 337.524536,49.3725294 C337.847098,50.0814196 338.169661,50.9406805 338.255678,51.2843849 C338.513728,52.2295719 339.330887,54.5066133 339.868491,55.7955047 C340.019021,56.1606906 340.320079,56.8695808 340.513617,57.4066189 C340.707155,57.943657 341.008213,58.6955103 341.180247,59.0821777 C341.35228,59.4688451 341.481305,59.9199571 341.481305,60.0918093 C341.481305,60.2421799 341.61033,60.6503288 341.782364,60.9940332 C341.954397,61.3162561 342.233951,61.9821833 342.405985,62.4547768 C342.578018,62.9273703 342.836069,63.657742 342.986598,64.065891 C343.588715,65.7414497 343.739244,66.8370074 343.416681,67.1592303 C342.900581,67.6533053 338.32019,70.0807174 337.911611,70.0807174 C337.80409,70.0807174 336.62136,70.5962739 334.492446,71.5844239 C334.019354,71.7992392 332.772111,72.2718327 331.696902,72.6370186 C328.922863,73.5822056 327.912166,73.9473915 327.460579,74.1836882 C326.944478,74.462948 324.815564,75.0214676 324.320968,75.0214676 C324.12743,75.0214676 323.847876,74.9355415 323.740355,74.8496154 C323.482305,74.6777632 323.009213,73.2385012 322.772667,71.9066468 C322.665146,71.4340533 322.493113,70.7036815 322.342583,70.2955326 C321.224366,67.2021933 320.83729,65.8918204 320.83729,65.2688562 C320.83729,64.9681149 320.708265,64.4095953 320.536232,64.0229279 C320.127652,63.0562594 319.54704,60.9940332 319.54704,60.5214397 C319.54704,60.3066245 319.39651,59.5977342 319.202973,58.931807 C319.009435,58.2658798 318.665368,57.0629145 318.428822,56.2251351 C318.192276,55.4088373 317.934226,54.5280948 317.826705,54.2917981 C317.654672,53.8406861 317.246092,52.1651273 316.966538,50.6399392 C316.880521,50.1673457 316.643975,49.2006772 316.450437,48.4917869 C316.298643,47.9913938 316.01827,46.9558209 315.730334,45.8686189 L315.586296,45.3229541 C315.538446,45.1411241 315.490947,44.9600987 315.444359,44.7821164 L315.375228,44.5177052 C314.988153,43.0354801 314.515061,41.2954768 314.321523,40.6510311 C314.127986,40.0065854 313.762415,38.6102865 313.504364,37.5362103 C313.246314,36.4836157 312.816231,34.7436123 312.515172,33.6695362 C312.235618,32.6169416 311.719517,30.6836045 311.396955,29.3732317 C311.052888,28.0843403 310.6013,26.430263 310.407762,25.7213728 C310.020687,24.3895184 309.848654,23.6806281 309.483082,21.8332171 C309.354057,21.2317345 309.031495,19.9858062 308.773444,19.0406192 C308.515394,18.1169137 308.171327,16.8065408 308.020798,16.1620951 C307.848765,15.5176494 307.612219,14.636907 307.504698,14.2287581 C307.246648,13.2620896 307.590714,12.7250515 308.816453,12.2094949 C309.332553,11.9946797 310.042191,11.6939384 310.364754,11.5220862 C310.708821,11.350234 311.074392,11.2213449 311.203417,11.2213449 C311.310938,11.2213449 311.719517,11.0924557 312.085088,10.9206036 C312.859239,10.5768992 314.321523,10.1043057 316.213891,9.58874915 C317.835921,9.14684354 318.952383,8.83119668 320.037247,8.50653133 L320.57924,8.34282083 C321.998516,7.89170885 322.471608,8.02059799 322.794171,9.03022956 Z M430.616139,34.5502786 C428.680763,35.4525026 426.895916,38.1591745 425.713186,42.0473301 C424.917531,44.5821498 424.465943,50.5754947 424.917531,52.4443871 C425.06806,53.0673513 425.261598,54.1199459 425.347615,54.7858731 C425.498144,55.9458754 425.627169,56.4184689 426.379815,58.3732874 C426.91742,59.7695864 427.906612,61.7888496 428.315192,62.2399615 C428.809788,62.8199626 430.272072,63.9155203 430.938702,64.2162616 C431.755861,64.602929 433.175137,64.5384845 434.207338,64.0873725 C436.852352,62.9273703 439.024274,58.5666211 439.862937,52.6806839 C440.400542,49.0717881 439.991962,43.808815 439.00277,41.4028844 C438.443661,40.028067 438.035082,39.0613984 437.841544,38.7176941 C436.572798,36.2473189 435.669622,35.1947243 434.27185,34.5502786 C432.809566,33.8413884 432.078423,33.8413884 430.616139,34.5502786 Z" id="Combined-Shape" fill="#000000"></path>
                    <path d="M130.62667,122.1316 C130.260408,122.931381 129.646538,124.384023 129.688333,125.055068 C129.731985,125.762191 130.582851,127.218096 131.055043,127.976077 C130.262703,127.625183 128.767898,127.012298 128.091143,127.060394 C127.410657,127.108755 126.003652,127.935491 125.27014,128.394189 C125.614992,127.592118 126.224713,126.060998 126.177129,125.369401 C126.130471,124.682185 125.324598,123.262469 124.872429,122.513864 C125.676026,122.883016 127.213019,123.536736 127.908752,123.482845 C128.568986,123.430841 129.898369,122.611527 130.62667,122.1316 Z M132.802627,108.947031 C133.130847,110.107199 133.780047,112.16754 134.415974,112.822434 C135.085687,113.512893 137.250492,114.240144 138.407709,114.592119 C137.279453,114.952678 135.19429,115.683609 134.537849,116.350767 C133.877789,117.021604 133.154981,119.159207 132.802627,120.302205 C132.450273,119.159207 131.727465,117.021604 131.067405,116.350767 C130.412171,115.683609 128.325801,114.952678 127.197545,114.592119 C128.353555,114.240144 130.51836,113.512893 131.18928,112.822434 C131.825207,112.166313 132.474407,110.107199 132.802627,108.947031 Z M105.244416,110.632822 C105.469674,111.484762 105.918162,112.998581 106.374589,113.485327 C106.855256,113.998498 108.427861,114.55793 109.268975,114.830102 C108.44008,115.078924 106.907367,115.585956 106.419362,116.064912 C105.928665,116.546508 105.373715,118.098996 105.101922,118.92957 C104.858815,118.089862 104.357514,116.518636 103.883654,116.019928 C103.413274,115.523971 101.898024,114.962867 101.078179,114.684797 C101.927244,114.442608 103.518102,113.939296 104.01698,113.443503 C104.489858,112.972347 104.99004,111.476253 105.244416,110.632822 Z M23.2408648,0.00446323376 L24.1574291,0.00511010681 C31.0078431,0.0150967634 33.8462392,0.142273777 36.0745128,0.494456277 C37.7353378,0.770077364 40.6644292,1.19882128 42.5668288,1.47444236 C44.4692284,1.75006345 46.6433994,2.11755823 47.3983198,2.30130563 C48.1532403,2.48505302 49.5724908,2.73004954 50.5689858,2.8525478 C51.5654808,2.97504606 52.9847313,3.22004258 53.7396518,3.40378997 C54.4945722,3.58753737 56.1855941,3.95503215 57.5142541,4.23065323 C59.9299996,4.75127084 62.0739737,5.24126389 64.6105065,5.91500432 C65.365427,6.09875171 66.5129061,6.3743728 67.1772361,6.49687106 C67.8415661,6.64999389 69.4721943,7.04811324 70.8008544,7.44623258 C75.0705441,8.63702963 76.2980799,8.96682755 77.2343981,9.19650928 L77.3802188,9.23205376 C77.4523202,9.24952094 77.5235089,9.26661372 77.5951386,9.2837065 C78.1688781,9.43682932 79.0747827,9.68182584 79.5579318,9.83494867 C80.0712777,10.0186961 81.8830868,10.6005628 83.6345023,11.1211804 C85.0523149,11.5426328 86.5294939,12.0042234 87.2971016,12.246009 L87.5373067,12.321795 C87.6067192,12.3437325 87.6650587,12.3622045 87.7110729,12.3767876 C88.2244188,12.560535 89.0397329,12.8361561 89.522882,12.9586543 C90.213095,13.1664639 91.1498126,13.4680221 92.1115659,13.7893903 L92.6898504,13.9839969 C94.2305044,14.5061324 95.7218575,15.0411248 96.2567726,15.2861213 C96.8003153,15.5004932 97.0873617,15.5975209 97.6087623,15.763379 C98.1301629,15.9292372 98.3104933,15.9292372 98.8673197,16.179176 C99.424146,16.4291148 99.8973222,16.51722 100.284976,16.6672848 C100.672629,16.8173495 101.1282,16.8803621 101.671743,17.1253586 C102.215285,17.3703551 103.051057,17.7054619 103.715387,17.9504585 C104.379717,18.195455 105.466802,18.6241989 106.131132,18.8691954 C106.795462,19.1448165 108.637468,19.8491815 110.207703,20.4922974 C111.777937,21.1047887 112.589723,21.4290049 113.095903,21.6863865 C113.602082,21.943768 113.957965,22.0139044 114.649563,22.3096484 C114.972309,22.4476622 115.072102,22.4835161 115.120503,22.5001213 L115.153404,22.5115741 C115.181723,22.5221805 115.208296,22.5360491 115.341162,22.6053924 C115.673327,22.7787504 115.859261,22.9142837 116.375316,23.1053082 C116.89137,23.2963326 119.568717,24.3816172 123.645287,26.2803402 C124.596944,26.7257884 126.712774,27.7831655 128.850114,28.8695574 L129.650393,29.2771759 C131.642453,30.2939299 133.527882,31.2721443 134.365158,31.7315128 C135.452243,32.3440041 136.660116,33.0177445 137.082872,33.2321165 C137.440658,33.4372083 138.96844,34.3574919 140.543332,35.3147173 L141.099304,35.6529911 C142.392604,36.4407217 143.628261,37.1993897 144.179124,37.5501802 C144.481092,37.7339276 146.323098,39.112033 148.255694,40.5513876 C153.781712,44.7775776 156.891985,48.0850306 158.824581,51.8518522 C159.730486,53.5974524 160,54.1063274 160,56.2806716 C160,58.0858038 159.790879,58.8955022 159.21714,59.6304917 C157.193953,62.2029552 150.460062,63.2135659 142.367315,62.1110815 C140.555506,61.866085 139.002749,61.7618412 138.206335,61.6394659 C137.409921,61.5170907 136.547904,61.4099914 135.533805,61.32757 C134.519707,61.2451486 134.241882,61.2202779 133.364745,61.0827621 C132.487608,60.9452463 131.004355,60.7329761 130.067938,60.4747223 C129.13152,60.2164685 126.513985,59.5692426 120.172653,58.2523863 C119.266748,58.0686389 118.055741,57.721036 117.153182,57.4660935 C116.250623,57.2111511 115.605597,57.2111511 115.008997,57.0580282 C114.412397,56.9049054 114.012502,56.8742809 113.710534,56.6599089 C113.227385,56.2924141 113.197188,56.0474176 113.499156,53.9955717 C113.680337,52.7399646 113.921912,51.3618591 114.042699,50.9637398 C114.22388,50.2593748 114.193683,50.2593748 113.619943,50.6574941 C113.287778,50.9024906 112.079906,52.1887224 110.932426,53.5362032 C109.784947,54.8836841 108.365697,56.5374106 107.761761,57.2111511 C107.157824,57.8848915 106.25192,58.9261267 105.798967,59.5079935 L105.556554,59.8016207 C105.15393,60.2914719 104.772275,60.7636006 104.621291,60.9167235 C104.470307,61.1004709 103.171844,62.6010746 101.752594,64.2548011 C100.333343,65.9085276 98.5517308,67.990998 97.7968103,68.8178613 C97.3527395,69.3222659 96.626553,70.1551693 95.8702496,71.0360697 L95.4148695,71.5681255 C95.0357344,72.0125651 94.66167,72.4549788 94.3241762,72.8603039 C93.1766971,74.2077848 91.3044943,76.4127535 90.1268184,77.7602343 C88.9793392,79.1077152 87.3789079,80.9758137 86.6239874,81.8945506 C85.8388701,82.782663 84.1780451,84.7120106 82.9399755,86.1513652 C81.7019059,87.5907198 80.7356077,88.8769515 80.8261982,89.0300743 C80.8928394,89.1145559 81.5109945,89.161749 82.5031648,89.1665106 L82.8924139,89.1662971 C83.636908,89.1622224 84.5476958,89.1377883 85.5670987,89.0913235 C95.5622457,88.5707059 100.937279,88.4482076 106.34251,88.6013304 C111.385379,88.7544533 112.049709,88.846327 112.623448,89.3669446 C112.98581,89.7038148 113.408566,90.255057 113.55955,90.5919272 C113.710534,90.9287974 114.284273,92.0312817 114.858013,93.0418924 C115.431752,94.052503 116.609428,96.3187209 117.454939,98.0949456 C118.30045,99.8711704 119.145961,101.524897 119.296945,101.769893 C119.348711,101.859142 119.390716,101.930391 119.431021,102.003543 L119.471059,102.078066 L119.528474,102.192644 C119.700895,102.551282 119.950506,103.199684 120.806786,105.444841 L120.90365,105.681793 L121.099325,106.160003 C121.523607,107.195346 121.939167,108.19531 122.135446,108.568547 C122.618595,109.39541 122.709186,110.406021 122.407218,110.742891 C122.022894,111.104818 116.297977,106.835095 110.382486,101.845201 L109.790492,101.343956 C109.395661,101.008385 109.000745,100.670193 108.607271,100.330539 C107.218218,99.1055563 105.949951,98.0949456 105.859361,98.0949456 C105.832939,98.0949456 105.705369,98.1623556 105.494985,98.2859557 L105.294802,98.4053979 C104.452968,98.9140032 102.773624,99.9946257 100.907083,101.249276 C94.8657388,105.261596 93.6991889,106.034016 92.9663505,106.4134 L92.8864832,106.454081 C92.8210384,106.486875 92.7579018,106.517203 92.693548,106.547326 C92.4519734,106.669824 92.0292179,106.945445 91.7876434,107.129192 C91.5460688,107.343564 90.3985897,108.047929 89.2209138,108.691045 C88.0734347,109.334161 86.2918224,110.314147 85.2953274,110.865389 C83.5137151,111.845375 83.3023373,111.937249 82.4266296,112.304744 C82.185055,112.396618 81.7622996,112.61099 81.520725,112.764112 C81.2791505,112.917235 80.1316714,113.499102 78.9539954,114.01972 C77.8065163,114.570962 76.4778563,115.183453 76.024904,115.42845 C75.0586058,115.949067 75.028409,115.949067 74.5754567,115.397825 C74.364079,115.152828 74.0923076,114.938457 73.9413235,114.938457 C73.7903394,114.938457 73.0958126,114.570962 72.3710889,114.111593 C71.6765621,113.6216 70.9518385,113.192856 70.8008544,113.100983 C70.2436512,112.827549 68.1671919,111.360556 65.9980081,109.746306 L65.4763541,109.356594 C64.1714201,108.377925 62.8741894,107.376376 61.8927928,106.57795 C60.818569,105.700613 59.4779897,104.486374 58.1376875,103.205643 L57.6650854,102.7513 C54.9133719,100.089995 52.2957965,97.2816933 52.1392204,96.6862156 C52.0486299,96.3493454 51.7466617,95.1549874 51.4748904,93.9606293 C51.203119,92.7968959 50.8407572,91.3575413 50.6595762,90.8062991 C50.5085922,90.2244324 50.2670176,89.0606989 50.1160335,88.2032111 C49.9952462,87.3150987 49.7536717,85.9982424 49.5724908,85.2326283 C49.3913099,84.4670141 49.028948,82.7520385 48.7873735,81.4045576 C48.5457989,80.0570767 48.1230435,77.8827326 47.8814689,76.5658763 C47.6096976,75.24902 47.3983198,73.6565426 47.3983198,73.0440513 C47.3983198,72.4009354 47.2171389,71.1759528 46.9755644,70.3490896 C46.7339898,69.5222263 46.4924153,67.6235033 46.4018248,66.092275 C46.3112343,64.5916713 46.0998566,62.7235728 45.9186757,61.9579587 C45.631202,60.666827 45.2630531,56.1596206 44.9858396,51.5491137 L44.9378985,50.7350561 C44.7345468,47.2083174 44.5902751,43.7282462 44.5818242,41.6868157 L44.58185,41.3212463 C44.5857116,40.509175 44.6164882,39.9891206 44.6806061,39.8776472 C44.8828546,39.5956163 45.6777381,39.4853082 48.7309351,39.474839 L49.8345936,39.4749484 C50.1325609,39.4758509 50.4474963,39.4773912 50.7803635,39.4795278 C56.6083495,39.4795278 61.0170851,39.9695209 64.9426715,41.0107561 C65.8485761,41.225128 66.8224562,41.3378079 67.8631106,41.6183382 C68.4577702,41.7786412 68.7834192,41.8336586 69.0752698,41.8828374 L69.2914958,41.9201807 C69.4363218,41.9464182 69.587399,41.9774115 69.7741289,42.0255914 C70.4276834,42.1942214 70.8644918,42.299777 71.8506949,42.465997 C72.8368981,42.6322169 72.6428603,42.5419843 73.3977808,42.7869809 C74.1225044,43.0013528 75.6021485,43.4300967 76.689234,43.7363424 C77.7763195,44.0119635 78.6369461,44.3577706 79.3314729,44.5486573 C80.0259997,44.739544 80.6943923,44.9884199 81.3697409,45.1144478 C82.0450895,45.2404757 82.6692917,45.5228863 83.292901,45.6732303 C84.4401093,46.0758684 87.8922538,47.2887919 89.8248502,47.8706587 C91.9688243,48.48315 97.2230708,50.4431222 98.521534,51.1168626 C99.0046831,51.3618591 99.6034019,51.514366 99.9433189,51.646647 C100.283236,51.7789281 100.360132,51.7789281 100.672629,51.9486112 C100.985127,52.1182944 101.088264,52.1580978 101.329838,52.1580978 C102.084759,52.1580978 100.967476,50.3512485 99.0650767,48.5137746 C97.3740549,46.8906726 94.0826016,44.1957109 93.7806334,44.1957109 C93.690043,44.1957109 93.1163034,43.8282161 92.4821702,43.3994722 C91.848037,42.9707282 91.0629197,42.4807352 90.7307547,42.3276124 C90.3985897,42.1744895 89.6738661,41.7763702 89.1303233,41.4395 C88.1152457,40.8164079 85.9068353,39.666084 83.709672,38.5768249 L83.1375462,38.2944424 C80.5712562,37.033436 78.1648132,35.9270782 77.8669099,35.9270782 C77.685729,35.9270782 77.1723831,35.7433309 76.7496277,35.4983343 C76.2966754,35.2839624 75.4511644,34.9164676 74.8774249,34.7327202 C74.4471202,34.5719412 73.4562871,34.2044464 72.4272361,33.8111122 L71.9119439,33.6131292 C71.7407303,33.5469753 71.5708732,33.4809411 71.4047907,33.4158639 C70.0761307,32.9258709 68.5964866,32.4358778 68.0831407,32.3440041 C67.5999916,32.2521304 66.9960552,32.0377585 66.7846775,31.8540111 C66.5732997,31.7008882 65.9089697,31.4558917 65.2748365,31.3333935 C64.6709002,31.2108952 63.0704688,30.7821513 61.7418087,30.4146565 C60.4131487,30.0165372 58.7825205,29.6184178 58.1181905,29.465295 C51.4446935,28.056565 48.0626498,27.5971965 45.4355266,27.7196948 L43.0197811,27.8115685 L42.9291906,28.9446774 C42.868797,29.5571687 43.0499779,30.7821513 43.2915525,31.6702637 C43.7747016,33.3239902 43.9256857,35.6208326 43.5633238,35.6208326 C43.1707652,35.6208326 40.543642,34.7020956 37.7353378,33.6302359 C36.9804174,33.3546148 35.8631351,32.9258709 35.2591987,32.6808743 C32.4810914,31.6396391 31.6959741,31.3333935 29.4312127,30.4146565 C28.1025526,29.8940389 26.6229085,29.250923 26.1095626,29.0365511 C25.6264135,28.8221791 24.4487376,28.3321861 23.542833,27.9646913 C22.0866753,27.3692136 20.1190357,26.4773204 18.1194284,25.5231594 L17.2618947,25.1111035 C14.4062449,23.7294273 11.6251552,22.2889385 10.3166264,21.4722835 C9.28993455,20.8291676 8.35383317,20.30855 8.26324272,20.30855 C7.93107771,20.30855 4.33765628,17.4298408 3.4015549,16.3886056 C-0.79580291,11.7642963 -1.0977711,8.15059758 2.4352567,4.62877258 C3.43175172,3.6487865 4.48864037,2.8525478 4.82080538,2.8525478 C5.08502754,2.8525478 5.37236915,2.75876007 5.52099411,2.61221674 L5.57572585,2.54630215 C5.6663163,2.39317932 6.66281132,1.99505997 7.78009362,1.65818976 C8.89737591,1.32131954 10.6185946,0.831326495 11.6150896,0.525080843 C11.694932,0.501723123 11.7746964,0.479315549 11.8553037,0.45782591 L12.017915,0.416061005 C13.2184302,0.119660445 14.7301567,0.0147530884 19.4284244,0.000785158139 L21.6029007,3.22669409e-15 C22.1182823,0.000873798939 22.6635426,0.00238699205 23.2408648,0.00446323376 Z M89.2232642,95.5130018 C88.9680557,96.345896 88.4662348,97.8232978 87.9918077,98.2885681 C87.4912958,98.7781671 85.8952273,99.2751908 85.0433811,99.5143541 C85.8659115,99.7889502 87.3861249,100.343043 87.8580451,100.832804 C88.3334573,101.325282 88.8364005,102.876878 89.0803037,103.706095 C89.3529874,102.885898 89.909755,101.352806 90.4020587,100.877226 C90.8916624,100.404254 92.4293959,99.9035566 93.2610051,99.6578439 C92.4171371,99.3890713 90.8393805,98.8366288 90.3571389,98.3298697 C89.8992173,97.8492045 89.4492599,96.3542984 89.2232642,95.5130018 Z" id="Shape" fill="#306EE2" transform="translate(80, 64.1971) rotate(360) translate(-80, -64.1971)"></path>
                </g>
            </g>
        </g>
    </g>
</svg>