<svg xmlns="http://www.w3.org/2000/svg" viewBox="0 0 160 128.394189" role="img" aria-hidden="true">
  <g transform="translate(80 64.1970945) scale(1 -1) translate(-80 -64.1970945)">
    <path d="M130.62667,122.1316 C130.260408,122.931381 129.646538,124.384023 129.688333,125.055068 C129.731985,125.762191 130.582851,127.218096 131.055043,127.976077 C130.262703,127.625183 128.767898,127.012298 128.091143,127.060394 C127.410657,127.108755 126.003652,127.935491 125.27014,128.394189 C125.614992,127.592118 126.224713,126.060998 126.177129,125.369401 C126.130471,124.682185 125.324598,123.262469 124.872429,122.513864 C125.676026,122.883016 127.213019,123.536736 127.908752,123.482845 C128.568986,123.430841 129.898369,122.611527 130.62667,122.1316 Z M132.802627,108.947031 C133.130847,110.107199 133.780047,112.16754 134.415974,112.822434 C135.085687,113.512893 137.250492,114.240144 138.407709,114.592119 C137.279453,114.952678 135.19429,115.683609 134.537849,116.350767 C133.877789,117.021604 133.154981,119.159207 132.802627,120.302205 C132.450273,119.159207 131.727465,117.021604 131.067405,116.350767 C130.412171,115.683609 128.325801,114.952678 127.197545,114.592119 C128.353555,114.240144 130.51836,113.512893 131.18928,112.822434 C131.825207,112.166313 132.474407,110.107199 132.802627,108.947031 Z M105.244416,110.632822 C105.469674,111.484762 105.918162,112.998581 106.374589,113.485327 C106.855256,113.998498 108.427861,114.55793 109.268975,114.830102 C108.44008,115.078924 106.907367,115.585956 106.419362,116.064912 C105.928665,116.546508 105.373715,118.098996 105.101922,118.92957 C104.858815,118.089862 104.357514,116.518636 103.883654,116.019928 C103.413274,115.523971 101.898024,114.962867 101.078179,114.684797 C101.927244,114.442608 103.518102,113.939296 104.01698,113.443503 C104.489858,112.972347 104.99004,111.476253 105.244416,110.632822 Z M23.2408648,0.00446323376 L24.1574291,0.00511010681 C31.0078431,0.0150967634 33.8462392,0.142273777 36.0745128,0.494456277 C37.7353378,0.770077364 40.6644292,1.19882128 42.5668288,1.47444236 C44.4692284,1.75006345 46.6433994,2.11755823 47.3983198,2.30130563 C48.1532403,2.48505302 49.5724908,2.73004954 50.5689858,2.8525478 C51.5654808,2.97504606 52.9847313,3.22004258 53.7396518,3.40378997 C54.4945722,3.58753737 56.1855941,3.95503215 57.5142541,4.23065323 C59.9299996,4.75127084 62.0739737,5.24126389 64.6105065,5.91500432 C65.365427,6.09875171 66.5129061,6.3743728 67.1772361,6.49687106 C67.8415661,6.64999389 69.4721943,7.04811324 70.8008544,7.44623258 C75.0705441,8.63702963 76.2980799,8.96682755 77.2343981,9.19650928 L77.3802188,9.23205376 C77.4523202,9.24952094 77.5235089,9.26661372 77.5951386,9.2837065 C78.1688781,9.43682932 79.0747827,9.68182584 79.5579318,9.83494867 C80.0712777,10.0186961 81.8830868,10.6005628 83.6345023,11.1211804 C85.0523149,11.5426328 86.5294939,12.0042234 87.2971016,12.246009 L87.5373067,12.321795 C87.6067192,12.3437325 87.6650587,12.3622045 87.7110729,12.3767876 C88.2244188,12.560535 89.0397329,12.8361561 89.522882,12.9586543 C90.213095,13.1664639 91.1498126,13.4680221 92.1115659,13.7893903 L92.6898504,13.9839969 C94.2305044,14.5061324 95.7218575,15.0411248 96.2567726,15.2861213 C96.8003153,15.5004932 97.0873617,15.5975209 97.6087623,15.763379 C98.1301629,15.9292372 98.3104933,15.9292372 98.8673197,16.179176 C99.424146,16.4291148 99.8973222,16.51722 100.284976,16.6672848 C100.672629,16.8173495 101.1282,16.8803621 101.671743,17.1253586 C102.215285,17.3703551 103.051057,17.7054619 103.715387,17.9504585 C104.379717,18.195455 105.466802,18.6241989 106.131132,18.8691954 C106.795462,19.1448165 108.637468,19.8491815 110.207703,20.4922974 C111.777937,21.1047887 112.589723,21.4290049 113.095903,21.6863865 C113.602082,21.943768 113.957965,22.0139044 114.649563,22.3096484 C114.972309,22.4476622 115.072102,22.4835161 115.120503,22.5001213 L115.153404,22.5115741 C115.181723,22.5221805 115.208296,22.5360491 115.341162,22.6053924 C115.673327,22.7787504 115.859261,22.9142837 116.375316,23.1053082 C116.89137,23.2963326 119.568717,24.3816172 123.645287,26.2803402 C124.596944,26.7257884 126.712774,27.7831655 128.850114,28.8695574 L129.650393,29.2771759 C131.642453,30.2939299 133.527882,31.2721443 134.365158,31.7315128 C135.452243,32.3440041 136.660116,33.0177445 137.082872,33.2321165 C137.440658,33.4372083 138.96844,34.3574919 140.543332,35.3147173 L141.099304,35.6529911 C142.392604,36.4407217 143.628261,37.1993897 144.179124,37.5501802 C144.481092,37.7339276 146.323098,39.112033 148.255694,40.5513876 C153.781712,44.7775776 156.891985,48.0850306 158.824581,51.8518522 C159.730486,53.5974524 160,54.1063274 160,56.2806716 C160,58.0858038 159.790879,58.8955022 159.21714,59.6304917 C157.193953,62.2029552 150.460062,63.2135659 142.367315,62.1110815 C140.555506,61.866085 139.002749,61.7618412 138.206335,61.6394659 C137.409921,61.5170907 136.547904,61.4099914 135.533805,61.32757 C134.519707,61.2451486 134.241882,61.2202779 133.364745,61.0827621 C132.487608,60.9452463 131.004355,60.7329761 130.067938,60.4747223 C129.13152,60.2164685 126.513985,59.5692426 120.172653,58.2523863 C119.266748,58.0686389 118.055741,57.721036 117.153182,57.4660935 C116.250623,57.2111511 115.605597,57.2111511 115.008997,57.0580282 C114.412397,56.9049054 114.012502,56.8742809 113.710534,56.6599089 C113.227385,56.2924141 113.197188,56.0474176 113.499156,53.9955717 C113.680337,52.7399646 113.921912,51.3618591 114.042699,50.9637398 C114.22388,50.2593748 114.193683,50.2593748 113.619943,50.6574941 C113.287778,50.9024906 112.079906,52.1887224 110.932426,53.5362032 C109.784947,54.8836841 108.365697,56.5374106 107.761761,57.2111511 C107.157824,57.8848915 106.25192,58.9261267 105.798967,59.5079935 L105.556554,59.8016207 C105.15393,60.2914719 104.772275,60.7636006 104.621291,60.9167235 C104.470307,61.1004709 103.171844,62.6010746 101.752594,64.2548011 C100.333343,65.9085276 98.5517308,67.990998 97.7968103,68.8178613 C97.3527395,69.3222659 96.626553,70.1551693 95.8702496,71.0360697 L95.4148695,71.5681255 C95.0357344,72.0125651 94.66167,72.4549788 94.3241762,72.8603039 C93.1766971,74.2077848 91.3044943,76.4127535 90.1268184,77.7602343 C88.9793392,79.1077152 87.3789079,80.9758137 86.6239874,81.8945506 C85.8388701,82.782663 84.1780451,84.7120106 82.9399755,86.1513652 C81.7019059,87.5907198 80.7356077,88.8769515 80.8261982,89.0300743 C80.8928394,89.1145559 81.5109945,89.161749 82.5031648,89.1665106 L82.8924139,89.1662971 C83.636908,89.1622224 84.5476958,89.1377883 85.5670987,89.0913235 C95.5622457,88.5707059 100.937279,88.4482076 106.34251,88.6013304 C111.385379,88.7544533 112.049709,88.846327 112.623448,89.3669446 C112.98581,89.7038148 113.408566,90.255057 113.55955,90.5919272 C113.710534,90.9287974 114.284273,92.0312817 114.858013,93.0418924 C115.431752,94.052503 116.609428,96.3187209 117.454939,98.0949456 C118.30045,99.8711704 119.145961,101.524897 119.296945,101.769893 C119.348711,101.859142 119.390716,101.930391 119.431021,102.003543 L119.471059,102.078066 L119.528474,102.192644 C119.700895,102.551282 119.950506,103.199684 120.806786,105.444841 L120.90365,105.681793 L121.099325,106.160003 C121.523607,107.195346 121.939167,108.19531 122.135446,108.568547 C122.618595,109.39541 122.709186,110.406021 122.407218,110.742891 C122.022894,111.104818 116.297977,106.835095 110.382486,101.845201 L109.790492,101.343956 C109.395661,101.008385 109.000745,100.670193 108.607271,100.330539 C107.218218,99.1055563 105.949951,98.0949456 105.859361,98.0949456 C105.832939,98.0949456 105.705369,98.1623556 105.494985,98.2859557 L105.294802,98.4053979 C104.452968,98.9140032 102.773624,99.9946257 100.907083,101.249276 C94.8657388,105.261596 93.6991889,106.034016 92.9663505,106.4134 L92.8864832,106.454081 C92.8210384,106.486875 92.7579018,106.517203 92.693548,106.547326 C92.4519734,106.669824 92.0292179,106.945445 91.7876434,107.129192 C91.5460688,107.343564 90.3985897,108.047929 89.2209138,108.691045 C88.0734347,109.334161 86.2918224,110.314147 85.2953274,110.865389 C83.5137151,111.845375 83.3023373,111.937249 82.4266296,112.304744 C82.185055,112.396618 81.7622996,112.61099 81.520725,112.764112 C81.2791505,112.917235 80.1316714,113.499102 78.9539954,114.01972 C77.8065163,114.570962 76.4778563,115.183453 76.024904,115.42845 C75.0586058,115.949067 75.028409,115.949067 74.5754567,115.397825 C74.364079,115.152828 74.0923076,114.938457 73.9413235,114.938457 C73.7903394,114.938457 73.0958126,114.570962 72.3710889,114.111593 C71.6765621,113.6216 70.9518385,113.192856 70.8008544,113.100983 C70.2436512,112.827549 68.1671919,111.360556 65.9980081,109.746306 L65.4763541,109.356594 C64.1714201,108.377925 62.8741894,107.376376 61.8927928,106.57795 C60.818569,105.700613 59.4779897,104.486374 58.1376875,103.205643 L57.6650854,102.7513 C54.9133719,100.089995 52.2957965,97.2816933 52.1392204,96.6862156 C52.0486299,96.3493454 51.7466617,95.1549874 51.4748904,93.9606293 C51.203119,92.7968959 50.8407572,91.3575413 50.6595762,90.8062991 C50.5085922,90.2244324 50.2670176,89.0606989 50.1160335,88.2032111 C49.9952462,87.3150987 49.7536717,85.9982424 49.5724908,85.2326283 C49.3913099,84.4670141 49.028948,82.7520385 48.7873735,81.4045576 C48.5457989,80.0570767 48.1230435,77.8827326 47.8814689,76.5658763 C47.6096976,75.24902 47.3983198,73.6565426 47.3983198,73.0440513 C47.3983198,72.4009354 47.2171389,71.1759528 46.9755644,70.3490896 C46.7339898,69.5222263 46.4924153,67.6235033 46.4018248,66.092275 C46.3112343,64.5916713 46.0998566,62.7235728 45.9186757,61.9579587 C45.631202,60.666827 45.2630531,56.1596206 44.9858396,51.5491137 L44.9378985,50.7350561 C44.7345468,47.2083174 44.5902751,43.7282462 44.5818242,41.6868157 L44.58185,41.3212463 C44.5857116,40.509175 44.6164882,39.9891206 44.6806061,39.8776472 C44.8828546,39.5956163 45.6777381,39.4853082 48.7309351,39.474839 L49.8345936,39.4749484 C50.1325609,39.4758509 50.4474963,39.4773912 50.7803635,39.4795278 C56.6083495,39.4795278 61.0170851,39.9695209 64.9426715,41.0107561 C65.8485761,41.225128 66.8224562,41.3378079 67.8631106,41.6183382 C68.4577702,41.7786412 68.7834192,41.8336586 69.0752698,41.8828374 L69.2914958,41.9201807 C69.4363218,41.9464182 69.587399,41.9774115 69.7741289,42.0255914 C70.4276834,42.1942214 70.8644918,42.299777 71.8506949,42.465997 C72.8368981,42.6322169 72.6428603,42.5419843 73.3977808,42.7869809 C74.1225044,43.0013528 75.6021485,43.4300967 76.689234,43.7363424 C77.7763195,44.0119635 78.6369461,44.3577706 79.3314729,44.5486573 C80.0259997,44.739544 80.6943923,44.9884199 81.3697409,45.1144478 C82.0450895,45.2404757 82.6692917,45.5228863 83.292901,45.6732303 C84.4401093,46.0758684 87.8922538,47.2887919 89.8248502,47.8706587 C91.9688243,48.48315 97.2230708,50.4431222 98.521534,51.1168626 C99.0046831,51.3618591 99.6034019,51.514366 99.9433189,51.646647 C100.283236,51.7789281 100.360132,51.7789281 100.672629,51.9486112 C100.985127,52.1182944 101.088264,52.1580978 101.329838,52.1580978 C102.084759,52.1580978 100.967476,50.3512485 99.0650767,48.5137746 C97.3740549,46.8906726 94.0826016,44.1957109 93.7806334,44.1957109 C93.690043,44.1957109 93.1163034,43.8282161 92.4821702,43.3994722 C91.848037,42.9707282 91.0629197,42.4807352 90.7307547,42.3276124 C90.3985897,42.1744895 89.6738661,41.7763702 89.1303233,41.4395 C88.1152457,40.8164079 85.9068353,39.666084 83.709672,38.5768249 L83.1375462,38.2944424 C80.5712562,37.033436 78.1648132,35.9270782 77.8669099,35.9270782 C77.685729,35.9270782 77.1723831,35.7433309 76.7496277,35.4983343 C76.2966754,35.2839624 75.4511644,34.9164676 74.8774249,34.7327202 C74.4471202,34.5719412 73.4562871,34.2044464 72.4272361,33.8111122 L71.9119439,33.6131292 C71.7407303,33.5469753 71.5708732,33.4809411 71.4047907,33.4158639 C70.0761307,32.9258709 68.5964866,32.4358778 68.0831407,32.3440041 C67.5999916,32.2521304 66.9960552,32.0377585 66.7846775,31.8540111 C66.5732997,31.7008882 65.9089697,31.4558917 65.2748365,31.3333935 C64.6709002,31.2108952 63.0704688,30.7821513 61.7418087,30.4146565 C60.4131487,30.0165372 58.7825205,29.6184178 58.1181905,29.465295 C51.4446935,28.056565 48.0626498,27.5971965 45.4355266,27.7196948 L43.0197811,27.8115685 L42.9291906,28.9446774 C42.868797,29.5571687 43.0499779,30.7821513 43.2915525,31.6702637 C43.7747016,33.3239902 43.9256857,35.6208326 43.5633238,35.6208326 C43.1707652,35.6208326 40.543642,34.7020956 37.7353378,33.6302359 C36.9804174,33.3546148 35.8631351,32.9258709 35.2591987,32.6808743 C32.4810914,31.6396391 31.6959741,31.3333935 29.4312127,30.4146565 C28.1025526,29.8940389 26.6229085,29.250923 26.1095626,29.0365511 C25.6264135,28.8221791 24.4487376,28.3321861 23.542833,27.9646913 C22.0866753,27.3692136 20.1190357,26.4773204 18.1194284,25.5231594 L17.2618947,25.1111035 C14.4062449,23.7294273 11.6251552,22.2889385 10.3166264,21.4722835 C9.28993455,20.8291676 8.35383317,20.30855 8.26324272,20.30855 C7.93107771,20.30855 4.33765628,17.4298408 3.4015549,16.3886056 C-0.79580291,11.7642963 -1.0977711,8.15059758 2.4352567,4.62877258 C3.43175172,3.6487865 4.48864037,2.8525478 4.82080538,2.8525478 C5.08502754,2.8525478 5.37236915,2.75876007 5.52099411,2.61221674 L5.57572585,2.54630215 C5.6663163,2.39317932 6.66281132,1.99505997 7.78009362,1.65818976 C8.89737591,1.32131954 10.6185946,0.831326495 11.6150896,0.525080843 C11.694932,0.501723123 11.7746964,0.479315549 11.8553037,0.45782591 L12.017915,0.416061005 C13.2184302,0.119660445 14.7301567,0.0147530884 19.4284244,0.000785158139 L21.6029007,3.22669409e-15 C22.1182823,0.000873798939 22.6635426,0.00238699205 23.2408648,0.00446323376 Z M89.2232642,95.5130018 C88.9680557,96.345896 88.4662348,97.8232978 87.9918077,98.2885681 C87.4912958,98.7781671 85.8952273,99.2751908 85.0433811,99.5143541 C85.8659115,99.7889502 87.3861249,100.343043 87.8580451,100.832804 C88.3334573,101.325282 88.8364005,102.876878 89.0803037,103.706095 C89.3529874,102.885898 89.909755,101.352806 90.4020587,100.877226 C90.8916624,100.404254 92.4293959,99.9035566 93.2610051,99.6578439 C92.4171371,99.3890713 90.8393805,98.8366288 90.3571389,98.3298697 C89.8992173,97.8492045 89.4492599,96.3542984 89.2232642,95.5130018 Z" fill="#E0E3E7" />
  </g>
</svg>
